<svg xmlns="http://www.w3.org/2000/svg" viewBox="0 0 16 16" width="16" height="16" shape-rendering="crispEdges">
<rect x="0" y="0" width="16" height="16" rx="3.6" fill="#0C1424"></rect><rect x="2.5" y="4.5" width="1" height="1" fill="#6BA0FF"></rect><rect x="3.5" y="4.5" width="1" height="1" fill="#6BA0FF"></rect><rect x="4.5" y="4.5" width="1" height="1" fill="#6BA0FF"></rect><rect x="5.5" y="4.5" width="1" height="1" fill="#6BA0FF"></rect><rect x="6.5" y="4.5" width="1" height="1" fill="#6BA0FF"></rect><rect x="4.5" y="5.5" width="1" height="1" fill="#6BA0FF"></rect><rect x="4.5" y="6.5" width="1" height="1" fill="#6BA0FF"></rect><rect x="4.5" y="7.5" width="1" height="1" fill="#6BA0FF"></rect><rect x="4.5" y="8.5" width="1" height="1" fill="#6BA0FF"></rect><rect x="4.5" y="9.5" width="1" height="1" fill="#6BA0FF"></rect><rect x="2.5" y="10.5" width="1" height="1" fill="#6BA0FF"></rect><rect x="3.5" y="10.5" width="1" height="1" fill="#6BA0FF"></rect><rect x="4.5" y="10.5" width="1" height="1" fill="#6BA0FF"></rect><rect x="5.5" y="10.5" width="1" height="1" fill="#6BA0FF"></rect><rect x="6.5" y="10.5" width="1" height="1" fill="#6BA0FF"></rect><rect x="8.5" y="4.5" width="1" height="1" fill="#6BA0FF"></rect><rect x="12.5" y="4.5" width="1" height="1" fill="#6BA0FF"></rect><rect x="8.5" y="5.5" width="1" height="1" fill="#6BA0FF"></rect><rect x="12.5" y="5.5" width="1" height="1" fill="#6BA0FF"></rect><rect x="8.5" y="6.5" width="1" height="1" fill="#6BA0FF"></rect><rect x="12.5" y="6.5" width="1" height="1" fill="#6BA0FF"></rect><rect x="8.5" y="7.5" width="1" height="1" fill="#6BA0FF"></rect><rect x="12.5" y="7.5" width="1" height="1" fill="#6BA0FF"></rect><rect x="8.5" y="8.5" width="1" height="1" fill="#6BA0FF"></rect><rect x="12.5" y="8.5" width="1" height="1" fill="#6BA0FF"></rect><rect x="8.5" y="9.5" width="1" height="1" fill="#6BA0FF"></rect><rect x="12.5" y="9.5" width="1" height="1" fill="#6BA0FF"></rect><rect x="9.5" y="10.5" width="1" height="1" fill="#6BA0FF"></rect><rect x="10.5" y="10.5" width="1" height="1" fill="#6BA0FF"></rect><rect x="11.5" y="10.5" width="1" height="1" fill="#6BA0FF"></rect>
</svg>