<svg xmlns="http://www.w3.org/2000/svg" viewBox="0 0 350 110" width="350" height="110">
<g shape-rendering="crispEdges"><rect x="0" y="0" width="10" height="10" fill="#2D6BFF"></rect><rect x="10" y="0" width="10" height="10" fill="#2D6BFF"></rect><rect x="20" y="0" width="10" height="10" fill="#2D6BFF"></rect><rect x="30" y="0" width="10" height="10" fill="#2D6BFF"></rect><rect x="40" y="0" width="10" height="10" fill="#2D6BFF"></rect><rect x="20" y="10" width="10" height="10" fill="#2D6BFF"></rect><rect x="20" y="20" width="10" height="10" fill="#2D6BFF"></rect><rect x="20" y="30" width="10" height="10" fill="#2D6BFF"></rect><rect x="20" y="40" width="10" height="10" fill="#2D6BFF"></rect><rect x="20" y="50" width="10" height="10" fill="#2D6BFF"></rect><rect x="0" y="60" width="10" height="10" fill="#2D6BFF"></rect><rect x="10" y="60" width="10" height="10" fill="#2D6BFF"></rect><rect x="20" y="60" width="10" height="10" fill="#2D6BFF"></rect><rect x="30" y="60" width="10" height="10" fill="#2D6BFF"></rect><rect x="40" y="60" width="10" height="10" fill="#2D6BFF"></rect><rect x="70" y="20" width="10" height="10" fill="#0C1424"></rect><rect x="80" y="20" width="10" height="10" fill="#0C1424"></rect><rect x="90" y="20" width="10" height="10" fill="#0C1424"></rect><rect x="60" y="30" width="10" height="10" fill="#0C1424"></rect><rect x="60" y="40" width="10" height="10" fill="#0C1424"></rect><rect x="60" y="50" width="10" height="10" fill="#0C1424"></rect><rect x="70" y="60" width="10" height="10" fill="#0C1424"></rect><rect x="80" y="60" width="10" height="10" fill="#0C1424"></rect><rect x="90" y="60" width="10" height="10" fill="#0C1424"></rect><rect x="130" y="20" width="10" height="10" fill="#0C1424"></rect><rect x="140" y="20" width="10" height="10" fill="#0C1424"></rect><rect x="150" y="20" width="10" height="10" fill="#0C1424"></rect><rect x="120" y="30" width="10" height="10" fill="#0C1424"></rect><rect x="160" y="30" width="10" height="10" fill="#0C1424"></rect><rect x="120" y="40" width="10" height="10" fill="#0C1424"></rect><rect x="160" y="40" width="10" height="10" fill="#0C1424"></rect><rect x="120" y="50" width="10" height="10" fill="#0C1424"></rect><rect x="160" y="50" width="10" height="10" fill="#0C1424"></rect><rect x="130" y="60" width="10" height="10" fill="#0C1424"></rect><rect x="140" y="60" width="10" height="10" fill="#0C1424"></rect><rect x="150" y="60" width="10" height="10" fill="#0C1424"></rect><rect x="220" y="0" width="10" height="10" fill="#0C1424"></rect><rect x="220" y="10" width="10" height="10" fill="#0C1424"></rect><rect x="190" y="20" width="10" height="10" fill="#0C1424"></rect><rect x="200" y="20" width="10" height="10" fill="#0C1424"></rect><rect x="210" y="20" width="10" height="10" fill="#0C1424"></rect><rect x="220" y="20" width="10" height="10" fill="#0C1424"></rect><rect x="180" y="30" width="10" height="10" fill="#0C1424"></rect><rect x="220" y="30" width="10" height="10" fill="#0C1424"></rect><rect x="180" y="40" width="10" height="10" fill="#0C1424"></rect><rect x="220" y="40" width="10" height="10" fill="#0C1424"></rect><rect x="180" y="50" width="10" height="10" fill="#0C1424"></rect><rect x="220" y="50" width="10" height="10" fill="#0C1424"></rect><rect x="190" y="60" width="10" height="10" fill="#0C1424"></rect><rect x="200" y="60" width="10" height="10" fill="#0C1424"></rect><rect x="210" y="60" width="10" height="10" fill="#0C1424"></rect><rect x="220" y="60" width="10" height="10" fill="#0C1424"></rect><rect x="250" y="20" width="10" height="10" fill="#0C1424"></rect><rect x="260" y="20" width="10" height="10" fill="#0C1424"></rect><rect x="270" y="20" width="10" height="10" fill="#0C1424"></rect><rect x="240" y="30" width="10" height="10" fill="#0C1424"></rect><rect x="280" y="30" width="10" height="10" fill="#0C1424"></rect><rect x="240" y="40" width="10" height="10" fill="#0C1424"></rect><rect x="250" y="40" width="10" height="10" fill="#0C1424"></rect><rect x="260" y="40" width="10" height="10" fill="#0C1424"></rect><rect x="270" y="40" width="10" height="10" fill="#0C1424"></rect><rect x="240" y="50" width="10" height="10" fill="#0C1424"></rect><rect x="250" y="60" width="10" height="10" fill="#0C1424"></rect><rect x="260" y="60" width="10" height="10" fill="#0C1424"></rect><rect x="270" y="60" width="10" height="10" fill="#0C1424"></rect><rect x="300" y="0" width="10" height="10" fill="#2D6BFF"></rect><rect x="340" y="0" width="10" height="10" fill="#2D6BFF"></rect><rect x="300" y="10" width="10" height="10" fill="#2D6BFF"></rect><rect x="340" y="10" width="10" height="10" fill="#2D6BFF"></rect><rect x="300" y="20" width="10" height="10" fill="#2D6BFF"></rect><rect x="340" y="20" width="10" height="10" fill="#2D6BFF"></rect><rect x="300" y="30" width="10" height="10" fill="#2D6BFF"></rect><rect x="340" y="30" width="10" height="10" fill="#2D6BFF"></rect><rect x="300" y="40" width="10" height="10" fill="#2D6BFF"></rect><rect x="340" y="40" width="10" height="10" fill="#2D6BFF"></rect><rect x="300" y="50" width="10" height="10" fill="#2D6BFF"></rect><rect x="340" y="50" width="10" height="10" fill="#2D6BFF"></rect><rect x="310" y="60" width="10" height="10" fill="#2D6BFF"></rect><rect x="320" y="60" width="10" height="10" fill="#2D6BFF"></rect><rect x="330" y="60" width="10" height="10" fill="#2D6BFF"></rect></g><text x="175" y="104" font-family="&#39;JetBrains Mono&#39;,&#39;SF Mono&#39;,Menlo,Consolas,monospace" font-size="22" font-weight="500" letter-spacing="8.5" text-anchor="middle" fill="#5A6B85">DEV AGENCY</text>
</svg>