<svg xmlns="http://www.w3.org/2000/svg" viewBox="0 0 11 7" width="11" height="7" shape-rendering="crispEdges">
<rect x="0" y="0" width="1" height="1" fill="#FFFFFF"></rect><rect x="1" y="0" width="1" height="1" fill="#FFFFFF"></rect><rect x="2" y="0" width="1" height="1" fill="#FFFFFF"></rect><rect x="3" y="0" width="1" height="1" fill="#FFFFFF"></rect><rect x="4" y="0" width="1" height="1" fill="#FFFFFF"></rect><rect x="2" y="1" width="1" height="1" fill="#FFFFFF"></rect><rect x="2" y="2" width="1" height="1" fill="#FFFFFF"></rect><rect x="2" y="3" width="1" height="1" fill="#FFFFFF"></rect><rect x="2" y="4" width="1" height="1" fill="#FFFFFF"></rect><rect x="2" y="5" width="1" height="1" fill="#FFFFFF"></rect><rect x="0" y="6" width="1" height="1" fill="#FFFFFF"></rect><rect x="1" y="6" width="1" height="1" fill="#FFFFFF"></rect><rect x="2" y="6" width="1" height="1" fill="#FFFFFF"></rect><rect x="3" y="6" width="1" height="1" fill="#FFFFFF"></rect><rect x="4" y="6" width="1" height="1" fill="#FFFFFF"></rect><rect x="6" y="0" width="1" height="1" fill="#FFFFFF"></rect><rect x="10" y="0" width="1" height="1" fill="#FFFFFF"></rect><rect x="6" y="1" width="1" height="1" fill="#FFFFFF"></rect><rect x="10" y="1" width="1" height="1" fill="#FFFFFF"></rect><rect x="6" y="2" width="1" height="1" fill="#FFFFFF"></rect><rect x="10" y="2" width="1" height="1" fill="#FFFFFF"></rect><rect x="6" y="3" width="1" height="1" fill="#FFFFFF"></rect><rect x="10" y="3" width="1" height="1" fill="#FFFFFF"></rect><rect x="6" y="4" width="1" height="1" fill="#FFFFFF"></rect><rect x="10" y="4" width="1" height="1" fill="#FFFFFF"></rect><rect x="6" y="5" width="1" height="1" fill="#FFFFFF"></rect><rect x="10" y="5" width="1" height="1" fill="#FFFFFF"></rect><rect x="7" y="6" width="1" height="1" fill="#FFFFFF"></rect><rect x="8" y="6" width="1" height="1" fill="#FFFFFF"></rect><rect x="9" y="6" width="1" height="1" fill="#FFFFFF"></rect>
</svg>