<svg xmlns="http://www.w3.org/2000/svg" viewBox="0 0 35 7" width="35" height="7" shape-rendering="crispEdges">
<rect x="0" y="0" width="1" height="1" fill="#0C1424"></rect><rect x="1" y="0" width="1" height="1" fill="#0C1424"></rect><rect x="2" y="0" width="1" height="1" fill="#0C1424"></rect><rect x="3" y="0" width="1" height="1" fill="#0C1424"></rect><rect x="4" y="0" width="1" height="1" fill="#0C1424"></rect><rect x="2" y="1" width="1" height="1" fill="#0C1424"></rect><rect x="2" y="2" width="1" height="1" fill="#0C1424"></rect><rect x="2" y="3" width="1" height="1" fill="#0C1424"></rect><rect x="2" y="4" width="1" height="1" fill="#0C1424"></rect><rect x="2" y="5" width="1" height="1" fill="#0C1424"></rect><rect x="0" y="6" width="1" height="1" fill="#0C1424"></rect><rect x="1" y="6" width="1" height="1" fill="#0C1424"></rect><rect x="2" y="6" width="1" height="1" fill="#0C1424"></rect><rect x="3" y="6" width="1" height="1" fill="#0C1424"></rect><rect x="4" y="6" width="1" height="1" fill="#0C1424"></rect><rect x="7" y="2" width="1" height="1" fill="#0C1424"></rect><rect x="8" y="2" width="1" height="1" fill="#0C1424"></rect><rect x="9" y="2" width="1" height="1" fill="#0C1424"></rect><rect x="6" y="3" width="1" height="1" fill="#0C1424"></rect><rect x="6" y="4" width="1" height="1" fill="#0C1424"></rect><rect x="6" y="5" width="1" height="1" fill="#0C1424"></rect><rect x="7" y="6" width="1" height="1" fill="#0C1424"></rect><rect x="8" y="6" width="1" height="1" fill="#0C1424"></rect><rect x="9" y="6" width="1" height="1" fill="#0C1424"></rect><rect x="13" y="2" width="1" height="1" fill="#0C1424"></rect><rect x="14" y="2" width="1" height="1" fill="#0C1424"></rect><rect x="15" y="2" width="1" height="1" fill="#0C1424"></rect><rect x="12" y="3" width="1" height="1" fill="#0C1424"></rect><rect x="16" y="3" width="1" height="1" fill="#0C1424"></rect><rect x="12" y="4" width="1" height="1" fill="#0C1424"></rect><rect x="16" y="4" width="1" height="1" fill="#0C1424"></rect><rect x="12" y="5" width="1" height="1" fill="#0C1424"></rect><rect x="16" y="5" width="1" height="1" fill="#0C1424"></rect><rect x="13" y="6" width="1" height="1" fill="#0C1424"></rect><rect x="14" y="6" width="1" height="1" fill="#0C1424"></rect><rect x="15" y="6" width="1" height="1" fill="#0C1424"></rect><rect x="22" y="0" width="1" height="1" fill="#0C1424"></rect><rect x="22" y="1" width="1" height="1" fill="#0C1424"></rect><rect x="19" y="2" width="1" height="1" fill="#0C1424"></rect><rect x="20" y="2" width="1" height="1" fill="#0C1424"></rect><rect x="21" y="2" width="1" height="1" fill="#0C1424"></rect><rect x="22" y="2" width="1" height="1" fill="#0C1424"></rect><rect x="18" y="3" width="1" height="1" fill="#0C1424"></rect><rect x="22" y="3" width="1" height="1" fill="#0C1424"></rect><rect x="18" y="4" width="1" height="1" fill="#0C1424"></rect><rect x="22" y="4" width="1" height="1" fill="#0C1424"></rect><rect x="18" y="5" width="1" height="1" fill="#0C1424"></rect><rect x="22" y="5" width="1" height="1" fill="#0C1424"></rect><rect x="19" y="6" width="1" height="1" fill="#0C1424"></rect><rect x="20" y="6" width="1" height="1" fill="#0C1424"></rect><rect x="21" y="6" width="1" height="1" fill="#0C1424"></rect><rect x="22" y="6" width="1" height="1" fill="#0C1424"></rect><rect x="25" y="2" width="1" height="1" fill="#0C1424"></rect><rect x="26" y="2" width="1" height="1" fill="#0C1424"></rect><rect x="27" y="2" width="1" height="1" fill="#0C1424"></rect><rect x="24" y="3" width="1" height="1" fill="#0C1424"></rect><rect x="28" y="3" width="1" height="1" fill="#0C1424"></rect><rect x="24" y="4" width="1" height="1" fill="#0C1424"></rect><rect x="25" y="4" width="1" height="1" fill="#0C1424"></rect><rect x="26" y="4" width="1" height="1" fill="#0C1424"></rect><rect x="27" y="4" width="1" height="1" fill="#0C1424"></rect><rect x="24" y="5" width="1" height="1" fill="#0C1424"></rect><rect x="25" y="6" width="1" height="1" fill="#0C1424"></rect><rect x="26" y="6" width="1" height="1" fill="#0C1424"></rect><rect x="27" y="6" width="1" height="1" fill="#0C1424"></rect><rect x="30" y="0" width="1" height="1" fill="#0C1424"></rect><rect x="34" y="0" width="1" height="1" fill="#0C1424"></rect><rect x="30" y="1" width="1" height="1" fill="#0C1424"></rect><rect x="34" y="1" width="1" height="1" fill="#0C1424"></rect><rect x="30" y="2" width="1" height="1" fill="#0C1424"></rect><rect x="34" y="2" width="1" height="1" fill="#0C1424"></rect><rect x="30" y="3" width="1" height="1" fill="#0C1424"></rect><rect x="34" y="3" width="1" height="1" fill="#0C1424"></rect><rect x="30" y="4" width="1" height="1" fill="#0C1424"></rect><rect x="34" y="4" width="1" height="1" fill="#0C1424"></rect><rect x="30" y="5" width="1" height="1" fill="#0C1424"></rect><rect x="34" y="5" width="1" height="1" fill="#0C1424"></rect><rect x="31" y="6" width="1" height="1" fill="#0C1424"></rect><rect x="32" y="6" width="1" height="1" fill="#0C1424"></rect><rect x="33" y="6" width="1" height="1" fill="#0C1424"></rect>
</svg>