<svg xmlns="http://www.w3.org/2000/svg" viewBox="0 0 284 56" width="284" height="56" shape-rendering="crispEdges">
<rect x="0" y="0" width="56" height="56" rx="13.44" fill="#2D6BFF"></rect><rect x="8.75" y="15.75" width="3.5" height="3.5" fill="#FFFFFF"></rect><rect x="12.25" y="15.75" width="3.5" height="3.5" fill="#FFFFFF"></rect><rect x="15.75" y="15.75" width="3.5" height="3.5" fill="#FFFFFF"></rect><rect x="19.25" y="15.75" width="3.5" height="3.5" fill="#FFFFFF"></rect><rect x="22.75" y="15.75" width="3.5" height="3.5" fill="#FFFFFF"></rect><rect x="15.75" y="19.25" width="3.5" height="3.5" fill="#FFFFFF"></rect><rect x="15.75" y="22.75" width="3.5" height="3.5" fill="#FFFFFF"></rect><rect x="15.75" y="26.25" width="3.5" height="3.5" fill="#FFFFFF"></rect><rect x="15.75" y="29.75" width="3.5" height="3.5" fill="#FFFFFF"></rect><rect x="15.75" y="33.25" width="3.5" height="3.5" fill="#FFFFFF"></rect><rect x="8.75" y="36.75" width="3.5" height="3.5" fill="#FFFFFF"></rect><rect x="12.25" y="36.75" width="3.5" height="3.5" fill="#FFFFFF"></rect><rect x="15.75" y="36.75" width="3.5" height="3.5" fill="#FFFFFF"></rect><rect x="19.25" y="36.75" width="3.5" height="3.5" fill="#FFFFFF"></rect><rect x="22.75" y="36.75" width="3.5" height="3.5" fill="#FFFFFF"></rect><rect x="29.75" y="15.75" width="3.5" height="3.5" fill="#FFFFFF"></rect><rect x="43.75" y="15.75" width="3.5" height="3.5" fill="#FFFFFF"></rect><rect x="29.75" y="19.25" width="3.5" height="3.5" fill="#FFFFFF"></rect><rect x="43.75" y="19.25" width="3.5" height="3.5" fill="#FFFFFF"></rect><rect x="29.75" y="22.75" width="3.5" height="3.5" fill="#FFFFFF"></rect><rect x="43.75" y="22.75" width="3.5" height="3.5" fill="#FFFFFF"></rect><rect x="29.75" y="26.25" width="3.5" height="3.5" fill="#FFFFFF"></rect><rect x="43.75" y="26.25" width="3.5" height="3.5" fill="#FFFFFF"></rect><rect x="29.75" y="29.75" width="3.5" height="3.5" fill="#FFFFFF"></rect><rect x="43.75" y="29.75" width="3.5" height="3.5" fill="#FFFFFF"></rect><rect x="29.75" y="33.25" width="3.5" height="3.5" fill="#FFFFFF"></rect><rect x="43.75" y="33.25" width="3.5" height="3.5" fill="#FFFFFF"></rect><rect x="33.25" y="36.75" width="3.5" height="3.5" fill="#FFFFFF"></rect><rect x="36.75" y="36.75" width="3.5" height="3.5" fill="#FFFFFF"></rect><rect x="40.25" y="36.75" width="3.5" height="3.5" fill="#FFFFFF"></rect><rect x="74" y="7" width="6" height="6" fill="#2D6BFF"></rect><rect x="80" y="7" width="6" height="6" fill="#2D6BFF"></rect><rect x="86" y="7" width="6" height="6" fill="#2D6BFF"></rect><rect x="92" y="7" width="6" height="6" fill="#2D6BFF"></rect><rect x="98" y="7" width="6" height="6" fill="#2D6BFF"></rect><rect x="86" y="13" width="6" height="6" fill="#2D6BFF"></rect><rect x="86" y="19" width="6" height="6" fill="#2D6BFF"></rect><rect x="86" y="25" width="6" height="6" fill="#2D6BFF"></rect><rect x="86" y="31" width="6" height="6" fill="#2D6BFF"></rect><rect x="86" y="37" width="6" height="6" fill="#2D6BFF"></rect><rect x="74" y="43" width="6" height="6" fill="#2D6BFF"></rect><rect x="80" y="43" width="6" height="6" fill="#2D6BFF"></rect><rect x="86" y="43" width="6" height="6" fill="#2D6BFF"></rect><rect x="92" y="43" width="6" height="6" fill="#2D6BFF"></rect><rect x="98" y="43" width="6" height="6" fill="#2D6BFF"></rect><rect x="116" y="19" width="6" height="6" fill="#0C1424"></rect><rect x="122" y="19" width="6" height="6" fill="#0C1424"></rect><rect x="128" y="19" width="6" height="6" fill="#0C1424"></rect><rect x="110" y="25" width="6" height="6" fill="#0C1424"></rect><rect x="110" y="31" width="6" height="6" fill="#0C1424"></rect><rect x="110" y="37" width="6" height="6" fill="#0C1424"></rect><rect x="116" y="43" width="6" height="6" fill="#0C1424"></rect><rect x="122" y="43" width="6" height="6" fill="#0C1424"></rect><rect x="128" y="43" width="6" height="6" fill="#0C1424"></rect><rect x="152" y="19" width="6" height="6" fill="#0C1424"></rect><rect x="158" y="19" width="6" height="6" fill="#0C1424"></rect><rect x="164" y="19" width="6" height="6" fill="#0C1424"></rect><rect x="146" y="25" width="6" height="6" fill="#0C1424"></rect><rect x="170" y="25" width="6" height="6" fill="#0C1424"></rect><rect x="146" y="31" width="6" height="6" fill="#0C1424"></rect><rect x="170" y="31" width="6" height="6" fill="#0C1424"></rect><rect x="146" y="37" width="6" height="6" fill="#0C1424"></rect><rect x="170" y="37" width="6" height="6" fill="#0C1424"></rect><rect x="152" y="43" width="6" height="6" fill="#0C1424"></rect><rect x="158" y="43" width="6" height="6" fill="#0C1424"></rect><rect x="164" y="43" width="6" height="6" fill="#0C1424"></rect><rect x="206" y="7" width="6" height="6" fill="#0C1424"></rect><rect x="206" y="13" width="6" height="6" fill="#0C1424"></rect><rect x="188" y="19" width="6" height="6" fill="#0C1424"></rect><rect x="194" y="19" width="6" height="6" fill="#0C1424"></rect><rect x="200" y="19" width="6" height="6" fill="#0C1424"></rect><rect x="206" y="19" width="6" height="6" fill="#0C1424"></rect><rect x="182" y="25" width="6" height="6" fill="#0C1424"></rect><rect x="206" y="25" width="6" height="6" fill="#0C1424"></rect><rect x="182" y="31" width="6" height="6" fill="#0C1424"></rect><rect x="206" y="31" width="6" height="6" fill="#0C1424"></rect><rect x="182" y="37" width="6" height="6" fill="#0C1424"></rect><rect x="206" y="37" width="6" height="6" fill="#0C1424"></rect><rect x="188" y="43" width="6" height="6" fill="#0C1424"></rect><rect x="194" y="43" width="6" height="6" fill="#0C1424"></rect><rect x="200" y="43" width="6" height="6" fill="#0C1424"></rect><rect x="206" y="43" width="6" height="6" fill="#0C1424"></rect><rect x="224" y="19" width="6" height="6" fill="#0C1424"></rect><rect x="230" y="19" width="6" height="6" fill="#0C1424"></rect><rect x="236" y="19" width="6" height="6" fill="#0C1424"></rect><rect x="218" y="25" width="6" height="6" fill="#0C1424"></rect><rect x="242" y="25" width="6" height="6" fill="#0C1424"></rect><rect x="218" y="31" width="6" height="6" fill="#0C1424"></rect><rect x="224" y="31" width="6" height="6" fill="#0C1424"></rect><rect x="230" y="31" width="6" height="6" fill="#0C1424"></rect><rect x="236" y="31" width="6" height="6" fill="#0C1424"></rect><rect x="218" y="37" width="6" height="6" fill="#0C1424"></rect><rect x="224" y="43" width="6" height="6" fill="#0C1424"></rect><rect x="230" y="43" width="6" height="6" fill="#0C1424"></rect><rect x="236" y="43" width="6" height="6" fill="#0C1424"></rect><rect x="254" y="7" width="6" height="6" fill="#2D6BFF"></rect><rect x="278" y="7" width="6" height="6" fill="#2D6BFF"></rect><rect x="254" y="13" width="6" height="6" fill="#2D6BFF"></rect><rect x="278" y="13" width="6" height="6" fill="#2D6BFF"></rect><rect x="254" y="19" width="6" height="6" fill="#2D6BFF"></rect><rect x="278" y="19" width="6" height="6" fill="#2D6BFF"></rect><rect x="254" y="25" width="6" height="6" fill="#2D6BFF"></rect><rect x="278" y="25" width="6" height="6" fill="#2D6BFF"></rect><rect x="254" y="31" width="6" height="6" fill="#2D6BFF"></rect><rect x="278" y="31" width="6" height="6" fill="#2D6BFF"></rect><rect x="254" y="37" width="6" height="6" fill="#2D6BFF"></rect><rect x="278" y="37" width="6" height="6" fill="#2D6BFF"></rect><rect x="260" y="43" width="6" height="6" fill="#2D6BFF"></rect><rect x="266" y="43" width="6" height="6" fill="#2D6BFF"></rect><rect x="272" y="43" width="6" height="6" fill="#2D6BFF"></rect>
</svg>