<?xml version="1.0" encoding="UTF-8"?>
<svg version="1.1" xmlns="http://www.w3.org/2000/svg" width="224" height="256" viewBox="0 0 224 256"><g transform="scale(1.166667,1.122807)">
<path d="M0 0 C16.5 0 33 0 50 0 C50 1.65 50 3.3 50 5 C53.63 5 57.26 5 61 5 C61 6.98 61 8.96 61 11 C62.98 11 64.96 11 67 11 C67 12.65 67 14.3 67 16 C68.65 16 70.3 16 72 16 C72 17.65 72 19.3 72 21 C73.65 21 75.3 21 77 21 C77 22.98 77 24.96 77 27 C78.98 27 80.96 27 83 27 C83 28.65 83 30.3 83 32 C84.65 32 86.3 32 88 32 C88 35.96 88 39.92 88 44 C89.98 44 91.96 44 94 44 C94 60.17 94 76.34 94 93 C92.02 93 90.04 93 88 93 C88 96.63 88 100.26 88 104 C86.35 104 84.7 104 83 104 C83 105.98 83 107.96 83 110 C81.02 110 79.04 110 77 110 C77 111.65 77 113.3 77 115 C75.35 115 73.7 115 72 115 C72 116.65 72 118.3 72 120 C70.02 120 68.04 120 66 120 C66 121.98 66 123.96 66 126 C64.35 126 62.7 126 61 126 C61 153.06 61 180.12 61 208 C57.37 208 53.74 208 50 208 C50 206.35 50 204.7 50 203 C48.02 203 46.04 203 44 203 C44 201.35 44 199.7 44 198 C42.7934375 198.0309375 42.7934375 198.0309375 41.5625 198.0625 C39 198 39 198 38 197 C37.95936168 195.33382885 37.957279 193.66611905 38 192 C36.35 192 34.7 192 33 192 C33 190.35 33 188.7 33 187 C31.02 187 29.04 187 27 187 C27 185.02 27 183.04 27 181 C25.68 181 24.36 181 23 181 C23 182.98 23 184.96 23 187 C21.02 187 19.04 187 17 187 C17 188.65 17 190.3 17 192 C15.35 192 13.7 192 12 192 C12 193.65 12 195.3 12 197 C10.02 197 8.04 197 6 197 C6 198.98 6 200.96 6 203 C4.35 203 2.7 203 1 203 C1 204.65 1 206.3 1 208 C-2.96 208 -6.92 208 -11 208 C-11 180.94 -11 153.88 -11 126 C-12.65 126 -14.3 126 -16 126 C-16 124.35 -16 122.7 -16 121 C-17.98 121 -19.96 121 -22 121 C-22 119.02 -22 117.04 -22 115 C-23.65 115 -25.3 115 -27 115 C-27 113.35 -27 111.7 -27 110 C-28.98 110 -30.96 110 -33 110 C-33 108.02 -33 106.04 -33 104 C-34.65 104 -36.3 104 -38 104 C-38 100.37 -38 96.74 -38 93 C-39.65 93 -41.3 93 -43 93 C-43 76.83 -43 60.66 -43 44 C-41.35 44 -39.7 44 -38 44 C-38 40.04 -38 36.08 -38 32 C-36.35 32 -34.7 32 -33 32 C-33 30.35 -33 28.7 -33 27 C-31.02 27 -29.04 27 -27 27 C-27 25.02 -27 23.04 -27 21 C-25.35 21 -23.7 21 -22 21 C-22 19.35 -22 17.7 -22 16 C-20.02 16 -18.04 16 -16 16 C-16 14.02 -16 12.04 -16 10 C-14.35 10 -12.7 10 -11 10 C-11 8.35 -11 6.7 -11 5 C-7.37 5 -3.74 5 0 5 C0 3.35 0 1.7 0 0 Z " fill="#D8994E" transform="translate(73,12)"/>
<path d="M0 0 C16.5 0 33 0 50 0 C50 1.65 50 3.3 50 5 C53.63 5 57.26 5 61 5 C61 6.98 61 8.96 61 11 C62.98 11 64.96 11 67 11 C67 12.65 67 14.3 67 16 C68.65 16 70.3 16 72 16 C72 17.65 72 19.3 72 21 C73.65 21 75.3 21 77 21 C77 22.98 77 24.96 77 27 C78.98 27 80.96 27 83 27 C83 28.65 83 30.3 83 32 C84.65 32 86.3 32 88 32 C88 35.96 88 39.92 88 44 C89.98 44 91.96 44 94 44 C94 60.17 94 76.34 94 93 C92.02 93 90.04 93 88 93 C88 96.63 88 100.26 88 104 C86.35 104 84.7 104 83 104 C83 105.98 83 107.96 83 110 C81.02 110 79.04 110 77 110 C77 111.65 77 113.3 77 115 C75.35 115 73.7 115 72 115 C72 116.65 72 118.3 72 120 C70.02 120 68.04 120 66 120 C66 121.98 66 123.96 66 126 C64.35 126 62.7 126 61 126 C61 153.06 61 180.12 61 208 C57.37 208 53.74 208 50 208 C50 206.35 50 204.7 50 203 C48.02 203 46.04 203 44 203 C44 201.35 44 199.7 44 198 C42.7934375 198.0309375 42.7934375 198.0309375 41.5625 198.0625 C39 198 39 198 38 197 C37.95936168 195.33382885 37.957279 193.66611905 38 192 C36.35 192 34.7 192 33 192 C33 190.35 33 188.7 33 187 C31.02 187 29.04 187 27 187 C27 185.02 27 183.04 27 181 C25.68 181 24.36 181 23 181 C23 182.98 23 184.96 23 187 C21.02 187 19.04 187 17 187 C17 188.65 17 190.3 17 192 C15.35 192 13.7 192 12 192 C12 193.65 12 195.3 12 197 C10.02 197 8.04 197 6 197 C6 198.98 6 200.96 6 203 C4.35 203 2.7 203 1 203 C1 204.65 1 206.3 1 208 C-2.96 208 -6.92 208 -11 208 C-11 180.94 -11 153.88 -11 126 C-12.65 126 -14.3 126 -16 126 C-16 124.35 -16 122.7 -16 121 C-17.98 121 -19.96 121 -22 121 C-22 119.02 -22 117.04 -22 115 C-23.65 115 -25.3 115 -27 115 C-27 113.35 -27 111.7 -27 110 C-28.98 110 -30.96 110 -33 110 C-33 108.02 -33 106.04 -33 104 C-34.65 104 -36.3 104 -38 104 C-38 100.37 -38 96.74 -38 93 C-39.65 93 -41.3 93 -43 93 C-43 76.83 -43 60.66 -43 44 C-41.35 44 -39.7 44 -38 44 C-38 40.04 -38 36.08 -38 32 C-36.35 32 -34.7 32 -33 32 C-33 30.35 -33 28.7 -33 27 C-31.02 27 -29.04 27 -27 27 C-27 25.02 -27 23.04 -27 21 C-25.35 21 -23.7 21 -22 21 C-22 19.35 -22 17.7 -22 16 C-20.02 16 -18.04 16 -16 16 C-16 14.02 -16 12.04 -16 10 C-14.35 10 -12.7 10 -11 10 C-11 8.35 -11 6.7 -11 5 C-7.37 5 -3.74 5 0 5 C0 3.35 0 1.7 0 0 Z M0 11 C0 12.65 0 14.3 0 16 C-3.3 16 -6.6 16 -10 16 C-10.33 17.65 -10.66 19.3 -11 21 C-12.65 21 -14.3 21 -16 21 C-16 22.98 -16 24.96 -16 27 C-20.95 27.495 -20.95 27.495 -26 28 C-26.33 29.32 -26.66 30.64 -27 32 C-28.65 32.33 -30.3 32.66 -32 33 C-32.79958632 40.48955348 -33.14835707 47.87649284 -33.1328125 55.40625 C-33.13376923 56.45220337 -33.13472595 57.49815674 -33.13571167 58.57580566 C-33.13638728 60.77075257 -33.13457659 62.96570155 -33.13037109 65.16064453 C-33.12501406 68.49125725 -33.13033733 71.82173515 -33.13671875 75.15234375 C-33.13605786 77.29947946 -33.13477647 79.44661509 -33.1328125 81.59375 C-33.13483673 82.57428345 -33.13686096 83.55481689 -33.13894653 84.56506348 C-33.11714102 91.10002873 -32.66779273 97.49847081 -32 104 C-28.7 104 -25.4 104 -22 104 C-22 105.98 -22 107.96 -22 110 C-20.02 110 -18.04 110 -16 110 C-16 113.3 -16 116.6 -16 120 C-14.35 120.33 -12.7 120.66 -11 121 C-10.95875 121.61875 -10.9175 122.2375 -10.875 122.875 C-10.16937052 125.29985932 -10.16937052 125.29985932 -7.32142639 126.11663818 C-4.0444996 126.98816495 -1.36224045 127.25351478 2.01782227 127.25878906 C3.18245499 127.26509338 4.34708771 127.27139771 5.54701233 127.27789307 C6.79091232 127.2738446 8.03481232 127.26979614 9.31640625 127.265625 C10.60562485 127.26753845 11.89484344 127.2694519 13.22312927 127.27142334 C15.94396795 127.27436226 18.66467477 127.27011616 21.38549805 127.26074219 C24.86453248 127.24933685 28.34325864 127.25592155 31.82228184 127.26788712 C35.15368108 127.27686931 38.48499826 127.27057313 41.81640625 127.265625 C43.68529259 127.27169769 43.68529259 127.27169769 45.5919342 127.27789307 C46.75341476 127.27158875 47.91489532 127.26528442 49.11157227 127.25878906 C50.13050064 127.25719788 51.14942902 127.25560669 52.19923401 127.25396729 C55.17948347 126.98372484 57.34004301 126.36076206 60 125 C60.88693303 122.95894361 60.88693303 122.95894361 61 121 C62.65 120.67 64.3 120.34 66 120 C66.33 116.7 66.66 113.4 67 110 C68.65 110 70.3 110 72 110 C72 108.02 72 106.04 72 104 C76.455 103.505 76.455 103.505 81 103 C81.144375 101.535625 81.28875 100.07125 81.4375 98.5625 C81.875 94.125 81.875 94.125 83 93 C83.10353969 91.51853056 83.13850935 90.032187 83.14526367 88.54711914 C83.15164352 87.59845474 83.15802338 86.64979034 83.16459656 85.67237854 C83.16570938 84.63709518 83.1668222 83.60181183 83.16796875 82.53515625 C83.17129715 81.47268173 83.17462555 80.41020721 83.17805481 79.3155365 C83.18313229 77.05663487 83.18546288 74.79772569 83.18530273 72.53881836 C83.18747097 69.10843157 83.2055671 65.67837589 83.22460938 62.24804688 C83.22754691 60.05208443 83.22952929 57.85612046 83.23046875 55.66015625 C83.24124702 54.13455833 83.24124702 54.13455833 83.25224304 52.57814026 C83.30394955 43.09593836 83.30394955 43.09593836 81 34 C78.0642408 31.95186489 76.73050575 32 73 32 C72.67 30.35 72.34 28.7 72 27 C70.35 27 68.7 27 67 27 C67 25.35 67 23.7 67 22 C66.34 22 65.68 22 65 22 C65 20.35 65 18.7 65 17 C63.68 16.67 62.36 16.34 61 16 C60.505 13.525 60.505 13.525 60 11 C40.2 11 20.4 11 0 11 Z " fill="#6E6563" transform="translate(73,12)"/>
<path d="M0 0 C16.5 0 33 0 50 0 C50 1.98 50 3.96 50 6 C33.83 6 17.66 6 1 6 C1 7.65 1 9.3 1 11 C-2.63 11 -6.26 11 -10 11 C-10 12.98 -10 14.96 -10 17 C-11.98 17 -13.96 17 -16 17 C-16 18.65 -16 20.3 -16 22 C-17.65 22 -19.3 22 -21 22 C-21 25.63 -21 29.26 -21 33 C-22.65 33 -24.3 33 -26 33 C-26 48.84 -26 64.68 -26 81 C-24.35 81 -22.7 81 -21 81 C-21 79.68 -21 78.36 -21 77 C-19.68 77 -18.36 77 -17 77 C-16.67 78.98 -16.34 80.96 -16 83 C-14.35 83 -12.7 83 -11 83 C-10.67 84.32 -10.34 85.64 -10 87 C-8.35 87 -6.7 87 -5 87 C-5 85.35 -5 83.7 -5 82 C-6.65 82 -8.3 82 -10 82 C-10 76.72 -10 71.44 -10 66 C-8.35 66 -6.7 66 -5 66 C-5 64.02 -5 62.04 -5 60 C-3.02 60 -1.04 60 1 60 C1 58.35 1 56.7 1 55 C3.475 54.505 3.475 54.505 6 54 C6.33 52.68 6.66 51.36 7 50 C8.98 49.505 8.98 49.505 11 49 C11.33 47.35 11.66 45.7 12 44 C13.65 44 15.3 44 17 44 C17 42.02 17 40.04 17 38 C18.65 38 20.3 38 22 38 C22 36.35 22 34.7 22 33 C23.98 33 25.96 33 28 33 C28 31.02 28 29.04 28 27 C29.65 27 31.3 27 33 27 C33 25.35 33 23.7 33 22 C36.63 22 40.26 22 44 22 C44 23.65 44 25.3 44 27 C47.63 27 51.26 27 55 27 C55 28.98 55 30.96 55 33 C53.35 33 51.7 33 50 33 C50 34.65 50 36.3 50 38 C48.02 38 46.04 38 44 38 C44 39.65 44 41.3 44 43 C42.35 43.33 40.7 43.66 39 44 C38.67 45.65 38.34 47.3 38 49 C36.35 49 34.7 49 33 49 C33 50.65 33 52.3 33 54 C31.35 54 29.7 54 28 54 C28 55.98 28 57.96 28 60 C26.02 60 24.04 60 22 60 C22 61.65 22 63.3 22 65 C20.35 65 18.7 65 17 65 C17 66.98 17 68.96 17 71 C15.02 71 13.04 71 11 71 C11 72.65 11 74.3 11 76 C9.35 76 7.7 76 6 76 C6 77.98 6 79.96 6 82 C3.525 82.495 3.525 82.495 1 83 C0.67 84.65 0.34 86.3 0 88 C-1.32 88 -2.64 88 -4 88 C-4 89.65 -4 91.3 -4 93 C-0.7 93 2.6 93 6 93 C6 94.98 6 96.96 6 99 C9.63 99 13.26 99 17 99 C17 100.65 17 102.3 17 104 C15.35 104 13.7 104 12 104 C12 105.65 12 107.3 12 109 C25.86 109 39.72 109 54 109 C54.33 110.65 54.66 112.3 55 114 C35.53 114 16.06 114 -4 114 C-4 112.35 -4 110.7 -4 109 C-5.98 109 -7.96 109 -10 109 C-10 107.35 -10 105.7 -10 104 C-11.98 104 -13.96 104 -16 104 C-16 102.35 -16 100.7 -16 99 C-17.98 99 -19.96 99 -22 99 C-22 97.02 -22 95.04 -22 93 C-25.3 93 -28.6 93 -32 93 C-32.77059821 85.49757214 -33.14837572 78.1325429 -33.1328125 70.59375 C-33.13376923 69.54779663 -33.13472595 68.50184326 -33.13571167 67.42419434 C-33.13638728 65.22924743 -33.13457659 63.03429845 -33.13037109 60.83935547 C-33.12501406 57.50874275 -33.13033733 54.17826485 -33.13671875 50.84765625 C-33.13605786 48.70052054 -33.13477647 46.55338491 -33.1328125 44.40625 C-33.13483673 43.42571655 -33.13686096 42.44518311 -33.13894653 41.43493652 C-33.11716886 34.90831469 -32.69279472 28.48925947 -32 22 C-30.35 21.67 -28.7 21.34 -27 21 C-26.67 19.68 -26.34 18.36 -26 17 C-22.7 16.67 -19.4 16.34 -16 16 C-16 14.02 -16 12.04 -16 10 C-14.35 10 -12.7 10 -11 10 C-10.67 8.35 -10.34 6.7 -10 5 C-6.7 5 -3.4 5 0 5 C0 3.35 0 1.7 0 0 Z " fill="#E6B46A" transform="translate(73,23)"/>
<path d="M0 0 C19.47 0 38.94 0 59 0 C59 0.33 59 0.66 59 1 C57.35 1 55.7 1 54 1 C54 20.8 54 40.6 54 61 C51.03 60.505 51.03 60.505 48 60 C48 58.68 48 57.36 48 56 C47.195625 56.020625 46.39125 56.04125 45.5625 56.0625 C43 56 43 56 42 55 C41.95936168 53.33382885 41.957279 51.66611905 42 50 C40.35 50 38.7 50 37 50 C37 48.35 37 46.7 37 45 C31.72 44.67 26.44 44.34 21 44 C20.67 47.3 20.34 50.6 20 54 C18.02 54.495 18.02 54.495 16 55 C15.505 57.475 15.505 57.475 15 60 C16.98 60 18.96 60 21 60 C21 60.33 21 60.66 21 61 C19.35 61 17.7 61 16 61 C16 62.65 16 64.3 16 66 C15.67 66 15.34 66 15 66 C15 64.35 15 62.7 15 61 C13.02 61 11.04 61 9 61 C9 62.32 9 63.64 9 65 C7.35 65 5.7 65 4 65 C4 66.98 4 68.96 4 71 C2.68 71 1.36 71 0 71 C0 47.57 0 24.14 0 0 Z " fill="#5F7C93" transform="translate(69,143)"/>
<path d="M0 0 C3.3 0 6.6 0 10 0 C10.495 2.475 10.495 2.475 11 5 C12.32 5.33 13.64 5.66 15 6 C15.495 11.445 15.495 11.445 16 17 C17.65 17 19.3 17 21 17 C21 18.65 21 20.3 21 22 C17.7 22 14.4 22 11 22 C11 23.65 11 25.3 11 27 C9.35 27 7.7 27 6 27 C6 28.98 6 30.96 6 33 C7.32 33 8.64 33 10 33 C10.33 41.91 10.66 50.82 11 60 C8.525 60.495 8.525 60.495 6 61 C6 62.65 6 64.3 6 66 C4.02 66 2.04 66 0 66 C0 67.65 0 69.3 0 71 C-2.475 71.495 -2.475 71.495 -5 72 C-5.33 73.65 -5.66 75.3 -6 77 C-7.65 77 -9.3 77 -11 77 C-11 78.65 -11 80.3 -11 82 C-13.475 82.495 -13.475 82.495 -16 83 C-16.33 84.65 -16.66 86.3 -17 88 C-18.65 88 -20.3 88 -22 88 C-22 89.65 -22 91.3 -22 93 C-32.56 93 -43.12 93 -54 93 C-54 91.35 -54 89.7 -54 88 C-52.02 87.505 -52.02 87.505 -50 87 C-49.67 85.68 -49.34 84.36 -49 83 C-47.02 82.505 -47.02 82.505 -45 82 C-44.67 80.02 -44.34 78.04 -44 76 C-42.35 76 -40.7 76 -39 76 C-39 74.35 -39 72.7 -39 71 C-37.02 71 -35.04 71 -33 71 C-33 69.02 -33 67.04 -33 65 C-31.35 65 -29.7 65 -28 65 C-28 63.35 -28 61.7 -28 60 C-26.02 60 -24.04 60 -22 60 C-22 58.02 -22 56.04 -22 54 C-20.35 54 -18.7 54 -17 54 C-17 52.35 -17 50.7 -17 49 C-15.35 49 -13.7 49 -12 49 C-12.020625 48.195625 -12.04125 47.39125 -12.0625 46.5625 C-12 44 -12 44 -11 43 C-9.33382885 42.95936168 -7.66611905 42.957279 -6 43 C-6 41.35 -6 39.7 -6 38 C-4.02 38 -2.04 38 0 38 C0 36.35 0 34.7 0 33 C1.65 33 3.3 33 5 33 C5 29.04 5 25.08 5 21 C1.7 21 -1.6 21 -5 21 C-5.33 17.7 -5.66 14.4 -6 11 C-4.02 11 -2.04 11 0 11 C0 7.37 0 3.74 0 0 Z " fill="#D99A4E" transform="translate(123,23)"/>
<path d="M0 0 C0.33 0 0.66 0 1 0 C1 1.65 1 3.3 1 5 C2.65 5 4.3 5 6 5 C6.495 7.475 6.495 7.475 7 10 C7.763125 10.144375 8.52625 10.28875 9.3125 10.4375 C12 11 12 11 15 12 C15.495 16.95 15.495 16.95 16 22 C14.35 22 12.7 22 11 22 C11 23.65 11 25.3 11 27 C9.02 27 7.04 27 5 27 C5 28.65 5 30.3 5 32 C3.02 32.495 3.02 32.495 1 33 C0.67 45.54 0.34 58.08 0 71 C-1.65 71 -3.3 71 -5 71 C-5 72.98 -5 74.96 -5 77 C-6.65 77 -8.3 77 -10 77 C-9.979375 77.804375 -9.95875 78.60875 -9.9375 79.4375 C-10 82 -10 82 -11 83 C-12.68608966 83.07205511 -14.37500659 83.08386068 -16.0625 83.0625 C-17.44115234 83.04896484 -17.44115234 83.04896484 -18.84765625 83.03515625 C-19.91306641 83.01775391 -19.91306641 83.01775391 -21 83 C-21 84.65 -21 86.3 -21 88 C-33.87 88 -46.74 88 -60 88 C-60 86.02 -60 84.04 -60 82 C-52.74 82 -45.48 82 -38 82 C-38 80.35 -38 78.7 -38 77 C-35.525 76.505 -35.525 76.505 -33 76 C-32.67 74.68 -32.34 73.36 -32 72 C-30.02 71.505 -30.02 71.505 -28 71 C-27.67 69.35 -27.34 67.7 -27 66 C-24.525 65.505 -24.525 65.505 -22 65 C-21.67 63.68 -21.34 62.36 -21 61 C-19.02 60.505 -19.02 60.505 -17 60 C-16.67 58.35 -16.34 56.7 -16 55 C-14.02 55 -12.04 55 -10 55 C-10 53.35 -10 51.7 -10 50 C-8.02 49.505 -8.02 49.505 -6 49 C-6 40.09 -6 31.18 -6 22 C-7.32 22 -8.64 22 -10 22 C-10 20.02 -10 18.04 -10 16 C-8.35 16 -6.7 16 -5 16 C-5 14.35 -5 12.7 -5 11 C-1.7 11 1.6 11 5 11 C5 9.35 5 7.7 5 6 C3.35 6 1.7 6 0 6 C0 4.02 0 2.04 0 0 Z " fill="#D7984E" transform="translate(139,34)"/>
<path d="M0 0 C16.17 0 32.34 0 49 0 C49 1.65 49 3.3 49 5 C52.63 5 56.26 5 60 5 C60 6.98 60 8.96 60 11 C61.98 11 63.96 11 66 11 C66 12.65 66 14.3 66 16 C67.65 16 69.3 16 71 16 C71 17.65 71 19.3 71 21 C72.65 21 74.3 21 76 21 C76 22.98 76 24.96 76 27 C77.98 27 79.96 27 82 27 C82 28.65 82 30.3 82 32 C83.65 32 85.3 32 87 32 C87 35.96 87 39.92 87 44 C88.98 44 90.96 44 93 44 C93 60.17 93 76.34 93 93 C91.02 93 89.04 93 87 93 C87 96.63 87 100.26 87 104 C85.35 104 83.7 104 82 104 C82 105.98 82 107.96 82 110 C80.02 110 78.04 110 76 110 C76 111.65 76 113.3 76 115 C74.35 115 72.7 115 71 115 C71 116.65 71 118.3 71 120 C69.02 120 67.04 120 65 120 C65.33 116.7 65.66 113.4 66 110 C67.65 110 69.3 110 71 110 C71 108.02 71 106.04 71 104 C75.455 103.505 75.455 103.505 80 103 C79.979375 101.535625 79.95875 100.07125 79.9375 98.5625 C79.91607993 97.04167482 79.92820036 95.51928038 80 94 C80.33 93.67 80.66 93.34 81 93 C81.0983867 91.47595193 81.12798534 89.94738587 81.12939453 88.42016602 C81.13412277 86.95843712 81.13412277 86.95843712 81.13894653 85.46717834 C81.1369223 84.40679855 81.13489807 83.34641876 81.1328125 82.25390625 C81.13424759 80.63173439 81.13424759 80.63173439 81.13571167 78.97679138 C81.13639371 76.68431541 81.13453777 74.39183752 81.13037109 72.09936523 C81.12502836 68.58117345 81.13031264 65.06310963 81.13671875 61.54492188 C81.13605787 59.32291638 81.13477651 57.10091097 81.1328125 54.87890625 C81.13584885 53.29137291 81.13584885 53.29137291 81.13894653 51.67176819 C81.13579437 50.6941301 81.13264221 49.716492 81.12939453 48.70922852 C81.12859894 47.84620621 81.12780334 46.9831839 81.12698364 46.0940094 C81.13380669 43.94073528 81.13380669 43.94073528 80 42 C79.86584528 39.3276379 79.95681459 36.67749512 80 34 C79.4225 33.855625 78.845 33.71125 78.25 33.5625 C76.16666667 33.04166667 74.08333333 32.52083333 72 32 C71.505 30.02 71.505 30.02 71 28 C69.35 27.67 67.7 27.34 66 27 C66 25.35 66 23.7 66 22 C65.34 22 64.68 22 64 22 C64 20.35 64 18.7 64 17 C62.35 16.67 60.7 16.34 59 16 C59 14.35 59 12.7 59 11 C55.7 11 52.4 11 49 11 C48.505 8.525 48.505 8.525 48 6 C47.41340103 6.00222061 46.82680206 6.00444122 46.22242737 6.00672913 C40.13974616 6.0287821 34.05707623 6.04390664 27.97436523 6.05493164 C25.70157409 6.05997325 23.4287862 6.06680637 21.15600586 6.07543945 C17.89696449 6.08751261 14.63796583 6.09322987 11.37890625 6.09765625 C10.35599991 6.10281754 9.33309357 6.10797882 8.27919006 6.11329651 C7.33829025 6.11337204 6.39739044 6.11344757 5.42797852 6.11352539 C4.59524918 6.115746 3.76251984 6.11796661 2.90455627 6.12025452 C1 6 1 6 0 5 C0 3.35 0 1.7 0 0 Z " fill="#9F4E3D" transform="translate(74,12)"/>
<path d="M0 0 C1.65 0 3.3 0 5 0 C5 1.98 5 3.96 5 6 C3.35 6 1.7 6 0 6 C0 33.06 0 60.12 0 88 C-3.63 88 -7.26 88 -11 88 C-11 86.35 -11 84.7 -11 83 C-12.98 83 -14.96 83 -17 83 C-17 81.35 -17 79.7 -17 78 C-17.804375 78.020625 -18.60875 78.04125 -19.4375 78.0625 C-22 78 -22 78 -23 77 C-23.04063832 75.33382885 -23.042721 73.66611905 -23 72 C-24.65 72 -26.3 72 -28 72 C-28 70.35 -28 68.7 -28 67 C-29.98 67 -31.96 67 -34 67 C-34 65.02 -34 63.04 -34 61 C-35.32 61 -36.64 61 -38 61 C-38 62.98 -38 64.96 -38 67 C-39.98 67 -41.96 67 -44 67 C-44 68.32 -44 69.64 -44 71 C-45.98 71 -47.96 71 -50 71 C-50 69.35 -50 67.7 -50 66 C-47.525 65.505 -47.525 65.505 -45 65 C-44.67 61.7 -44.34 58.4 -44 55 C-41.89590361 54.97298592 -39.79170822 54.95359777 -37.6875 54.9375 C-36.51574219 54.92589844 -35.34398438 54.91429687 -34.13671875 54.90234375 C-31 55 -31 55 -28 56 C-28 57.65 -28 59.3 -28 61 C-26.35 61 -24.7 61 -23 61 C-22.67 62.65 -22.34 64.3 -22 66 C-20.35 66.33 -18.7 66.66 -17 67 C-17 68.32 -17 69.64 -17 71 C-14.03 71.495 -14.03 71.495 -11 72 C-11 52.2 -11 32.4 -11 12 C-9.35 12 -7.7 12 -6 12 C-6 10.02 -6 8.04 -6 6 C-4.35 5.67 -2.7 5.34 -1 5 C-0.67 3.35 -0.34 1.7 0 0 Z " fill="#455461" transform="translate(134,132)"/>
<path d="M0 0 C16.5 0 33 0 50 0 C50 1.98 50 3.96 50 6 C33.83 6 17.66 6 1 6 C1 7.65 1 9.3 1 11 C-2.63 11 -6.26 11 -10 11 C-10 12.98 -10 14.96 -10 17 C-11.98 17 -13.96 17 -16 17 C-16 18.65 -16 20.3 -16 22 C-17.65 22 -19.3 22 -21 22 C-21 25.63 -21 29.26 -21 33 C-22.98 33 -24.96 33 -27 33 C-27 49.17 -27 65.34 -27 82 C-25.02 82 -23.04 82 -21 82 C-21 85.63 -21 89.26 -21 93 C-19.35 93 -17.7 93 -16 93 C-16 94.65 -16 96.3 -16 98 C-15.195625 97.979375 -14.39125 97.95875 -13.5625 97.9375 C-11 98 -11 98 -10 99 C-9.95936168 100.66617115 -9.957279 102.33388095 -10 104 C-11.98 104 -13.96 104 -16 104 C-16 102.35 -16 100.7 -16 99 C-17.98 99 -19.96 99 -22 99 C-22 97.02 -22 95.04 -22 93 C-25.3 93 -28.6 93 -32 93 C-32.77059821 85.49757214 -33.14837572 78.1325429 -33.1328125 70.59375 C-33.13376923 69.54779663 -33.13472595 68.50184326 -33.13571167 67.42419434 C-33.13638728 65.22924743 -33.13457659 63.03429845 -33.13037109 60.83935547 C-33.12501406 57.50874275 -33.13033733 54.17826485 -33.13671875 50.84765625 C-33.13605786 48.70052054 -33.13477647 46.55338491 -33.1328125 44.40625 C-33.13483673 43.42571655 -33.13686096 42.44518311 -33.13894653 41.43493652 C-33.11716886 34.90831469 -32.69279472 28.48925947 -32 22 C-30.35 21.67 -28.7 21.34 -27 21 C-26.67 19.68 -26.34 18.36 -26 17 C-22.7 16.67 -19.4 16.34 -16 16 C-16 14.02 -16 12.04 -16 10 C-14.35 10 -12.7 10 -11 10 C-10.67 8.35 -10.34 6.7 -10 5 C-6.7 5 -3.4 5 0 5 C0 3.35 0 1.7 0 0 Z " fill="#EFD9CA" transform="translate(73,23)"/>
<path d="M0 0 C8.58 0 17.16 0 26 0 C26 1.65 26 3.3 26 5 C24.35 5 22.7 5 21 5 C21 6.98 21 8.96 21 11 C19.02 11 17.04 11 15 11 C15 12.65 15 14.3 15 16 C13.35 16 11.7 16 10 16 C10 17.98 10 19.96 10 22 C8.35 22 6.7 22 5 22 C5 23.65 5 25.3 5 27 C3.35 27.33 1.7 27.66 0 28 C-0.33 29.65 -0.66 31.3 -1 33 C-2.65 33 -4.3 33 -6 33 C-6 34.65 -6 36.3 -6 38 C-7.98 38 -9.96 38 -12 38 C-12 39.98 -12 41.96 -12 44 C-13.65 44 -15.3 44 -17 44 C-17 33.11 -17 22.22 -17 11 C-15.35 10.67 -13.7 10.34 -12 10 C-11.67 8.68 -11.34 7.36 -11 6 C-7.7 5.67 -4.4 5.34 -1 5 C-0.67 3.35 -0.34 1.7 0 0 Z " fill="#D99A4E" transform="translate(80,45)"/>
<path d="M0 0 C0.33 0 0.66 0 1 0 C1 15.84 1 31.68 1 48 C2.65 를48 4.3 48 6 48 C6 46.68 6 45.36 6 44 C7.32 44 8.64 44 10 44 C10.33 45.98 10.66 47.96 11 50 C12.65 50 14.3 50 16 50 C16.33 51.32 16.66 52.64 17 54 C18.65 54 20.3 54 22 54 C22 52.35 22 50.7 22 49 C22.33 49 22.66 49 23 49 C23 50.65 23 52.3 23 54 C24.32 54.33 25.64 54.66 27 55 C25.68 55 24.36 55 23 55 C23 56.65 23 58.3 23 60 C26.3 60 29.6 60 33 60 C33 61.98 33 63.96 33 66 C36.63 66 40.26 66 44 66 C44 67.65 44 69.3 44 71 C42.35 71 40.7 71 39 71 C39 72.65 39 74.3 39 76 C52.86 76 66.72 76 81 76 C81.33 77.65 81.66 79.3 82 81 C62.53 81 43.06 81 23 81 C23 79.35 23 77.7 23 76 C21.02 76 19.04 76 17 76 C16.505 71.05 16.505 71.05 16 66 C14.35 65.67 12.7 65.34 11 65 C11 63.35 11 61.7 11 60 C9.35 60 7.7 60 6 60 C6 56.37 6 52.74 6 49 C4.02 49 2.04 49 0 49 C0 32.83 0 16.66 0 0 Z " fill="#D89A4F" transform="translate(46,56)"/>
<path d="M0 0 C19.47 0 38.94 0 59 0 C59 0.33 59 0.66 59 1 C42.83 1 26.66 1 10 1 C10 18.82 10 36.64 10 55 C11.65 55 13.3 55 15 55 C15 56.65 15 58.3 15 60 C16.98 60 18.96 60 21 60 C21 60.33 21 60.66 21 61 C19.35 61 17.7 61 16 61 C16 62.65 16 64.3 16 66 C15.67 66 15.34 66 15 66 C15 64.35 15 62.7 15 61 C13.02 61 11.04 61 9 61 C9 62.32 9 63.64 9 65 C7.35 65 5.7 65 4 65 C4 66.98 4 68.96 4 71 C2.68 71 1.36 71 0 71 C0 47.57 0 24.14 0 0 Z " fill="#495A69" transform="translate(69,143)"/>
<path d="M0 0 C12.87 0 25.74 0 39 0 C39 1.65 39 3.3 39 5 C42.3 5 45.6 5 49 5 C49 6.98 49 8.96 49 11 C45.37 11 41.74 11 38 11 C38 9.35 38 7.7 38 6 C25.79 6 13.58 6 1 6 C1 7.65 1 9.3 1 11 C0 12 0 12 -2.28515625 12.09765625 C-3.65994141 12.08025391 -3.65994141 12.08025391 -5.0625 12.0625 C-5.98160156 12.05347656 -6.90070313 12.04445313 -7.84765625 12.03515625 C-8.55792969 12.02355469 -9.26820312 12.01195312 -10 12 C-10.33 13.65 -10.66 15.3 -11 17 C-12.65 17 -14.3 17 -16 17 C-16 33.17 -16 49.34 -16 66 C-14.35 66 -12.7 66 -11 66 C-11 67.65 -11 69.3 -11 71 C-12.65 71 -14.3 71 -16 71 C-16.33 70.01 -16.66 69.02 -17 68 C-18.65 67.67 -20.3 67.34 -22 67 C-22 50.17 -22 33.34 -22 16 C-20.35 16 -18.7 16 -17 16 C-17 14.35 -17 12.7 -17 11 C-15.02 11 -13.04 11 -11 11 C-11 9.02 -11 7.04 -11 5 C-7.7 5 -4.4 5 -1 5 C-0.67 3.35 -0.34 1.7 0 0 Z " fill="#D18953" transform="translate(79,39)"/>
<path d="M0 0 C0.33 0 0.66 0 1 0 C1.495 2.475 1.495 2.475 2 5 C25.265 5.495 25.265 5.495 49 6 C49.495 8.475 49.495 8.475 50 11 C33.5 11 17 11 0 11 C0 12.65 0 14.3 0 16 C-3.3 16.33 -6.6 16.66 -10 17 C-10.33 18.32 -10.66 19.64 -11 21 C-12.65 21 -14.3 21 -16 21 C-16 22.98 -16 24.96 -16 27 C-20.95 27.495 -20.95 27.495 -26 28 C-26.33 29.65 -26.66 31.3 -27 33 C-28.65 33 -30.3 33 -32 33 C-32 36.63 -32 40.26 -32 44 C-33.98 44 -35.96 44 -38 44 C-38 40.04 -38 36.08 -38 32 C-36.35 32 -34.7 32 -33 32 C-33 30.35 -33 28.7 -33 27 C-31.02 27 -29.04 27 -27 27 C-27 25.02 -27 23.04 -27 21 C-25.35 21 -23.7 21 -22 21 C-22 19.35 -22 17.7 -22 16 C-20.02 16 -18.04 16 -16 16 C-16 14.02 -16 12.04 -16 10 C-14.35 10 -12.7 10 -11 10 C-11 8.35 -11 6.7 -11 5 C-7.37 5 -3.74 5 0 5 C0 3.35 0 1.7 0 0 Z " fill="#8E7166" transform="translate(73,12)"/>
<path d="M0 0 C16.17 0 32.34 0 49 0 C49 1.65 49 3.3 49 5 C52.63 5 56.26 5 60 5 C60 6.98 60 8.96 60 11 C61.98 11 63.96 11 66 11 C66 12.65 66 14.3 66 16 C67.65 16 69.3 16 71 16 C71 17.65 71 19.3 71 21 C72.65 21 74.3 21 76 21 C76 22.98 76 24.96 76 27 C77.98 27 79.96 27 82 27 C82 28.65 82 30.3 82 32 C83.65 32 85.3 32 87 32 C87 35.96 87 39.92 87 44 C85.02 44 83.04 44 81 44 C79.39274365 40.78548731 79.94251815 37.56387464 80 34 C79.4225 33.855625 78.845 33.71125 78.25 33.5625 C76.16666667 33.04166667 74.08333333 32.52083333 72 32 C71.505 30.02 71.505 30.02 71 28 C69.35 27.67 67.7 27.34 66 27 C66 25.35 66 23.7 66 22 C65.34 22 64.68 22 64 22 C64 20.35 64 18.7 64 17 C62.35 16.67 60.7 16.34 59 16 C59 14.35 59 12.7 59 11 C55.7 11 52.4 11 49 11 C48.505 8.525 48.505 8.525 48 6 C47.41340103 6.00222061 46.82680206 6.00444122 46.22242737 6.00672913 C40.13974616 6.0287821 34.05707623 6.04390664 27.97436523 6.05493164 C25.70157409 6.05997325 23.4287862 6.06680637 21.15600586 6.07543945 C17.89696449 6.08751261 14.63796583 6.09322987 11.37890625 6.09765625 C10.35599991 6.10281754 9.33309357 6.10797882 8.27919006 6.11329651 C7.33829025 6.11337204 6.39739044 6.11344757 5.42797852 6.11352539 C4.59524918 6.115746 3.76251984 6.11796661 2.90455627 6.12025452 C1 6 1 6 0 5 C0 3.35 0 1.7 0 0 Z " fill="#764F41" transform="translate(74,12)"/>
<path d="M0 0 C3.63 0 7.26 0 11 0 C11 19.8 11 39.6 11 60 C9.02 59.67 7.04 59.34 5 59 C5 57.68 5 56.36 5 55 C3.35 55 1.7 55 0 55 C0 36.85 0 18.7 0 0 Z " fill="#617E94" transform="translate(112,144)"/>
<path d="M0 0 C16.5 0 33 0 50 0 C50 1.98 50 3.96 50 6 C33.83 6 17.66 6 1 6 C1 7.65 1 9.3 1 11 C-2.63 11 -6.26 11 -10 11 C-10 12.98 -10 14.96 -10 17 C-11.98 17 -13.96 17 -16 17 C-16 18.65 -16 20.3 -16 22 C-17.65 22 -19.3 22 -21 22 C-21 25.63 -21 29.26 -21 33 C-22.98 33 -24.96 33 -27 33 C-27.02712153 31.083412 -27.04645097 29.1667127 -27.0625 27.25 C-27.07410156 26.18265625 -27.08570313 25.1153125 -27.09765625 24.015625 C-27 21 -27 21 -26 17 C-22.7 16.67 -19.4 16.34 -16 16 C-16 14.02 -16 12.04 -16 10 C-14.35 10 -12.7 10 -11 10 C-10.67 8.35 -10.34 6.7 -10 5 C-6.7 5 -3.4 5 0 5 C0 3.35 0 1.7 0 0 Z " fill="#E3BA96" transform="translate(73,23)"/>
<path d="M0 0 C3.3 0 6.6 0 10 0 C10 16.17 10 32.34 10 49 C6.7 49 3.4 49 0 49 C0 32.83 0 16.66 0 0 Z " fill="#BD7155" transform="translate(30,56)"/>
<path d="M0 0 C2.475 0.495 2.475 0.495 5 1 C5 26.08 5 51.16 5 77 C6.65 77 8.3 77 10 77 C10 78.65 10 80.3 10 82 C6.7 82 3.4 82 0 82 C0 54.94 0 27.88 0 0 Z " fill="#3a5580" transform="translate(63,138)"/>
<path d="M0 0 C3.3 0 6.6 0 10 0 C10.33 1.65 10.66 3.3 11 5 C12.32 5.33 13.64 5.66 15 6 C15.33 9.63 15.66 13.26 16 17 C17.65 17 19.3 17 21 17 C21 18.65 21 20.3 21 22 C17.7 22 14.4 22 11 22 C11 23.65 11 25.3 11 27 C9.35 27 7.7 27 6 27 C5.67 25.35 5.34 23.7 5 22 C1.7 21.67 -1.6 21.34 -5 21 C-5.33 17.7 -5.66 14.4 -6 11 C-4.02 11 -2.04 11 0 11 C0 7.37 0 3.74 0 0 Z " fill="#E6B46A" transform="translate(123,23)"/>
<path d="M0 0 C1.98 0 3.96 0 6 0 C6 1.98 6 3.96 6 6 C4.35 6 2.7 6 1 6 C1.020625 6.804375 1.04125 7.60875 1.0625 8.4375 C1 11 1 11 0 12 C-1.68608966 12.07205511 -3.37500659 12.08386068 -5.0625 12.0625 C-5.98160156 12.05347656 -6.90070313 12.04445313 -7.84765625 12.03515625 C-8.55792969 12.02355469 -9.26820312 12.01195313 -10 12 C-10 13.65 -10 15.3 -10 17 C-22.87 17 -35.74 17 -49 17 C-49 15.02 -49 13.04 -49 11 C-36.46 11 -23.92 11 -11 11 C-11 9.02 -11 7.04 -11 5 C-7.37 5 -3.74 5 0 5 C0 3.35 0 1.7 0 0 Z " fill="#C8763C" transform="translate(128,105)"/>
<path d="M0 0 C1.32 0 2.64 0 4 0 C4 26.73 4 53.46 4 81 C1.03 81 -1.94 81 -5 81 C-5 79.68 -5 78.36 -5 77 C-3.02 76.505 -3.02 76.505 -1 76 C-0.505 38.38 -0.505 38.38 0 0 Z " fill="#3a5580" transform="translate(129,139)"/>
<path d="M0 0 C1.98 0 3.96 0 6 0 C6 1.65 6 3.3 6 5 C4.35 5 2.7 5 1 5 C1 6.65 1 8.3 1 10 C14.86 10 28.72 10 43 10 C43.495 12.475 43.495 12.475 44 15 C24.53 15 5.06 15 -15 15 C-15 13.68 -15 12.36 -15 11 C-11.7 11 -8.4 11 -5 11 C-5 9.02 -5 7.04 -5 5 C-3.35 5 -1.7 5 0 5 C0 3.35 0 1.7 0 0 Z " fill="#E5B268" transform="translate(84,122)"/>
<path d="M0 0 C1.98 0 3.96 0 6 0 C6 17.82 6 35.64 6 54 C4.02 54 2.04 54 0 54 C0 36.18 0 18.36 0 0 Z " fill="#9CB1C0" transform="translate(79,144)"/>
<path d="M0 0 C1.65 0 3.3 0 5 0 C5 15.84 5 31.68 5 48 C3.35 48 1.7 48 0 48 C0 35.79 0 23.58 0 11 C-1.65 11 -3.3 11 -5 11 C-5 12.65 -5 14.3 -5 16 C-6.65 16 -8.3 16 -10 16 C-10 14.02 -10 12.04 -10 10 C-8.68 10 -7.36 10 -6 10 C-6 8.35 -6 6.7 -6 5 C-4.02 5 -2.04 5 0 5 C0 3.35 0 1.7 0 0 Z " fill="#E5B369" transform="translate(150,56)"/>
<path d="M0 0 C1.65 0 3.3 0 5 0 C5 17.82 5 35.64 5 54 C6.65 54 8.3 54 10 54 C10 54.33 10 54.66 10 55 C8.02 55 6.04 55 4 55 C4 56.32 4 57.64 4 59 C2.68 59 1.36 59 0 59 C0 39.53 0 20.06 0 0 Z " fill="#627E95" transform="translate(74,144)"/>
<path d="M0 0 C2.10409639 -0.02701408 4.20829178 -0.04640223 6.3125 -0.0625 C7.48425781 -0.07410156 8.65601562 -0.08570313 9.86328125 -0.09765625 C13 0 13 0 16 1 C16 2.65 16 4.3 16 6 C17.65 6 19.3 6 21 6 C21.33 7.65 21.66 9.3 22 11 C24.475 11.495 24.475 11.495 27 12 C27 13.65 27 15.3 27 17 C25.35 17 23.7 17 22 17 C22 18.65 22 20.3 22 22 C21.67 22 21.34 22 21 22 C21 20.35 21 18.7 21 17 C19.35 17 17.7 17 16 17 C16 15.35 16 13.7 16 12 C14.02 12 12.04 12 10 12 C10 10.02 10 8.04 10 6 C8.68 6 7.36 6 6 6 C6 7.98 6 9.96 6 12 C4.02 12 2.04 12 0 12 C0 13.32 0 14.64 0 16 C-1.98 16 -3.96 16 -6 16 C-6 14.35 -6 12.7 -6 11 C-4.35 10.67 -2.7 10.34 -1 10 C-0.67 6.7 -0.34 3.4 0 0 Z " fill="#666B6F" transform="translate(90,187)"/>
<path d="M0 0 C1.65 0 3.3 0 5 0 C5 17.82 5 35.64 5 54 C3.35 54 1.7 54 0 54 C0 36.18 0 18.36 0 0 Z " fill="#A2B8C6" transform="translate(112,144)"/>
<path d="M0 0 C1.98 0 3.96 0 6 0 C6 1.98 6 3.96 6 6 C4.35 6.33 2.7 6.66 1 7 C1 8.65 1 10.3 1 12 C-0.98 12 -2.96 12 -5 12 C-5 13.65 -5 15.3 -5 17 C-6.65 17.33 -8.3 17.66 -10 18 C-10.33 19.65 -10.66 21.3 -11 23 C-12.65 23 -14.3 23 -16 23 C-16 24.65 -16 26.3 -16 28 C-17.65 28.33 -19.3 28.66 -21 29 C-21.495 31.475 -21.495 31.475 -22 34 C-23.65 34 -25.3 34 -27 34 C-27 35.65 -27 37.3 -27 39 C-28.98 39 -30.96 39 -33 39 C-33 37.02 -33 35.04 -33 33 C-31.02 33 -29.04 33 -27 33 C-27 31.35 -27 29.7 -27 28 C-25.35 28 -23.7 28 -22 28 C-22 26.02 -22 24.04 -22 22 C-20.35 22 -18.7 22 -17 22 C-17 20.35 -17 18.7 -17 17 C-15.02 17 -13.04 17 -11 17 C-11 15.02 -11 13.04 -11 11 C-9.35 10.67 -7.7 10.34 -6 10 C-5.67 8.68 -5.34 7.36 -5 6 C-3.35 6 -1.7 6 0 6 C0 4.02 0 2.04 0 0 Z " fill="#E1AB61" transform="translate(128,77)"/>
<path d="M0 0 C1.65 0 3.3 0 5 0 C5 16.17 5 32.34 5 49 C3.35 49 1.7 49 0 49 C0 32.83 0 16.66 0 0 Z " fill="#3a5580" transform="translate(30,56)"/>
<path d="M0 0 C1.65 0 3.3 0 5 0 C5 16.17 5 32.34 5 49 C3.35 49 1.7 49 0 49 C0 32.83 0 16.66 0 0 Z " fill="#C6743A" transform="translate(134,56)"/>
<path d="M0 0 C15.84 0 31.68 0 48 0 C48.495 2.475 48.495 2.475 49 5 C32.83 5 16.66 5 0 5 C0 3.35 0 1.7 0 0 Z " fill="#CC8064" transform="translate(74,18)"/>
<path d="M0 0 C1.65 0 3.3 0 5 0 C5 15.84 5 31.68 5 48 C3.35 48 1.7 48 0 48 C0 32.16 0 16.32 0 0 Z " fill="#3a5580" transform="translate(161,56)"/>
<path d="M0 0 C15.84 0 31.68 0 48 0 C48 1.65 48 3.3 48 5 C32.16 5 16.32 5 0 5 C0 3.35 0 1.7 0 0 Z " fill="#3a5580" transform="translate(74,12)"/>
<path d="M0 0 C19.47 0 38.94 0 59 0 C59 1.32 59 2.64 59 4 C39.53 4 20.06 4 0 4 C0 2.68 0 1.36 0 0 Z " fill="#B34C38" transform="translate(69,139)"/>
<path d="M0 0 C0.33 0 0.66 0 1 0 C1 15.84 1 31.68 1 48 C2.65 48 4.3 48 6 48 C6 46.68 6 45.36 6 44 C7.32 44 8.64 44 10 44 C10.33 45.98 10.66 47.96 11 50 C12.65 50 14.3 50 16 50 C16 51.65 16 53.3 16 55 C17.65 55 19.3 55 21 55 C21 56.65 21 58.3 21 60 C19.68 60 18.36 60 17 60 C17 61.98 17 63.96 17 66 C15.02 65.67 13.04 65.34 11 65 C11 63.35 11 61.7 11 60 C9.35 60 7.7 60 6 60 C6 56.37 6 52.74 6 49 C4.02 49 2.04 49 0 49 C0 32.83 0 16.66 0 0 Z " fill="#E5B46F" transform="translate(46,56)"/>
<path d="M0 0 C1.4540625 0.0309375 1.4540625 0.0309375 2.9375 0.0625 C2.9375 3.6925 2.9375 7.3225 2.9375 11.0625 C1.2875 11.0625 -0.3625 11.0625 -2.0625 11.0625 C-2.0625 13.0425 -2.0625 15.0225 -2.0625 17.0625 C-4.0425 17.0625 -6.0225 17.0625 -8.0625 17.0625 C-8.0625 18.7125 -8.0625 20.3625 -8.0625 22.0625 C-9.7125 22.0625 -11.3625 22.0625 -13.0625 22.0625 C-13.0625 23.7125 -13.0625 25.3625 -13.0625 27.0625 C-15.0425 27.0625 -17.0225 27.0625 -19.0625 27.0625 C-18.7325 23.7625 -18.4025 20.4625 -18.0625 17.0625 C-16.4125 17.0625 -14.7625 17.0625 -13.0625 17.0625 C-13.0625 15.0825 -13.0625 13.1025 -13.0625 11.0625 C-8.6075 10.5675 -8.6075 10.5675 -4.0625 10.0625 C-4.083125 8.598125 -4.10375 7.13375 -4.125 5.625 C-4.14642007 4.10417482 -4.13429964 2.58178038 -4.0625 1.0625 C-3.0625 0.0625 -3.0625 0.0625 0 0 Z " fill="#874739" transform="translate(158.0625,104.9375)"/>
<path d="M0 0 C1.65 0 3.3 0 5 0 C5 1.98 5 3.96 5 6 C3.35 6 1.7 6 0 6 C0 33.06 0 60.12 0 88 C-0.33 88 -0.66 88 -1 88 C-1 61.27 -1 34.54 -1 7 C-2.32 7 -3.64 7 -5 7 C-5 32.08 -5 57.16 -5 83 C-7.475 83.495 -7.475 83.495 -10 84 C-10.33 85.32 -10.66 86.64 -11 88 C-11 86.02 -11 84.04 -11 82 C-9.35 82 -7.7 82 -6 82 C-6 56.92 -6 31.84 -6 6 C-4.35 5.67 -2.7 5.34 -1 5 C-0.67 3.35 -0.34 1.7 0 0 Z " fill="#38393B" transform="translate(134,132)"/>
<path d="M0 0 C1.98 0 3.96 0 6 0 C6 1.65 6 3.3 6 5 C7.65 5 9.3 5 11 5 C11 3.35 11 1.7 11 0 C11.33 0 11.66 0 12 0 C12 1.65 12 3.3 12 5 C15.3 5 18.6 5 22 5 C22 5.33 22 5.66 22 6 C18.7 6 15.4 6 12 6 C12 7.32 12 8.64 12 10 C31.47 10 50.94 10 71 10 C71 8.68 71 7.36 71 6 C72.65 6 74.3 6 76 6 C76 7.32 76 8.64 76 10 C72.22126504 11.74374443 69.26101546 12.25230918 65.11157227 12.25878906 C63.36935143 12.26824554 63.36935143 12.26824554 61.5919342 12.27789307 C60.34600998 12.2738446 59.10008575 12.26979614 57.81640625 12.265625 C56.52814438 12.26753845 55.23988251 12.2694519 53.9125824 12.27142334 C51.18996364 12.27436577 48.46747646 12.27010616 45.74487305 12.26074219 C42.2670291 12.24935941 38.78949429 12.25590504 35.31166172 12.26788712 C31.97988561 12.27688245 28.64819112 12.27057002 25.31640625 12.265625 C24.07250626 12.26967346 22.82860626 12.27372192 21.54701233 12.27789307 C20.38237961 12.27158875 19.21774689 12.26528442 18.01782227 12.25878906 C16.9980983 12.25719788 15.97837433 12.25560669 14.92774963 12.25396729 C11.66685556 11.97110143 9.01856401 11.25837267 6 10 C5.125 7.875 5.125 7.875 5 6 C3.35 5.67 1.7 5.34 0 5 C0 3.35 0 1.7 0 0 Z " fill="#CD8152" transform="translate(57,127)"/>
<path d="M0 0 C1.65 0 3.3 0 5 0 C5 12.54 5 25.08 5 38 C3.35 37.67 1.7 37.34 0 37 C0 24.79 0 12.58 0 0 Z " fill="#CB7A59" transform="translate(57,56)"/>
<path d="M0 0 C19.47 0 38.94 0 59 0 C59 0.33 59 0.66 59 1 C41.18 1 23.36 1 5 1 C5 20.47 5 39.94 5 60 C6.32 60 7.64 60 9 60 C9 58.68 9 57.36 9 56 C10.98 56 12.96 56 15 56 C15 57.32 15 58.64 15 60 C16.98 60 18.96 60 21 60 C21 60.33 21 60.66 21 61 C19.35 61 17.7 61 16 61 C16 62.65 16 64.3 16 66 C15.67 66 15.34 66 15 66 C15 64.35 15 62.7 15 61 C11.37 61 7.74 61 4 61 C4 41.2 4 21.4 4 1 C2.68 0.67 1.36 0.34 0 0 Z " fill="#6C6A75" transform="translate(69,143)"/>
<path d="M0 0 C1.98 0 3.96 0 6 0 C6 1.98 6 3.96 6 6 C4.35 6 2.7 6 1 6 C1.020625 6.804375 1.04125 7.60875 1.0625 8.4375 C1 11 1 11 0 12 C-1.68608966 12.07205511 -3.37500659 12.08386068 -5.0625 12.0625 C-5.98160156 12.05347656 -6.90070313 12.04445313 -7.84765625 12.03515625 C-8.55792969 12.02355469 -9.26820312 12.01195313 -10 12 C-10 13.65 -10 15.3 -10 17 C-21.22 17 -32.44 17 -44 17 C-44 16.67 -44 16.34 -44 16 C-33.11 16 -22.22 16 -11 16 C-11 12.37 -11 8.74 -11 5 C-7.37 5 -3.74 5 0 5 C0 3.35 0 1.7 0 0 Z " fill="#CE8342" transform="translate(128,105)"/>
<path d="M0 0 C0.33 0 0.66 0 1 0 C1 23.43 1 46.86 1 71 C2.32 71 3.64 71 5 71 C5 69.02 5 67.04 5 65 C6.65 65 8.3 65 10 65 C10 63.68 10 62.36 10 61 C11.98 61 13.96 61 16 61 C16 62.65 16 64.3 16 66 C14.35 66 12.7 66 11 66 C11 67.98 11 69.96 11 72 C9.35 72 7.7 72 6 72 C6 73.65 6 75.3 6 77 C5.67 77 5.34 77 5 77 C5 75.35 5 73.7 5 72 C3.35 72 1.7 72 0 72 C0 48.24 0 24.48 0 0 Z " fill="#3C474F" transform="translate(68,143)"/>
<path d="M0 0 C1.98 0 3.96 0 6 0 C6 1.65 6 3.3 6 5 C4.35 5.33 2.7 5.66 1 6 C0.67 7.65 0.34 9.3 0 11 C-1.65 11 -3.3 11 -5 11 C-5 14.63 -5 18.26 -5 22 C-6.98 22 -8.96 22 -11 22 C-11 18.04 -11 14.08 -11 10 C-9.35 10 -7.7 10 -6 10 C-6 8.35 -6 6.7 -6 5 C-4.02 5 -2.04 5 0 5 C0 3.35 0 1.7 0 0 Z " fill="#53433D" transform="translate(46,34)"/>
<path d="M0 0 C3.63 0 7.26 0 11 0 C11 1.65 11 3.3 11 5 C12.65 5 14.3 5 16 5 C16 8.96 16 12.92 16 17 C14.02 17 12.04 17 10 17 C8.39274365 13.78548731 8.94251815 10.56387464 9 7 C8.4225 6.855625 7.845 6.71125 7.25 6.5625 C5.16666667 6.04166667 3.08333333 5.52083333 1 5 C0.67 3.35 0.34 1.7 0 0 Z " fill="#835147" transform="translate(145,39)"/>
<path d="M0 0 C1.98 0 3.96 0 6 0 C6 3.63 6 7.26 6 11 C7.65 11 9.3 11 11 11 C11 12.65 11 14.3 11 16 C11.804375 15.979375 12.60875 15.95875 13.4375 15.9375 C16 16 16 16 17 17 C17.04063832 18.66617115 17.042721 20.33388095 17 22 C15.02 22 13.04 22 11 22 C11 20.35 11 18.7 11 17 C9.02 17 7.04 17 5 17 C5 15.02 5 13.04 5 11 C3.35 11 1.7 11 0 11 C0 7.37 0 3.74 0 0 Z " fill="#EDD5C2" transform="translate(46,105)"/>
<path d="M0 0 C10.56 0 21.12 0 32 0 C32 1.32 32 2.64 32 4 C21.44 4 10.88 4 0 4 C0 2.68 0 1.36 0 0 Z " fill="#CA7859" transform="translate(80,40)"/>
<path d="M0 0 C1.98 0 3.96 0 6 0 C6 1.98 6 3.96 6 6 C4.35 6 2.7 6 1 6 C0.67 9.3 0.34 12.6 0 16 C-1.98 16 -3.96 16 -6 16 C-6 14.35 -6 12.7 -6 11 C-7.32 10.67 -8.64 10.34 -10 10 C-8.68 10 -7.36 10 -6 10 C-5.67 8.35 -5.34 6.7 -5 5 C-3.35 5 -1.7 5 0 5 C0 3.35 0 1.7 0 0 Z " fill="#D99B5B" transform="translate(139,116)"/>
<path d="M0 0 C3.3 0 6.6 0 10 0 C10.33 1.65 10.66 3.3 11 5 C12.32 5.33 13.64 5.66 15 6 C15 7.65 15 9.3 15 11 C13.35 11 11.7 11 10 11 C10 9.35 10 7.7 10 6 C6.7 6 3.4 6 0 6 C0 4.02 0 2.04 0 0 Z " fill="#D28A60" transform="translate(123,23)"/>
<path d="M0 0 C1.98 0 3.96 0 6 0 C6 5.28 6 10.56 6 16 C7.65 16 9.3 16 11 16 C11 16.33 11 16.66 11 17 C9.02 17 7.04 17 5 17 C5 15.02 5 13.04 5 11 C3.35 11 1.7 11 0 11 C0 7.37 0 3.74 0 0 Z " fill="#5E504B" transform="translate(35,105)"/>
<path d="M0 0 C3.3 0 6.6 0 10 0 C10.33 3.3 10.66 6.6 11 10 C9.35 10 7.7 10 6 10 C6 8.35 6 6.7 6 5 C4.02 5 2.04 5 0 5 C0 3.35 0 1.7 0 0 Z " fill="#2A323A" transform="translate(101,193)"/>
<path d="M0 0 C0.33 0 0.66 0 1 0 C1 1.65 1 3.3 1 5 C2.65 5 4.3 5 6 5 C6 6.65 6 8.3 6 10 C7.65 10 9.3 10 11 10 C11 11.98 11 13.96 11 16 C7.7 16 4.4 16 1 16 C1 14.35 1 12.7 1 11 C2.32 11 3.64 11 5 11 C5 9.35 5 7.7 5 6 C3.35 6 1.7 6 0 6 C0 4.02 0 2.04 0 0 Z " fill="#895B51" transform="translate(139,23)"/>
<path d="M0 0 C1.98 0 3.96 0 6 0 C6 3.63 6 7.26 6 11 C4.02 11 2.04 11 0 11 C0 7.37 0 3.74 0 0 Z " fill="#E0A861" transform="translate(144,105)"/>
<path d="M0 0 C1.98 0 3.96 0 6 0 C6 1.65 6 3.3 6 5 C4.35 5 2.7 5 1 5 C1 6.65 1 8.3 1 10 C-0.98 10 -2.96 10 -5 10 C-5 8.02 -5 6.04 -5 4 C-3.35 4 -1.7 4 0 4 C0 2.68 0 1.36 0 0 Z " fill="#1F252A" transform="translate(78,204)"/>
<path d="M0 0 C1.98 0 3.96 0 6 0 C6 1.65 6 3.3 6 5 C4.35 5 2.7 5 1 5 C1 6.65 1 8.3 1 10 C-0.98 10 -2.96 10 -5 10 C-5 8.35 -5 6.7 -5 5 C-3.35 4.67 -1.7 4.34 0 4 C0 2.68 0 1.36 0 0 Z " fill="#212529" transform="translate(89,193)"/>
<path d="M0 0 C1.65 0 3.3 0 5 0 C5 1.32 5 2.64 5 4 C6.98 4 8.96 4 11 4 C11 7.96 11 11.92 11 16 C10.67 16 10.34 16 10 16 C10 12.37 10 8.74 10 5 C8.35 5 6.7 5 5 5 C5.09539062 6.26457031 5.19078125 7.52914062 5.2890625 8.83203125 C5.40161285 10.49214887 5.51356068 12.15230742 5.625 13.8125 C5.68945312 14.64587891 5.75390625 15.47925781 5.8203125 16.33789062 C5.871875 17.14033203 5.9234375 17.94277344 5.9765625 18.76953125 C6.02893066 19.50792236 6.08129883 20.24631348 6.13525391 21.00708008 C6 23 6 23 4 26 C4 19.07 4 12.14 4 5 C2.68 5 1.36 5 0 5 C0 3.35 0 1.7 0 0 Z " fill="#D18A46" transform="translate(129,51)"/>
<path d="M0 0 C1.65 0 3.3 0 5 0 C5 1.98 5 3.96 5 6 C6.65 6 8.3 6 10 6 C10 7.65 10 9.3 10 11 C8.02 11 6.04 11 4 11 C4 9.35 4 7.7 4 6 C2.68 6 1.36 6 0 6 C0 4.02 0 2.04 0 0 Z " fill="#3a5580" transform="translate(134,23)"/>
<path d="M0 0 C0 1.98 0 3.96 0 6 C-3.3 6 -6.6 6 -10 6 C-10 4.35 -10 2.7 -10 1 C-6.61981469 -0.04005702 -3.5219721 -0.08004482 0 0 Z " fill="#CC8042" transform="translate(79,110)"/>
<path d="M0 0 C2.475 0.495 2.475 0.495 5 1 C5 4.63 5 8.26 5 12 C3.35 12 1.7 12 0 12 C0 8.04 0 4.08 0 0 Z " fill="#CC8144" transform="translate(57,93)"/>
<path d="M0 0 C1.65 0 3.3 0 5 0 C5 3.63 5 7.26 5 11 C3.35 11 1.7 11 0 11 C0 7.37 0 3.74 0 0 Z " fill="#3a5580" transform="translate(156,105)"/>
<path d="M0 0 C1.65 0 3.3 0 5 0 C5 3.63 5 7.26 5 11 C3.35 11 1.7 11 0 11 C0 7.37 0 3.74 0 0 Z " fill="#C67C61" transform="translate(41,105)"/>
<path d="M0 0 C1.65 0 3.3 0 5 0 C5 3.63 5 7.26 5 11 C3.35 11 1.7 11 0 11 C0 7.37 0 3.74 0 0 Z " fill="#3a5580" transform="translate(156,45)"/>
<path d="M0 0 C1.65 0 3.3 0 5 0 C5 3.63 5 7.26 5 11 C3.35 11 1.7 11 0 11 C0 7.37 0 3.74 0 0 Z " fill="#C77D62" transform="translate(41,45)"/>
<path d="M0 0 C3.63 0 7.26 0 11 0 C11 1.65 11 3.3 11 5 C7.37 5 3.74 5 0 5 C0 3.35 0 1.7 0 0 Z " fill="#CB7B58" transform="translate(68,45)"/>
<path d="M0 0 C1.98 0 3.96 0 6 0 C6 1.65 6 3.3 6 5 C7.65 5 9.3 5 11 5 C11 3.35 11 1.7 11 0 C11.33 0 11.66 0 12 0 C12 1.65 12 3.3 12 5 C15.3 5 18.6 5 22 5 C22 5.33 22 5.66 22 6 C19.27076612 6.0270817 16.54180363 6.04687847 13.8125 6.0625 C13.04357422 6.07087891 12.27464844 6.07925781 11.48242188 6.08789062 C7.51473211 6.10491934 3.87428766 5.98604115 0 5 C0 3.35 0 1.7 0 0 Z " fill="#D9A476" transform="translate(57,127)"/>
<path d="M0 0 C3.3 0 6.6 0 10 0 C10 1.65 10 3.3 10 5 C6.7 5 3.4 5 0 5 C0 3.35 0 1.7 0 0 Z " fill="#C67339" transform="translate(118,111)"/>
<path d="M0 0 C1.65 0 3.3 0 5 0 C5 3.3 5 6.6 5 10 C3.35 10 1.7 10 0 10 C0 6.7 0 3.4 0 0 Z " fill="#E4B168" transform="translate(145,46)"/>
<path d="M0 0 C3.3 0 6.6 0 10 0 C10 1.65 10 3.3 10 5 C6.7 5 3.4 5 0 5 C0 3.35 0 1.7 0 0 Z " fill="#C77B5E" transform="translate(63,23)"/>
<path d="M0 0 C3.3 0 6.6 0 10 0 C10 1.65 10 3.3 10 5 C6.7 5 3.4 5 0 5 C0 3.35 0 1.7 0 0 Z " fill="#3a5580" transform="translate(63,18)"/>
<path d="M0 0 C3.3 0 6.6 0 10 0 C10 1.65 10 3.3 10 5 C6.7 5 3.4 5 0 5 C0 3.35 0 1.7 0 0 Z " fill="#3a5580" transform="translate(123,18)"/>
<path d="M0 0 C0.33 0 0.66 0 1 0 C1 5.28 1 10.56 1 16 C2.65 16 4.3 16 6 16 C6 17.65 6 19.3 6 21 C4.35 21 2.7 21 1 21 C0.67 20.01 0.34 19.02 0 18 C-1.65 17.67 -3.3 17.34 -5 17 C-5 16.67 -5 16.34 -5 16 C-3.35 16 -1.7 16 0 16 C0 10.72 0 5.44 0 0 Z " fill="#D38E4F" transform="translate(62,89)"/>
<path d="M0 0 C1.65 0 3.3 0 5 0 C5.33 1.65 5.66 3.3 6 5 C6.804375 4.979375 7.60875 4.95875 8.4375 4.9375 C11 5 11 5 12 6 C12.04063832 7.66617115 12.042721 9.33388095 12 11 C11.77570313 10.35546875 11.55140625 9.7109375 11.3203125 9.046875 C10.17110544 6.75611148 10.17110544 6.75611148 7.6171875 6.390625 C6.25980469 6.32101563 6.25980469 6.32101563 4.875 6.25 C3.96492188 6.19328125 3.05484375 6.1365625 2.1171875 6.078125 C1.41851562 6.05234375 0.71984375 6.0265625 0 6 C0 4.02 0 2.04 0 0 Z " fill="#43251F" transform="translate(57,132)"/>
<path d="M0 0 C1.98 0 3.96 0 6 0 C6 0.33 6 0.66 6 1 C4.35 1 2.7 1 1 1 C1 2.32 1 3.64 1 5 C2.65 5 4.3 5 6 5 C6 5.33 6 5.66 6 6 C4.35 6 2.7 6 1 6 C1 7.65 1 9.3 1 11 C-0.65 11 -2.3 11 -4 11 C-4 9.02 -4 7.04 -4 5 C-2.68 5 -1.36 5 0 5 C0 3.35 0 1.7 0 0 Z " fill="#DFA75C" transform="translate(144,61)"/>
<path d="M0 0 C1.32 0.33 2.64 0.66 4 1 C4.33 4.3 4.66 7.6 5 11 C3.35 11 1.7 11 0 11 C0 7.37 0 3.74 0 0 Z " fill="#BA5A3E" transform="translate(150,45)"/>
<path d="M0 0 C1.65 0 3.3 0 5 0 C4.67 3.3 4.34 6.6 4 10 C2.68 10.33 1.36 10.66 0 11 C0 7.37 0 3.74 0 0 Z " fill="#BA593E" transform="translate(150,105)"/>
<path d="M0 0 C3.3 0 6.6 0 10 0 C10 1.32 10 2.64 10 4 C6.7 4 3.4 4 0 4 C0 2.68 0 1.36 0 0 Z " fill="#C67139" transform="translate(80,117)"/>
<path d="M0 0 C1.65 0 3.3 0 5 0 C5 1.98 5 3.96 5 6 C1.7 6 -1.6 6 -5 6 C-3.68 5.67 -2.36 5.34 -1 5 C-0.67 3.35 -0.34 1.7 0 0 Z " fill="#3a5580" transform="translate(134,132)"/>
<path d="M0 0 C3.3 0 6.6 0 10 0 C10 1.32 10 2.64 10 4 C7.03 4 4.06 4 1 4 C0.67 2.68 0.34 1.36 0 0 Z " fill="#C47558" transform="translate(123,23)"/>
<path d="M0 0 C1.65 0 3.3 0 5 0 C5 1.32 5 2.64 5 4 C6.98 4 8.96 4 11 4 C11 4.33 11 4.66 11 5 C9.35 5 7.7 5 6 5 C6 6.65 6 8.3 6 10 C5.67 10 5.34 10 5 10 C5 8.35 5 6.7 5 5 C3.35 5 1.7 5 0 5 C0 3.35 0 1.7 0 0 Z " fill="#525E68" transform="translate(79,199)"/>
<path d="M0 0 C1.32 0 2.64 0 4 0 C4 2.97 4 5.94 4 9 C2.68 9 1.36 9 0 9 C0 6.03 0 3.06 0 0 Z " fill="#3a5580" transform="translate(36,106)"/>
<path d="M0 0 C2.97 0 5.94 0 9 0 C9 1.32 9 2.64 9 4 C6.03 4 3.06 4 0 4 C0 2.68 0 1.36 0 0 Z " fill="#CB7F42" transform="translate(118,46)"/>
<path d="M0 0 C1.32 0 2.64 0 4 0 C4 2.97 4 5.94 4 9 C2.68 9 1.36 9 0 9 C0 6.03 0 3.06 0 0 Z " fill="#3a5580" transform="translate(36,46)"/>
<path d="M0 0 C1.65 0 3.3 0 5 0 C5 1.65 5 3.3 5 5 C3.35 5 1.7 5 0 5 C0 6.65 0 8.3 0 10 C-0.33 10 -0.66 10 -1 10 C-1 8.35 -1 6.7 -1 5 C-2.32 4.67 -3.64 4.34 -5 4 C-3.35 4 -1.7 4 0 4 C0 2.68 0 1.36 0 0 Z " fill="#4F5B64" transform="translate(112,199)"/>
<path d="M0 0 C1.98 0 3.96 0 6 0 C6 1.65 6 3.3 6 5 C4.02 5 2.04 5 0 5 C0 3.35 0 1.7 0 0 Z " fill="#3a5580" transform="translate(95,187)"/>
<path d="M0 0 C1.98 0 3.96 0 6 0 C6 1.65 6 3.3 6 5 C4.02 5 2.04 5 0 5 C0 3.35 0 1.7 0 0 Z " fill="#4B5E6E" transform="translate(95,182)"/>
<path d="M0 0 C0.33 0 0.66 0 1 0 C1 1.65 1 3.3 1 5 C0.67 5 0.34 5 0 5 C0 3.35 0 1.7 0 0 Z M-5 5 C-3.35 5 -1.7 5 0 5 C-1.32 5.33 -2.64 5.66 -4 6 C-4 7.65 -4 9.3 -4 11 C-2.68 11.33 -1.36 11.66 0 12 C-1.32 12 -2.64 12 -4 12 C-4.33 13.32 -4.66 14.64 -5 16 C-5 14.68 -5 13.36 -5 12 C-6.65 12 -8.3 12 -10 12 C-10 11.67 -10 11.34 -10 11 C-8.35 11 -6.7 11 -5 11 C-5 9.02 -5 7.04 -5 5 Z " fill="#DEA55A" transform="translate(111,94)"/>
<path d="M0 0 C1.2065625 0.0309375 1.2065625 0.0309375 2.4375 0.0625 C2.4375 1.7125 2.4375 3.3625 2.4375 5.0625 C0.7875 5.0625 -0.8625 5.0625 -2.5625 5.0625 C-3.125 3.125 -3.125 3.125 -3.5625 1.0625 C-2.5625 0.0625 -2.5625 0.0625 0 0 Z " fill="#C7743A" transform="translate(76.5625,110.9375)"/>
<path d="M0 0 C0.99 0 1.98 0 3 0 C3 2.97 3 5.94 3 9 C2.01 9 1.02 9 0 9 C0 6.03 0 3.06 0 0 Z " fill="#E6B56B" transform="translate(146,106)"/>
<path d="M0 0 C1.65 0 3.3 0 5 0 C5 1.65 5 3.3 5 5 C3.35 5 1.7 5 0 5 C0 3.35 0 1.7 0 0 Z " fill="#3a5580" transform="translate(118,209)"/>
<path d="M0 0 C1.65 0 3.3 0 5 0 C5 1.65 5 3.3 5 5 C3.35 5 1.7 5 0 5 C0 3.35 0 1.7 0 0 Z " fill="#3a5580" transform="translate(79,204)"/>
<path d="M0 0 C1.65 0 3.3 0 5 0 C5 1.65 5 3.3 5 5 C3.35 5 1.7 5 0 5 C0 3.35 0 1.7 0 0 Z " fill="#3a5580" transform="translate(107,198)"/>
<path d="M0 0 C1.65 0 3.3 0 5 0 C5 1.65 5 3.3 5 5 C3.35 5 1.7 5 0 5 C0 3.35 0 1.7 0 0 Z " fill="#E3AF66" transform="translate(128,127)"/>
<path d="M0 0 C1.65 0 3.3 0 5 0 C5 1.65 5 3.3 5 5 C3.35 5 1.7 5 0 5 C0 3.35 0 1.7 0 0 Z " fill="#3a5580" transform="translate(52,127)"/>
<path d="M0 0 C1.65 0 3.3 0 5 0 C5 1.65 5 3.3 5 5 C3.35 5 1.7 5 0 5 C0 3.35 0 1.7 0 0 Z " fill="#3a5580" transform="translate(139,127)"/>
<path d="M0 0 C1.65 0 3.3 0 5 0 C5 1.65 5 3.3 5 5 C3.35 5 1.7 5 0 5 C0 3.35 0 1.7 0 0 Z " fill="#AF4F39" transform="translate(134,127)"/>
<path d="M0 0 C1.65 0 3.3 0 5 0 C5 1.65 5 3.3 5 5 C3.35 5 1.7 5 0 5 C0 3.35 0 1.7 0 0 Z " fill="#AE5240" transform="translate(57,127)"/>
<path d="M0 0 C1.65 0 3.3 0 5 0 C5 1.65 5 3.3 5 5 C3.35 5 1.7 5 0 5 C0 3.35 0 1.7 0 0 Z " fill="#3a5580" transform="translate(150,116)"/>
<path d="M0 0 C1.65 0 3.3 0 5 0 C5 1.65 5 3.3 5 5 C3.35 5 1.7 5 0 5 C0 3.35 0 1.7 0 0 Z " fill="#3a5580" transform="translate(41,116)"/>
<path d="M0 0 C1.65 0 3.3 0 5 0 C5 1.65 5 3.3 5 5 C3.35 5 1.7 5 0 5 C0 3.35 0 1.7 0 0 Z " fill="#E4B067" transform="translate(139,116)"/>
<path d="M0 0 C1.65 0 3.3 0 5 0 C5 1.65 5 3.3 5 5 C3.35 5 1.7 5 0 5 C0 3.35 0 1.7 0 0 Z " fill="#E5B267" transform="translate(118,89)"/>
<path d="M0 0 C1.65 0 3.3 0 5 0 C5 1.65 5 3.3 5 5 C3.35 5 1.7 5 0 5 C0 3.35 0 1.7 0 0 Z " fill="#E5B268" transform="translate(123,83)"/>
<path d="M0 0 C1.65 0 3.3 0 5 0 C5 1.65 5 3.3 5 5 C3.35 5 1.7 5 0 5 C0 3.35 0 1.7 0 0 Z " fill="#3a5580" transform="translate(41,40)"/>
<path d="M0 0 C1.65 0 3.3 0 5 0 C5 1.65 5 3.3 5 5 C3.35 5 1.7 5 0 5 C0 3.35 0 1.7 0 0 Z " fill="#3a5580" transform="translate(150,40)"/>
<path d="M0 0 C1.65 0 3.3 0 5 0 C5 1.65 5 3.3 5 5 C3.35 5 1.7 5 0 5 C0 3.35 0 1.7 0 0 Z " fill="#C47B5F" transform="translate(52,34)"/>
<path d="M0 0 C1.65 0 3.3 0 5 0 C5 1.65 5 3.3 5 5 C3.35 5 1.7 5 0 5 C0 3.35 0 1.7 0 0 Z " fill="#3a5580" transform="translate(52,29)"/>
<path d="M0 0 C1.65 0 3.3 0 5 0 C5 1.65 5 3.3 5 5 C3.35 5 1.7 5 0 5 C0 3.35 0 1.7 0 0 Z " fill="#3a5580" transform="translate(134,23)"/>
<path d="M0 0 C1.65 0 3.3 0 5 0 C5 1.65 5 3.3 5 5 C3.35 5 1.7 5 0 5 C0 3.35 0 1.7 0 0 Z " fill="#3a5580" transform="translate(57,23)"/>
<path d="M0 0 C2.64 0 5.28 0 8 0 C8 0.99 8 1.98 8 3 C5.36 3 2.72 3 0 3 C0 2.01 0 1.02 0 0 Z " fill="#3a5580" transform="translate(124,19)"/>
<path d="M0 0 C1.65 0 3.3 0 5 0 C4.67 1.32 4.34 2.64 4 4 C2.68 4.33 1.36 4.66 0 5 C0 3.35 0 1.7 0 0 Z " fill="#CC8042" transform="translate(129,51)"/>
<path d="M0 0 C1.65 0 3.3 0 5 0 C4.67 1.65 4.34 3.3 4 5 C2.68 5 1.36 5 0 5 C0 3.35 0 1.7 0 0 Z " fill="#4A5D6D" transform="translate(90,187)"/>
<path d="M0 0 C1.65 0 3.3 0 5 0 C5 1.32 5 2.64 5 4 C3.35 4.33 1.7 4.66 0 5 C0 3.35 0 1.7 0 0 Z " fill="#B6553C" transform="translate(128,133)"/>
<path d="M0 0 C1.65 0 3.3 0 5 0 C5 1.65 5 3.3 5 5 C3.35 4.67 1.7 4.34 0 4 C0 2.68 0 1.36 0 0 Z " fill="#B35442" transform="translate(52,122)"/>
<path d="M0 0 C1.65 0 3.3 0 5 0 C5 1.65 5 3.3 5 5 C3.68 5 2.36 5 1 5 C0.67 3.35 0.34 1.7 0 0 Z " fill="#B45543" transform="translate(46,116)"/>
<path d="M0 0 C1.65 0 3.3 0 5 0 C5 1.65 5 3.3 5 5 C3.68 5 2.36 5 1 5 C0.67 3.35 0.34 1.7 0 0 Z " fill="#A04432" transform="translate(145,39)"/>
<path d="M0 0 C1.65 0 3.3 0 5 0 C5 1.32 5 2.64 5 4 C3.35 4 1.7 4 0 4 C0 2.68 0 1.36 0 0 Z " fill="#3a5580" transform="translate(84,199)"/>
<path d="M0 0 C1.65 0 3.3 0 5 0 C5 1.32 5 2.64 5 4 C3.35 4 1.7 4 0 4 C0 2.68 0 1.36 0 0 Z " fill="#B7533D" transform="translate(63,133)"/>
<path d="M0 0 C1.65 0 3.3 0 5 0 C5 1.32 5 2.64 5 4 C3.35 4 1.7 4 0 4 C0 2.68 0 1.36 0 0 Z " fill="#3a5580" transform="translate(145,122)"/>
<path d="M0 0 C1.65 0 3.3 0 5 0 C5 1.32 5 2.64 5 4 C3.35 4 1.7 4 0 4 C0 2.68 0 1.36 0 0 Z " fill="#E5B369" transform="translate(101,106)"/>
<path d="M0 0 C1.32 0 2.64 0 4 0 C4 1.65 4 3.3 4 5 C2.68 5 1.36 5 0 5 C0 3.35 0 1.7 0 0 Z " fill="#E5B369" transform="translate(129,78)"/>
<path d="M0 0 C1.32 0 2.64 0 4 0 C4 1.65 4 3.3 4 5 C2.68 5 1.36 5 0 5 C0 3.35 0 1.7 0 0 Z " fill="#E5B369" transform="translate(140,67)"/>
<path d="M0 0 C1.65 0 3.3 0 5 0 C5 1.32 5 2.64 5 4 C3.35 4 1.7 4 0 4 C0 2.68 0 1.36 0 0 Z " fill="#CA7E41" transform="translate(112,40)"/>
<path d="M0 0 C1.65 0 3.3 0 5 0 C5 1.32 5 2.64 5 4 C3.35 4 1.7 4 0 4 C0 2.68 0 1.36 0 0 Z " fill="#3a5580" transform="translate(145,35)"/>
<path d="M0 0 C2.475 0.495 2.475 0.495 5 1 C5 2.32 5 3.64 5 5 C3.68 5 2.36 5 1 5 C0.67 3.35 0.34 1.7 0 0 Z " fill="#495B6A" transform="translate(101,187)"/>
<path d="M0 0 C1.65 0 3.3 0 5 0 C4.67 1.32 4.34 2.64 4 4 C2.68 4.33 1.36 4.66 0 5 C0 3.35 0 1.7 0 0 Z " fill="#B8573D" transform="translate(145,116)"/>
</g></svg>
