<svg width="224" height="256" viewBox="0 0 224 256" fill="none" xmlns="http://www.w3.org/2000/svg"><g transform="translate(8,2)">
<path d="M77.1667 11C96.4167 11 115.667 11 135.5 11C135.5 12.8526 135.5 14.7053 135.5 16.614C139.735 16.614 143.97 16.614 148.333 16.614C148.333 18.8372 148.333 21.0604 148.333 23.3509C150.643 23.3509 152.953 23.3509 155.333 23.3509C155.333 25.2035 155.333 27.0561 155.333 28.9649C157.258 28.9649 159.183 28.9649 161.167 28.9649C161.167 30.8175 161.167 32.6702 161.167 34.5789C163.092 34.5789 165.017 34.5789 167 34.5789C167 36.8021 167 39.0253 167 41.3158C169.31 41.3158 171.62 41.3158 174 41.3158C174 43.1684 174 45.0211 174 46.9298C175.925 46.9298 177.85 46.9298 179.833 46.9298C179.833 51.3761 179.833 55.8225 179.833 60.4035C182.143 60.4035 184.453 60.4035 186.833 60.4035C186.833 78.5593 186.833 96.7151 186.833 115.421C184.523 115.421 182.213 115.421 179.833 115.421C179.833 119.497 179.833 123.573 179.833 127.772C177.908 127.772 175.983 127.772 174 127.772C174 129.995 174 132.218 174 134.509C171.69 134.509 169.38 134.509 167 134.509C167 136.361 167 138.214 167 140.123C165.075 140.123 163.15 140.123 161.167 140.123C161.167 141.975 161.167 143.828 161.167 145.737C158.857 145.737 156.547 145.737 154.167 145.737C154.167 147.96 154.167 150.183 154.167 152.474C152.242 152.474 150.317 152.474 148.333 152.474C148.333 182.857 148.333 213.24 148.333 244.544C144.098 244.544 139.863 244.544 135.5 244.544C135.5 242.691 135.5 240.839 135.5 238.93C133.19 238.93 130.88 238.93 128.5 238.93C128.5 237.077 128.5 235.225 128.5 233.316C127.092 233.351 127.092 233.351 125.656 233.386C122.667 233.316 122.667 233.316 121.5 232.193C121.453 230.322 121.45 228.45 121.5 226.579C119.575 226.579 117.65 226.579 115.667 226.579C115.667 224.726 115.667 222.874 115.667 220.965C113.357 220.965 111.047 220.965 108.667 220.965C108.667 218.742 108.667 216.519 108.667 214.228C107.127 214.228 105.587 214.228 104 214.228C104 216.451 104 218.674 104 220.965C101.69 220.965 99.38 220.965 97 220.965C97 222.818 97 224.67 97 226.579C95.075 226.579 93.15 226.579 91.1667 226.579C91.1667 228.432 91.1667 230.284 91.1667 232.193C88.8567 232.193 86.5467 232.193 84.1667 232.193C84.1667 234.416 84.1667 236.639 84.1667 238.93C82.2417 238.93 80.3167 238.93 78.3333 238.93C78.3333 240.782 78.3333 242.635 78.3333 244.544C73.7133 244.544 69.0933 244.544 64.3333 244.544C64.3333 214.161 64.3333 183.778 64.3333 152.474C62.4083 152.474 60.4833 152.474 58.5 152.474C58.5 150.621 58.5 148.768 58.5 146.86C56.19 146.86 53.88 146.86 51.5 146.86C51.5 144.636 51.5 142.413 51.5 140.123C49.575 140.123 47.65 140.123 45.6667 140.123C45.6667 138.27 45.6667 136.418 45.6667 134.509C43.3567 134.509 41.0467 134.509 38.6667 134.509C38.6667 132.286 38.6667 130.062 38.6667 127.772C36.7417 127.772 34.8167 127.772 32.8333 127.772C32.8333 123.696 32.8333 119.62 32.8333 115.421C30.9083 115.421 28.9833 115.421 27 115.421C27 97.2653 27 79.1095 27 60.4035C28.925 60.4035 30.85 60.4035 32.8333 60.4035C32.8333 55.9572 32.8333 51.5109 32.8333 46.9298C34.7583 46.9298 36.6833 46.9298 38.6667 46.9298C38.6667 45.0772 38.6667 43.2246 38.6667 41.3158C40.9767 41.3158 43.2867 41.3158 45.6667 41.3158C45.6667 39.0926 45.6667 36.8695 45.6667 34.5789C47.5917 34.5789 49.5167 34.5789 51.5 34.5789C51.5 32.7263 51.5 30.8737 51.5 28.9649C53.81 28.9649 56.12 28.9649 58.5 28.9649C58.5 26.7418 58.5 24.5186 58.5 22.2281C60.425 22.2281 62.35 22.2281 64.3333 22.2281C64.3333 20.3754 64.3333 18.5228 64.3333 16.614C68.5683 16.614 72.8033 16.614 77.1667 16.614C77.1667 14.7614 77.1667 12.9088 77.1667 11Z" fill="#89929D"/>
<path d="M77.1667 11C96.4167 11 115.667 11 135.5 11C135.5 12.8526 135.5 14.7053 135.5 16.614C139.735 16.614 143.97 16.614 148.333 16.614C148.333 18.8372 148.333 21.0604 148.333 23.3509C150.643 23.3509 152.953 23.3509 155.333 23.3509C155.333 25.2035 155.333 27.0561 155.333 28.9649C157.258 28.9649 159.183 28.9649 161.167 28.9649C161.167 30.8175 161.167 32.6702 161.167 34.5789C163.092 34.5789 165.017 34.5789 167 34.5789C167 36.8021 167 39.0253 167 41.3158C169.31 41.3158 171.62 41.3158 174 41.3158C174 43.1684 174 45.0211 174 46.9298C175.925 46.9298 177.85 46.9298 179.833 46.9298C179.833 51.3761 179.833 55.8225 179.833 60.4035C182.143 60.4035 184.453 60.4035 186.833 60.4035C186.833 78.5593 186.833 96.7151 186.833 115.421C184.523 115.421 182.213 115.421 179.833 115.421C179.833 119.497 179.833 123.573 179.833 127.772C177.908 127.772 175.983 127.772 174 127.772C174 129.995 174 132.218 174 134.509C171.69 134.509 169.38 134.509 167 134.509C167 136.361 167 138.214 167 140.123C165.075 140.123 163.15 140.123 161.167 140.123C161.167 141.975 161.167 143.828 161.167 145.737C158.857 145.737 156.547 145.737 154.167 145.737C154.167 147.96 154.167 150.183 154.167 152.474C152.242 152.474 150.317 152.474 148.333 152.474C148.333 182.857 148.333 213.24 148.333 244.544C144.098 244.544 139.863 244.544 135.5 244.544C135.5 242.691 135.5 240.839 135.5 238.93C133.19 238.93 130.88 238.93 128.5 238.93C128.5 237.077 128.5 235.225 128.5 233.316C127.092 233.351 127.092 233.351 125.656 233.386C122.667 233.316 122.667 233.316 121.5 232.193C121.453 230.322 121.45 228.45 121.5 226.579C119.575 226.579 117.65 226.579 115.667 226.579C115.667 224.726 115.667 222.874 115.667 220.965C113.357 220.965 111.047 220.965 108.667 220.965C108.667 218.742 108.667 216.519 108.667 214.228C107.127 214.228 105.587 214.228 104 214.228C104 216.451 104 218.674 104 220.965C101.69 220.965 99.38 220.965 97 220.965C97 222.818 97 224.67 97 226.579C95.075 226.579 93.15 226.579 91.1667 226.579C91.1667 228.432 91.1667 230.284 91.1667 232.193C88.8567 232.193 86.5467 232.193 84.1667 232.193C84.1667 234.416 84.1667 236.639 84.1667 238.93C82.2417 238.93 80.3167 238.93 78.3333 238.93C78.3333 240.782 78.3333 242.635 78.3333 244.544C73.7133 244.544 69.0933 244.544 64.3333 244.544C64.3333 214.161 64.3333 183.778 64.3333 152.474C62.4083 152.474 60.4833 152.474 58.5 152.474C58.5 150.621 58.5 148.768 58.5 146.86C56.19 146.86 53.88 146.86 51.5 146.86C51.5 144.636 51.5 142.413 51.5 140.123C49.575 140.123 47.65 140.123 45.6667 140.123C45.6667 138.27 45.6667 136.418 45.6667 134.509C43.3567 134.509 41.0467 134.509 38.6667 134.509C38.6667 132.286 38.6667 130.062 38.6667 127.772C36.7417 127.772 34.8167 127.772 32.8333 127.772C32.8333 123.696 32.8333 119.62 32.8333 115.421C30.9083 115.421 28.9833 115.421 27 115.421C27 97.2653 27 79.1095 27 60.4035C28.925 60.4035 30.85 60.4035 32.8333 60.4035C32.8333 55.9572 32.8333 51.5109 32.8333 46.9298C34.7583 46.9298 36.6833 46.9298 38.6667 46.9298C38.6667 45.0772 38.6667 43.2246 38.6667 41.3158C40.9767 41.3158 43.2867 41.3158 45.6667 41.3158C45.6667 39.0926 45.6667 36.8695 45.6667 34.5789C47.5917 34.5789 49.5167 34.5789 51.5 34.5789C51.5 32.7263 51.5 30.8737 51.5 28.9649C53.81 28.9649 56.12 28.9649 58.5 28.9649C58.5 26.7418 58.5 24.5186 58.5 22.2281C60.425 22.2281 62.35 22.2281 64.3333 22.2281C64.3333 20.3754 64.3333 18.5228 64.3333 16.614C68.5683 16.614 72.8033 16.614 77.1667 16.614C77.1667 14.7614 77.1667 12.9088 77.1667 11ZM77.1667 23.3509C77.1667 25.2035 77.1667 27.0561 77.1667 28.9649C73.3167 28.9649 69.4667 28.9649 65.5 28.9649C65.115 30.8175 64.73 32.6702 64.3333 34.5789C62.4083 34.5789 60.4833 34.5789 58.5 34.5789C58.5 36.8021 58.5 39.0253 58.5 41.3158C52.725 41.8716 52.725 41.8716 46.8333 42.4386C46.4483 43.9207 46.0633 45.4028 45.6667 46.9298C43.7417 47.3004 41.8167 47.6709 39.8333 48.0526C38.9005 56.462 38.4936 64.7561 38.5117 73.2105C38.5106 74.3849 38.5095 75.5593 38.5083 76.7693C38.5076 79.2338 38.5097 81.6983 38.5146 84.1628C38.5208 87.9025 38.5146 91.6419 38.5072 95.3816C38.5079 97.7924 38.5094 100.203 38.5117 102.614C38.5094 103.715 38.507 104.816 38.5046 105.95C38.53 113.288 39.0542 120.472 39.8333 127.772C43.6833 127.772 47.5333 127.772 51.5 127.772C51.5 129.995 51.5 132.218 51.5 134.509C53.81 134.509 56.12 134.509 58.5 134.509C58.5 138.214 58.5 141.919 58.5 145.737C60.425 146.107 62.35 146.478 64.3333 146.86C64.3815 147.554 64.4296 148.249 64.4792 148.965C65.3024 151.688 65.3024 151.688 68.625 152.605C72.4481 153.583 75.5774 153.881 79.5208 153.887C80.8795 153.894 82.2383 153.901 83.6382 153.909C85.0894 153.904 86.5406 153.899 88.0358 153.895C89.5399 153.897 91.044 153.899 92.5937 153.901C95.768 153.905 98.9421 153.9 102.116 153.889C106.175 153.876 110.234 153.884 114.293 153.897C118.179 153.907 122.066 153.9 125.953 153.895C128.133 153.902 128.133 153.902 130.357 153.909C131.712 153.901 133.067 153.894 134.464 153.887C135.652 153.885 136.841 153.883 138.066 153.882C141.543 153.578 144.063 152.879 147.167 151.351C148.201 149.059 148.201 149.059 148.333 146.86C150.258 146.489 152.183 146.119 154.167 145.737C154.552 142.032 154.937 138.326 155.333 134.509C157.258 134.509 159.183 134.509 161.167 134.509C161.167 132.286 161.167 130.062 161.167 127.772C166.364 127.216 166.364 127.216 171.667 126.649C171.835 125.005 172.004 123.361 172.177 121.667C172.688 116.684 172.688 116.684 174 115.421C174.121 113.758 174.162 112.089 174.17 110.421C174.177 109.356 174.184 108.291 174.192 107.194C174.193 106.031 174.195 104.869 174.196 103.671C174.2 102.478 174.204 101.285 174.208 100.056C174.214 97.5197 174.216 94.9834 174.216 92.4471C174.219 88.5954 174.24 84.7441 174.262 80.8925C174.266 78.4269 174.268 75.9613 174.269 73.4956C174.281 71.7827 174.281 71.7827 174.294 70.0351C174.355 59.3884 174.355 59.3884 171.667 49.1754C168.242 46.8758 166.686 46.9298 162.333 46.9298C161.948 45.0772 161.563 43.2246 161.167 41.3158C159.242 41.3158 157.317 41.3158 155.333 41.3158C155.333 39.4632 155.333 37.6105 155.333 35.7018C154.563 35.7018 153.793 35.7018 153 35.7018C153 33.8491 153 31.9965 153 30.0877C151.46 29.7172 149.92 29.3467 148.333 28.9649C147.756 26.186 147.756 26.186 147.167 23.3509C124.067 23.3509 100.967 23.3509 77.1667 23.3509Z" fill="#6E6563"/>
<path d="M77.1667 23.3509C96.4167 23.3509 115.667 23.3509 135.5 23.3509C135.5 25.574 135.5 27.7972 135.5 30.0877C116.635 30.0877 97.77 30.0877 78.3333 30.0877C78.3333 31.9403 78.3333 33.793 78.3333 35.7018C74.0983 35.7018 69.8633 35.7018 65.5 35.7018C65.5 37.9249 65.5 40.1481 65.5 42.4386C63.19 42.4386 60.88 42.4386 58.5 42.4386C58.5 44.2912 58.5 46.1439 58.5 48.0526C56.575 48.0526 54.65 48.0526 52.6667 48.0526C52.6667 52.1284 52.6667 56.2042 52.6667 60.4035C50.7417 60.4035 48.8167 60.4035 46.8333 60.4035C46.8333 78.1888 46.8333 95.974 46.8333 114.298C48.7583 114.298 50.6833 114.298 52.6667 114.298C52.6667 112.816 52.6667 111.334 52.6667 109.807C54.2067 109.807 55.7467 109.807 57.3333 109.807C57.7183 112.03 58.1033 114.253 58.5 116.544C60.425 116.544 62.35 116.544 64.3333 116.544C64.7183 118.026 65.1033 119.508 65.5 121.035C67.425 121.035 69.35 121.035 71.3333 121.035C71.3333 119.182 71.3333 117.33 71.3333 115.421C69.4083 115.421 67.4833 115.421 65.5 115.421C65.5 109.493 65.5 103.564 65.5 97.4561C67.425 97.4561 69.35 97.4561 71.3333 97.4561C71.3333 95.233 71.3333 93.0098 71.3333 90.7193C73.6433 90.7193 75.9533 90.7193 78.3333 90.7193C78.3333 88.8667 78.3333 87.014 78.3333 85.1053C81.2208 84.5495 81.2208 84.5495 84.1667 83.9825C84.5517 82.5003 84.9367 81.0182 85.3333 79.4912C87.6433 78.9354 87.6433 78.9354 90 78.3684C90.385 76.5158 90.77 74.6632 91.1667 72.7544C93.0917 72.7544 95.0167 72.7544 97 72.7544C97 70.5312 97 68.3081 97 66.0175C98.925 66.0175 100.85 66.0175 102.833 66.0175C102.833 64.1649 102.833 62.3123 102.833 60.4035C105.143 60.4035 107.453 60.4035 109.833 60.4035C109.833 58.1803 109.833 55.9572 109.833 53.6667C111.758 53.6667 113.683 53.6667 115.667 53.6667C115.667 51.814 115.667 49.9614 115.667 48.0526C119.902 48.0526 124.137 48.0526 128.5 48.0526C128.5 49.9053 128.5 51.7579 128.5 53.6667C132.735 53.6667 136.97 53.6667 141.333 53.6667C141.333 55.8898 141.333 58.113 141.333 60.4035C139.408 60.4035 137.483 60.4035 135.5 60.4035C135.5 62.2561 135.5 64.1088 135.5 66.0175C133.19 66.0175 130.88 66.0175 128.5 66.0175C128.5 67.8702 128.5 69.7228 128.5 71.6316C126.575 72.0021 124.65 72.3726 122.667 72.7544C122.282 74.607 121.897 76.4596 121.5 78.3684C119.575 78.3684 117.65 78.3684 115.667 78.3684C115.667 80.2211 115.667 82.0737 115.667 83.9825C113.742 83.9825 111.817 83.9825 109.833 83.9825C109.833 86.2056 109.833 88.4288 109.833 90.7193C107.523 90.7193 105.213 90.7193 102.833 90.7193C102.833 92.5719 102.833 94.4246 102.833 96.3333C100.908 96.3333 98.9833 96.3333 97 96.3333C97 98.5565 97 100.78 97 103.07C94.69 103.07 92.38 103.07 90 103.07C90 104.923 90 106.775 90 108.684C88.075 108.684 86.15 108.684 84.1667 108.684C84.1667 110.907 84.1667 113.131 84.1667 115.421C81.2792 115.977 81.2792 115.977 78.3333 116.544C77.9483 118.396 77.5633 120.249 77.1667 122.158C75.6267 122.158 74.0867 122.158 72.5 122.158C72.5 124.011 72.5 125.863 72.5 127.772C76.35 127.772 80.2 127.772 84.1667 127.772C84.1667 129.995 84.1667 132.218 84.1667 134.509C88.4017 134.509 92.6367 134.509 97 134.509C97 136.361 97 138.214 97 140.123C95.075 140.123 93.15 140.123 91.1667 140.123C91.1667 141.975 91.1667 143.828 91.1667 145.737C107.337 145.737 123.507 145.737 140.167 145.737C140.552 147.589 140.937 149.442 141.333 151.351C118.618 151.351 95.9033 151.351 72.5 151.351C72.5 149.498 72.5 147.646 72.5 145.737C70.19 145.737 67.88 145.737 65.5 145.737C65.5 143.884 65.5 142.032 65.5 140.123C63.19 140.123 60.88 140.123 58.5 140.123C58.5 138.27 58.5 136.418 58.5 134.509C56.19 134.509 53.88 134.509 51.5 134.509C51.5 132.286 51.5 130.062 51.5 127.772C47.65 127.772 43.8 127.772 39.8333 127.772C38.9343 119.348 38.4936 111.079 38.5117 102.614C38.5106 101.44 38.5095 100.265 38.5083 99.0552C38.5075 96.5907 38.5097 94.1262 38.5146 91.6617C38.5208 87.9221 38.5146 84.1826 38.5072 80.443C38.5079 78.0322 38.5094 75.6213 38.5117 73.2105C38.5094 72.1096 38.507 71.0086 38.5046 69.8743C38.53 62.5462 39.0251 55.3388 39.8333 48.0526C41.7583 47.6821 43.6833 47.3116 45.6667 46.9298C46.0517 45.4477 46.4367 43.9656 46.8333 42.4386C50.6833 42.0681 54.5333 41.6975 58.5 41.3158C58.5 39.0926 58.5 36.8695 58.5 34.5789C60.425 34.5789 62.35 34.5789 64.3333 34.5789C64.7183 32.7263 65.1033 30.8737 65.5 28.9649C69.35 28.9649 73.2 28.9649 77.1667 28.9649C77.1667 27.1123 77.1667 25.2596 77.1667 23.3509Z" fill="#9FA7B1"/>
<path d="M72.5 158.088C95.215 158.088 117.93 158.088 141.333 158.088C141.333 158.458 141.333 158.829 141.333 159.211C139.408 159.211 137.483 159.211 135.5 159.211C135.5 181.442 135.5 203.674 135.5 226.579C132.035 226.023 132.035 226.023 128.5 225.456C128.5 223.974 128.5 222.492 128.5 220.965C127.562 220.988 126.623 221.011 125.656 221.035C122.667 220.965 122.667 220.965 121.5 219.842C121.453 217.971 121.45 216.099 121.5 214.228C119.575 214.228 117.65 214.228 115.667 214.228C115.667 212.375 115.667 210.523 115.667 208.614C109.507 208.244 103.347 207.873 97 207.491C96.615 211.196 96.23 214.902 95.8334 218.719C93.5234 219.275 93.5234 219.275 91.1667 219.842C90.5892 222.621 90.5892 222.621 90 225.456C92.31 225.456 94.62 225.456 97 225.456C97 225.827 97 226.197 97 226.579C95.075 226.579 93.15 226.579 91.1667 226.579C91.1667 228.432 91.1667 230.284 91.1667 232.193C90.7817 232.193 90.3967 232.193 90 232.193C90 230.34 90 228.488 90 226.579C87.69 226.579 85.38 226.579 83 226.579C83 228.061 83 229.543 83 231.07C81.075 231.07 79.15 231.07 77.1667 231.07C77.1667 233.293 77.1667 235.516 77.1667 237.807C75.6267 237.807 74.0867 237.807 72.5 237.807C72.5 211.5 72.5 185.192 72.5 158.088Z" fill="#5F43AF"/>
<path d="M135.5 23.3509C139.35 23.3509 143.2 23.3509 147.167 23.3509C147.744 26.1298 147.744 26.1298 148.333 28.9649C149.873 29.3354 151.413 29.706 153 30.0877C153.578 36.2014 153.578 36.2014 154.167 42.4386C156.092 42.4386 158.017 42.4386 160 42.4386C160 44.2912 160 46.1439 160 48.0526C156.15 48.0526 152.3 48.0526 148.333 48.0526C148.333 49.9053 148.333 51.7579 148.333 53.6667C146.408 53.6667 144.483 53.6667 142.5 53.6667C142.5 55.8898 142.5 58.113 142.5 60.4035C144.04 60.4035 145.58 60.4035 147.167 60.4035C147.552 70.4077 147.937 80.4119 148.333 90.7193C145.446 91.2751 145.446 91.2751 142.5 91.8421C142.5 93.6947 142.5 95.5474 142.5 97.4561C140.19 97.4561 137.88 97.4561 135.5 97.4561C135.5 99.3088 135.5 101.161 135.5 103.07C132.613 103.626 132.613 103.626 129.667 104.193C129.282 106.046 128.897 107.898 128.5 109.807C126.575 109.807 124.65 109.807 122.667 109.807C122.667 111.66 122.667 113.512 122.667 115.421C119.779 115.977 119.779 115.977 116.833 116.544C116.448 118.396 116.063 120.249 115.667 122.158C113.742 122.158 111.817 122.158 109.833 122.158C109.833 124.011 109.833 125.863 109.833 127.772C97.5134 127.772 85.1934 127.772 72.5 127.772C72.5 125.919 72.5 124.067 72.5 122.158C74.81 121.602 74.81 121.602 77.1667 121.035C77.5517 119.553 77.9367 118.071 78.3334 116.544C80.6434 115.988 80.6434 115.988 83 115.421C83.385 113.198 83.77 110.975 84.1667 108.684C86.0917 108.684 88.0167 108.684 90 108.684C90 106.832 90 104.979 90 103.07C92.31 103.07 94.62 103.07 97 103.07C97 100.847 97 98.6239 97 96.3333C98.925 96.3333 100.85 96.3333 102.833 96.3333C102.833 94.4807 102.833 92.6281 102.833 90.7193C105.143 90.7193 107.453 90.7193 109.833 90.7193C109.833 88.4961 109.833 86.273 109.833 83.9825C111.758 83.9825 113.683 83.9825 115.667 83.9825C115.667 82.1298 115.667 80.2772 115.667 78.3684C117.592 78.3684 119.517 78.3684 121.5 78.3684C121.476 77.4653 121.452 76.5621 121.427 75.6316C121.5 72.7544 121.5 72.7544 122.667 71.6316C124.611 71.5859 126.556 71.5836 128.5 71.6316C128.5 69.7789 128.5 67.9263 128.5 66.0175C130.81 66.0175 133.12 66.0175 135.5 66.0175C135.5 64.1649 135.5 62.3123 135.5 60.4035C137.425 60.4035 139.35 60.4035 141.333 60.4035C141.333 55.9572 141.333 51.5109 141.333 46.9298C137.483 46.9298 133.633 46.9298 129.667 46.9298C129.282 43.2246 128.897 39.5193 128.5 35.7018C130.81 35.7018 133.12 35.7018 135.5 35.7018C135.5 31.626 135.5 27.5502 135.5 23.3509Z" fill="#89939E"/>
<path d="M154.167 35.7018C154.552 35.7018 154.937 35.7018 155.333 35.7018C155.333 37.5544 155.333 39.407 155.333 41.3158C157.258 41.3158 159.183 41.3158 161.167 41.3158C161.744 44.0947 161.744 44.0947 162.333 46.9298C163.224 47.0919 164.114 47.254 165.031 47.4211C168.167 48.0526 168.167 48.0526 171.667 49.1754C172.244 54.7333 172.244 54.7333 172.833 60.4035C170.908 60.4035 168.983 60.4035 167 60.4035C167 62.2561 167 64.1088 167 66.0175C164.69 66.0175 162.38 66.0175 160 66.0175C160 67.8702 160 69.7228 160 71.6316C157.69 72.1874 157.69 72.1874 155.333 72.7544C154.948 86.8344 154.563 100.914 154.167 115.421C152.242 115.421 150.317 115.421 148.333 115.421C148.333 117.644 148.333 119.867 148.333 122.158C146.408 122.158 144.483 122.158 142.5 122.158C142.524 123.061 142.548 123.964 142.573 124.895C142.5 127.772 142.5 127.772 141.333 128.895C139.366 128.976 137.396 128.989 135.427 128.965C133.819 128.95 133.819 128.95 132.178 128.934C130.935 128.915 130.935 128.915 129.667 128.895C129.667 130.747 129.667 132.6 129.667 134.509C114.652 134.509 99.6367 134.509 84.1667 134.509C84.1667 132.286 84.1667 130.062 84.1667 127.772C92.6367 127.772 101.107 127.772 109.833 127.772C109.833 125.919 109.833 124.067 109.833 122.158C112.721 121.602 112.721 121.602 115.667 121.035C116.052 119.553 116.437 118.071 116.833 116.544C119.143 115.988 119.143 115.988 121.5 115.421C121.885 113.568 122.27 111.716 122.667 109.807C125.554 109.251 125.554 109.251 128.5 108.684C128.885 107.202 129.27 105.72 129.667 104.193C131.977 103.637 131.977 103.637 134.333 103.07C134.718 101.218 135.103 99.3649 135.5 97.4561C137.81 97.4561 140.12 97.4561 142.5 97.4561C142.5 95.6035 142.5 93.7509 142.5 91.8421C144.81 91.2863 144.81 91.2863 147.167 90.7193C147.167 80.7151 147.167 70.7109 147.167 60.4035C145.627 60.4035 144.087 60.4035 142.5 60.4035C142.5 58.1803 142.5 55.9572 142.5 53.6667C144.425 53.6667 146.35 53.6667 148.333 53.6667C148.333 51.814 148.333 49.9614 148.333 48.0526C152.183 48.0526 156.033 48.0526 160 48.0526C160 46.2 160 44.3474 160 42.4386C158.075 42.4386 156.15 42.4386 154.167 42.4386C154.167 40.2154 154.167 37.9923 154.167 35.7018Z" fill="#88929D"/>
<path d="M78.3333 11C97.1983 11 116.063 11 135.5 11C135.5 12.8526 135.5 14.7053 135.5 16.614C139.735 16.614 143.97 16.614 148.333 16.614C148.333 18.8372 148.333 21.0604 148.333 23.3509C150.643 23.3509 152.953 23.3509 155.333 23.3509C155.333 25.2035 155.333 27.0561 155.333 28.9649C157.258 28.9649 159.183 28.9649 161.167 28.9649C161.167 30.8175 161.167 32.6702 161.167 34.5789C163.092 34.5789 165.017 34.5789 167 34.5789C167 36.8021 167 39.0253 167 41.3158C169.31 41.3158 171.62 41.3158 174 41.3158C174 43.1684 174 45.0211 174 46.9298C175.925 46.9298 177.85 46.9298 179.833 46.9298C179.833 51.3761 179.833 55.8225 179.833 60.4035C182.143 60.4035 184.453 60.4035 186.833 60.4035C186.833 78.5593 186.833 96.7151 186.833 115.421C184.523 115.421 182.213 115.421 179.833 115.421C179.833 119.497 179.833 123.573 179.833 127.772C177.908 127.772 175.983 127.772 174 127.772C174 129.995 174 132.218 174 134.509C171.69 134.509 169.38 134.509 167 134.509C167 136.361 167 138.214 167 140.123C165.075 140.123 163.15 140.123 161.167 140.123C161.167 141.975 161.167 143.828 161.167 145.737C158.857 145.737 156.547 145.737 154.167 145.737C154.552 142.032 154.937 138.326 155.333 134.509C157.258 134.509 159.183 134.509 161.167 134.509C161.167 132.286 161.167 130.062 161.167 127.772C166.364 127.216 166.364 127.216 171.667 126.649C171.643 125.005 171.619 123.361 171.594 121.667C171.569 119.959 171.583 118.25 171.667 116.544C172.052 116.173 172.437 115.803 172.833 115.421C172.948 113.71 172.983 111.994 172.984 110.279C172.99 108.638 172.99 108.638 172.995 106.963C172.993 105.773 172.991 104.582 172.988 103.355C172.99 101.534 172.99 101.534 172.992 99.6757C172.992 97.1017 172.99 94.5277 172.985 91.9537C172.979 88.0034 172.985 84.0533 172.993 80.1031C172.992 77.6082 172.991 75.1133 172.988 72.6184C172.992 70.8359 172.992 70.8359 172.995 69.0174C172.992 67.9197 172.988 66.822 172.984 65.6911C172.983 64.7221 172.982 63.753 172.982 62.7547C172.989 60.337 172.989 60.337 171.667 58.1579C171.51 55.1573 171.616 52.1817 171.667 49.1754C170.993 49.0133 170.319 48.8512 169.625 48.6842C167.194 48.0994 164.764 47.5146 162.333 46.9298C161.756 44.7067 161.756 44.7067 161.167 42.4386C159.242 42.0681 157.317 41.6975 155.333 41.3158C155.333 39.4632 155.333 37.6105 155.333 35.7018C154.563 35.7018 153.793 35.7018 153 35.7018C153 33.8491 153 31.9965 153 30.0877C151.075 29.7172 149.15 29.3467 147.167 28.9649C147.167 27.1123 147.167 25.2596 147.167 23.3509C143.317 23.3509 139.467 23.3509 135.5 23.3509C134.923 20.5719 134.923 20.5719 134.333 17.7368C133.649 17.7393 132.965 17.7418 132.26 17.7444C125.163 17.7692 118.067 17.7861 110.97 17.7985C108.319 17.8042 105.667 17.8119 103.015 17.8215C99.2131 17.8351 95.411 17.8415 91.6087 17.8465C90.4153 17.8523 89.222 17.8581 87.9924 17.8641C86.8947 17.8641 85.797 17.8642 84.666 17.8643C83.6945 17.8668 82.723 17.8693 81.722 17.8719C79.5 17.7368 79.5 17.7368 78.3333 16.614C78.3333 14.7614 78.3333 12.9088 78.3333 11Z" fill="#666D76"/>
<path d="M148.333 145.737C150.258 145.737 152.183 145.737 154.167 145.737C154.167 147.96 154.167 150.183 154.167 152.474C152.242 152.474 150.317 152.474 148.333 152.474C148.333 182.857 148.333 213.24 148.333 244.544C144.098 244.544 139.863 244.544 135.5 244.544C135.5 242.691 135.5 240.839 135.5 238.93C133.19 238.93 130.88 238.93 128.5 238.93C128.5 237.077 128.5 235.225 128.5 233.316C127.562 233.339 126.623 233.362 125.656 233.386C122.667 233.316 122.667 233.316 121.5 232.193C121.453 230.322 121.45 228.45 121.5 226.579C119.575 226.579 117.65 226.579 115.667 226.579C115.667 224.726 115.667 222.874 115.667 220.965C113.357 220.965 111.047 220.965 108.667 220.965C108.667 218.742 108.667 216.519 108.667 214.228C107.127 214.228 105.587 214.228 104 214.228C104 216.451 104 218.674 104 220.965C101.69 220.965 99.38 220.965 97 220.965C97 222.447 97 223.929 97 225.456C94.69 225.456 92.38 225.456 90 225.456C90 223.604 90 221.751 90 219.842C92.8875 219.286 92.8875 219.286 95.8334 218.719C96.2184 215.014 96.6034 211.309 97 207.491C99.4548 207.461 101.91 207.439 104.365 207.421C105.732 207.408 107.099 207.395 108.507 207.382C112.167 207.491 112.167 207.491 115.667 208.614C115.667 210.467 115.667 212.319 115.667 214.228C117.592 214.228 119.517 214.228 121.5 214.228C121.885 216.081 122.27 217.933 122.667 219.842C124.592 220.213 126.517 220.583 128.5 220.965C128.5 222.447 128.5 223.929 128.5 225.456C131.965 226.012 131.965 226.012 135.5 226.579C135.5 204.347 135.5 182.116 135.5 159.211C137.425 159.211 139.35 159.211 141.333 159.211C141.333 156.987 141.333 154.764 141.333 152.474C143.258 152.103 145.183 151.733 147.167 151.351C147.552 149.498 147.937 147.646 148.333 145.737Z" fill="#412E78"/>
<path d="M77.1667 23.3509C96.4167 23.3509 115.667 23.3509 135.5 23.3509C135.5 25.574 135.5 27.7972 135.5 30.0877C116.635 30.0877 97.77 30.0877 78.3333 30.0877C78.3333 31.9403 78.3333 33.793 78.3333 35.7018C74.0983 35.7018 69.8633 35.7018 65.5 35.7018C65.5 37.9249 65.5 40.1481 65.5 42.4386C63.19 42.4386 60.88 42.4386 58.5 42.4386C58.5 44.2912 58.5 46.1439 58.5 48.0526C56.575 48.0526 54.65 48.0526 52.6667 48.0526C52.6667 52.1284 52.6667 56.2042 52.6667 60.4035C50.3567 60.4035 48.0467 60.4035 45.6667 60.4035C45.6667 78.5593 45.6667 96.7151 45.6667 115.421C47.9767 115.421 50.2867 115.421 52.6667 115.421C52.6667 119.497 52.6667 123.573 52.6667 127.772C54.5917 127.772 56.5167 127.772 58.5 127.772C58.5 129.625 58.5 131.477 58.5 133.386C59.4384 133.363 60.3769 133.34 61.3438 133.316C64.3333 133.386 64.3333 133.386 65.5 134.509C65.5474 136.38 65.5498 138.252 65.5 140.123C63.19 140.123 60.88 140.123 58.5 140.123C58.5 138.27 58.5 136.418 58.5 134.509C56.19 134.509 53.88 134.509 51.5 134.509C51.5 132.286 51.5 130.062 51.5 127.772C47.65 127.772 43.8 127.772 39.8333 127.772C38.9343 119.348 38.4936 111.079 38.5117 102.614C38.5106 101.44 38.5095 100.265 38.5083 99.0552C38.5075 96.5907 38.5097 94.1262 38.5146 91.6617C38.5208 87.9221 38.5146 84.1826 38.5072 80.443C38.5079 78.0322 38.5094 75.6213 38.5117 73.2105C38.5094 72.1096 38.507 71.0086 38.5046 69.8743C38.53 62.5462 39.0251 55.3388 39.8333 48.0526C41.7583 47.6821 43.6833 47.3116 45.6667 46.9298C46.0517 45.4477 46.4367 43.9656 46.8333 42.4386C50.6833 42.0681 54.5333 41.6975 58.5 41.3158C58.5 39.0926 58.5 36.8695 58.5 34.5789C60.425 34.5789 62.35 34.5789 64.3333 34.5789C64.7183 32.7263 65.1033 30.8737 65.5 28.9649C69.35 28.9649 73.2 28.9649 77.1667 28.9649C77.1667 27.1123 77.1667 25.2596 77.1667 23.3509Z" fill="#DADCDF"/>
<path d="M85.3334 48.0526C95.3434 48.0526 105.353 48.0526 115.667 48.0526C115.667 49.9053 115.667 51.7579 115.667 53.6667C113.742 53.6667 111.817 53.6667 109.833 53.6667C109.833 55.8898 109.833 58.113 109.833 60.4035C107.523 60.4035 105.213 60.4035 102.833 60.4035C102.833 62.2561 102.833 64.1088 102.833 66.0175C100.908 66.0175 98.9834 66.0175 97 66.0175C97 68.2407 97 70.4639 97 72.7544C95.075 72.7544 93.15 72.7544 91.1667 72.7544C91.1667 74.607 91.1667 76.4596 91.1667 78.3684C89.2417 78.7389 87.3167 79.1095 85.3334 79.4912C84.9484 81.3439 84.5634 83.1965 84.1667 85.1053C82.2417 85.1053 80.3167 85.1053 78.3334 85.1053C78.3334 86.9579 78.3334 88.8105 78.3334 90.7193C76.0234 90.7193 73.7134 90.7193 71.3334 90.7193C71.3334 92.9425 71.3334 95.1656 71.3334 97.4561C69.4083 97.4561 67.4833 97.4561 65.5 97.4561C65.5 85.2288 65.5 73.0014 65.5 60.4035C67.425 60.033 69.35 59.6625 71.3334 59.2807C71.7184 57.7986 72.1034 56.3165 72.5 54.7895C76.35 54.4189 80.2 54.0484 84.1667 53.6667C84.5517 51.814 84.9367 49.9614 85.3334 48.0526Z" fill="#89939E"/>
<path d="M45.6667 60.4035C46.0517 60.4035 46.4367 60.4035 46.8333 60.4035C46.8333 78.1888 46.8333 95.974 46.8333 114.298C48.7583 114.298 50.6833 114.298 52.6667 114.298C52.6667 112.816 52.6667 111.334 52.6667 109.807C54.2067 109.807 55.7467 109.807 57.3333 109.807C57.7183 112.03 58.1033 114.253 58.5 116.544C60.425 116.544 62.35 116.544 64.3333 116.544C64.7183 118.026 65.1033 119.508 65.5 121.035C67.425 121.035 69.35 121.035 71.3333 121.035C71.3333 119.182 71.3333 117.33 71.3333 115.421C71.7183 115.421 72.1033 115.421 72.5 115.421C72.5 117.274 72.5 119.126 72.5 121.035C74.04 121.406 75.58 121.776 77.1667 122.158C75.6267 122.158 74.0867 122.158 72.5 122.158C72.5 124.011 72.5 125.863 72.5 127.772C76.35 127.772 80.2 127.772 84.1667 127.772C84.1667 129.995 84.1667 132.218 84.1667 134.509C88.4017 134.509 92.6367 134.509 97 134.509C97 136.361 97 138.214 97 140.123C95.075 140.123 93.15 140.123 91.1667 140.123C91.1667 141.975 91.1667 143.828 91.1667 145.737C107.337 145.737 123.507 145.737 140.167 145.737C140.552 147.589 140.937 149.442 141.333 151.351C118.618 151.351 95.9034 151.351 72.5 151.351C72.5 149.498 72.5 147.646 72.5 145.737C70.19 145.737 67.88 145.737 65.5 145.737C64.9225 140.179 64.9225 140.179 64.3333 134.509C62.4083 134.138 60.4833 133.768 58.5 133.386C58.5 131.533 58.5 129.681 58.5 127.772C56.575 127.772 54.65 127.772 52.6667 127.772C52.6667 123.696 52.6667 119.62 52.6667 115.421C50.3567 115.421 48.0467 115.421 45.6667 115.421C45.6667 97.2653 45.6667 79.1095 45.6667 60.4035Z" fill="#89939E"/>
<path d="M72.5 158.088C95.215 158.088 117.93 158.088 141.333 158.088C141.333 158.458 141.333 158.829 141.333 159.211C122.468 159.211 103.603 159.211 84.1667 159.211C84.1667 179.219 84.1667 199.227 84.1667 219.842C86.0917 219.842 88.0167 219.842 90 219.842C90 221.695 90 223.547 90 225.456C92.31 225.456 94.62 225.456 97 225.456C97 225.827 97 226.197 97 226.579C95.075 226.579 93.15 226.579 91.1667 226.579C91.1667 228.432 91.1667 230.284 91.1667 232.193C90.7817 232.193 90.3967 232.193 90 232.193C90 230.34 90 228.488 90 226.579C87.69 226.579 85.38 226.579 83 226.579C83 228.061 83 229.543 83 231.07C81.075 231.07 79.15 231.07 77.1667 231.07C77.1667 233.293 77.1667 235.516 77.1667 237.807C75.6267 237.807 74.0867 237.807 72.5 237.807C72.5 211.5 72.5 185.192 72.5 158.088Z" fill="#463181"/>
<path d="M84.1667 41.3158C99.1817 41.3158 114.197 41.3158 129.667 41.3158C129.667 43.1684 129.667 45.0211 129.667 46.9298C133.517 46.9298 137.367 46.9298 141.333 46.9298C141.333 49.153 141.333 51.3761 141.333 53.6667C137.098 53.6667 132.863 53.6667 128.5 53.6667C128.5 51.814 128.5 49.9614 128.5 48.0526C114.255 48.0526 100.01 48.0526 85.3333 48.0526C85.3333 49.9053 85.3333 51.7579 85.3333 53.6667C84.1667 54.7895 84.1667 54.7895 81.5007 54.8991C79.8967 54.8796 79.8967 54.8796 78.2604 54.8596C77.1881 54.8495 76.1159 54.8394 75.0111 54.8289C74.1824 54.8159 73.3538 54.8029 72.5 54.7895C72.115 56.6421 71.73 58.4947 71.3333 60.4035C69.4083 60.4035 67.4833 60.4035 65.5 60.4035C65.5 78.5593 65.5 96.7151 65.5 115.421C67.425 115.421 69.35 115.421 71.3333 115.421C71.3333 117.274 71.3333 119.126 71.3333 121.035C69.4083 121.035 67.4833 121.035 65.5 121.035C65.115 119.924 64.73 118.812 64.3333 117.667C62.4083 117.296 60.4833 116.926 58.5 116.544C58.5 97.647 58.5 78.7502 58.5 59.2807C60.425 59.2807 62.35 59.2807 64.3333 59.2807C64.3333 57.4281 64.3333 55.5754 64.3333 53.6667C66.6433 53.6667 68.9533 53.6667 71.3333 53.6667C71.3333 51.4435 71.3333 49.2203 71.3333 46.9298C75.1833 46.9298 79.0333 46.9298 83 46.9298C83.385 45.0772 83.77 43.2246 84.1667 41.3158Z" fill="#88919C"/>
<path d="M77.1667 11C77.5517 11 77.9367 11 78.3333 11C78.9108 13.7789 78.9108 13.7789 79.5 16.614C106.643 17.1698 106.643 17.1698 134.333 17.7368C134.911 20.5158 134.911 20.5158 135.5 23.3509C116.25 23.3509 97 23.3509 77.1667 23.3509C77.1667 25.2035 77.1667 27.0561 77.1667 28.9649C73.3167 29.3354 69.4667 29.706 65.5 30.0877C65.115 31.5698 64.73 33.0519 64.3333 34.5789C62.4083 34.5789 60.4833 34.5789 58.5 34.5789C58.5 36.8021 58.5 39.0253 58.5 41.3158C52.725 41.8716 52.725 41.8716 46.8333 42.4386C46.4483 44.2912 46.0633 46.1439 45.6667 48.0526C43.7417 48.0526 41.8167 48.0526 39.8333 48.0526C39.8333 52.1284 39.8333 56.2042 39.8333 60.4035C37.5233 60.4035 35.2133 60.4035 32.8333 60.4035C32.8333 55.9572 32.8333 51.5109 32.8333 46.9298C34.7583 46.9298 36.6833 46.9298 38.6667 46.9298C38.6667 45.0772 38.6667 43.2246 38.6667 41.3158C40.9767 41.3158 43.2867 41.3158 45.6667 41.3158C45.6667 39.0926 45.6667 36.8695 45.6667 34.5789C47.5917 34.5789 49.5167 34.5789 51.5 34.5789C51.5 32.7263 51.5 30.8737 51.5 28.9649C53.81 28.9649 56.12 28.9649 58.5 28.9649C58.5 26.7418 58.5 24.5186 58.5 22.2281C60.425 22.2281 62.35 22.2281 64.3333 22.2281C64.3333 20.3754 64.3333 18.5228 64.3333 16.614C68.5683 16.614 72.8033 16.614 77.1667 16.614C77.1667 14.7614 77.1667 12.9088 77.1667 11Z" fill="#777A7D"/>
<path d="M78.3333 11C97.1983 11 116.063 11 135.5 11C135.5 12.8526 135.5 14.7053 135.5 16.614C139.735 16.614 143.97 16.614 148.333 16.614C148.333 18.8372 148.333 21.0604 148.333 23.3509C150.643 23.3509 152.953 23.3509 155.333 23.3509C155.333 25.2035 155.333 27.0561 155.333 28.9649C157.258 28.9649 159.183 28.9649 161.167 28.9649C161.167 30.8175 161.167 32.6702 161.167 34.5789C163.092 34.5789 165.017 34.5789 167 34.5789C167 36.8021 167 39.0253 167 41.3158C169.31 41.3158 171.62 41.3158 174 41.3158C174 43.1684 174 45.0211 174 46.9298C175.925 46.9298 177.85 46.9298 179.833 46.9298C179.833 51.3761 179.833 55.8225 179.833 60.4035C177.523 60.4035 175.213 60.4035 172.833 60.4035C170.958 56.7942 171.6 53.177 171.667 49.1754C170.993 49.0133 170.319 48.8512 169.625 48.6842C167.194 48.0994 164.764 47.5146 162.333 46.9298C161.756 44.7067 161.756 44.7067 161.167 42.4386C159.242 42.0681 157.317 41.6975 155.333 41.3158C155.333 39.4632 155.333 37.6105 155.333 35.7018C154.563 35.7018 153.793 35.7018 153 35.7018C153 33.8491 153 31.9965 153 30.0877C151.075 29.7172 149.15 29.3467 147.167 28.9649C147.167 27.1123 147.167 25.2596 147.167 23.3509C143.317 23.3509 139.467 23.3509 135.5 23.3509C134.923 20.5719 134.923 20.5719 134.333 17.7368C133.649 17.7393 132.965 17.7418 132.26 17.7444C125.163 17.7692 118.067 17.7861 110.97 17.7985C108.319 17.8042 105.667 17.8119 103.015 17.8215C99.2131 17.8351 95.411 17.8415 91.6087 17.8465C90.4153 17.8523 89.222 17.8581 87.9924 17.8641C86.8947 17.8641 85.797 17.8642 84.666 17.8643C83.6945 17.8668 82.723 17.8693 81.722 17.8719C79.5 17.7368 79.5 17.7368 78.3333 16.614C78.3333 14.7614 78.3333 12.9088 78.3333 11Z" fill="#575B60"/>
<path d="M122.667 159.211C126.902 159.211 131.137 159.211 135.5 159.211C135.5 181.442 135.5 203.674 135.5 226.579C133.19 226.208 130.88 225.838 128.5 225.456C128.5 223.974 128.5 222.492 128.5 220.965C126.575 220.965 124.65 220.965 122.667 220.965C122.667 200.586 122.667 180.207 122.667 159.211Z" fill="#6043B2"/>
<path d="M77.1667 23.3509C96.4167 23.3509 115.667 23.3509 135.5 23.3509C135.5 25.574 135.5 27.7972 135.5 30.0877C116.635 30.0877 97.77 30.0877 78.3333 30.0877C78.3333 31.9403 78.3333 33.793 78.3333 35.7018C74.0983 35.7018 69.8633 35.7018 65.5 35.7018C65.5 37.9249 65.5 40.1481 65.5 42.4386C63.19 42.4386 60.88 42.4386 58.5 42.4386C58.5 44.2912 58.5 46.1439 58.5 48.0526C56.575 48.0526 54.65 48.0526 52.6667 48.0526C52.6667 52.1284 52.6667 56.2042 52.6667 60.4035C50.3567 60.4035 48.0467 60.4035 45.6667 60.4035C45.635 58.2515 45.6125 56.0995 45.5938 53.9474C45.5802 52.7489 45.5667 51.5505 45.5527 50.3158C45.6667 46.9298 45.6667 46.9298 46.8333 42.4386C50.6833 42.0681 54.5333 41.6975 58.5 41.3158C58.5 39.0926 58.5 36.8695 58.5 34.5789C60.425 34.5789 62.35 34.5789 64.3333 34.5789C64.7183 32.7263 65.1033 30.8737 65.5 28.9649C69.35 28.9649 73.2 28.9649 77.1667 28.9649C77.1667 27.1123 77.1667 25.2596 77.1667 23.3509Z" fill="#B7BCC2"/>
<path d="M27 60.4035C30.85 60.4035 34.7 60.4035 38.6667 60.4035C38.6667 78.5593 38.6667 96.7151 38.6667 115.421C34.8167 115.421 30.9667 115.421 27 115.421C27 97.2653 27 79.1095 27 60.4035Z" fill="#818891"/>
<path d="M65.5 152.474C68.3875 153.029 68.3875 153.029 71.3334 153.597C71.3334 181.757 71.3334 209.917 71.3334 238.93C73.2584 238.93 75.1834 238.93 77.1667 238.93C77.1667 240.782 77.1667 242.635 77.1667 244.544C73.3167 244.544 69.4667 244.544 65.5 244.544C65.5 214.161 65.5 183.778 65.5 152.474Z" fill="#454545"/>
<path d="M135.5 23.3509C139.35 23.3509 143.2 23.3509 147.167 23.3509C147.552 25.2035 147.937 27.0561 148.333 28.9649C149.873 29.3354 151.413 29.706 153 30.0877C153.385 34.1635 153.77 38.2393 154.167 42.4386C156.092 42.4386 158.017 42.4386 160 42.4386C160 44.2912 160 46.1439 160 48.0526C156.15 48.0526 152.3 48.0526 148.333 48.0526C148.333 49.9053 148.333 51.7579 148.333 53.6667C146.408 53.6667 144.483 53.6667 142.5 53.6667C142.115 51.814 141.73 49.9614 141.333 48.0526C137.483 47.6821 133.633 47.3116 129.667 46.9298C129.282 43.2246 128.897 39.5193 128.5 35.7018C130.81 35.7018 133.12 35.7018 135.5 35.7018C135.5 31.626 135.5 27.5502 135.5 23.3509Z" fill="#9FA7B1"/>
<path d="M141.333 115.421C143.643 115.421 145.953 115.421 148.333 115.421C148.333 117.644 148.333 119.867 148.333 122.158C146.408 122.158 144.483 122.158 142.5 122.158C142.524 123.061 142.548 123.964 142.573 124.895C142.5 127.772 142.5 127.772 141.333 128.895C139.366 128.976 137.396 128.989 135.427 128.965C134.355 128.955 133.283 128.945 132.178 128.934C131.349 128.921 130.52 128.908 129.667 128.895C129.667 130.747 129.667 132.6 129.667 134.509C114.652 134.509 99.6367 134.509 84.1667 134.509C84.1667 132.286 84.1667 130.062 84.1667 127.772C98.7967 127.772 113.427 127.772 128.5 127.772C128.5 125.549 128.5 123.326 128.5 121.035C132.735 121.035 136.97 121.035 141.333 121.035C141.333 119.182 141.333 117.33 141.333 115.421Z" fill="#77818D"/>
<path d="M142.5 153.596C144.04 153.596 145.58 153.596 147.167 153.596C147.167 183.609 147.167 213.622 147.167 244.544C143.702 244.544 140.237 244.544 136.667 244.544C136.667 243.062 136.667 241.58 136.667 240.053C138.977 239.497 138.977 239.497 141.333 238.93C141.911 196.69 141.911 196.69 142.5 153.596Z" fill="#454545"/>
<path d="M90 134.509C92.31 134.509 94.62 134.509 97 134.509C97 136.361 97 138.214 97 140.123C95.075 140.123 93.15 140.123 91.1667 140.123C91.1667 141.975 91.1667 143.828 91.1667 145.737C107.337 145.737 123.507 145.737 140.167 145.737C140.744 148.516 140.744 148.516 141.333 151.351C118.618 151.351 95.9034 151.351 72.5 151.351C72.5 149.869 72.5 148.387 72.5 146.86C76.35 146.86 80.2 146.86 84.1667 146.86C84.1667 144.636 84.1667 142.413 84.1667 140.123C86.0917 140.123 88.0167 140.123 90 140.123C90 138.27 90 136.418 90 134.509Z" fill="#9EA6AF"/>
<path d="M84.1667 159.211C86.4767 159.211 88.7867 159.211 91.1667 159.211C91.1667 179.219 91.1667 199.227 91.1667 219.842C88.8567 219.842 86.5467 219.842 84.1667 219.842C84.1667 199.834 84.1667 179.825 84.1667 159.211Z" fill="#9D8AD2"/>
<path d="M167 60.4035C168.925 60.4035 170.85 60.4035 172.833 60.4035C172.833 78.1888 172.833 95.974 172.833 114.298C170.908 114.298 168.983 114.298 167 114.298C167 100.589 167 86.8793 167 72.7544C165.075 72.7544 163.15 72.7544 161.167 72.7544C161.167 74.607 161.167 76.4597 161.167 78.3684C159.242 78.3684 157.317 78.3684 155.333 78.3684C155.333 76.1453 155.333 73.9221 155.333 71.6316C156.873 71.6316 158.413 71.6316 160 71.6316C160 69.7789 160 67.9263 160 66.0175C162.31 66.0175 164.62 66.0175 167 66.0175C167 64.1649 167 62.3123 167 60.4035Z" fill="#9EA6B0"/>
<path d="M78.3333 159.211C80.2583 159.211 82.1833 159.211 84.1667 159.211C84.1667 179.219 84.1667 199.227 84.1667 219.842C86.0917 219.842 88.0167 219.842 90 219.842C90 220.213 90 220.583 90 220.965C87.69 220.965 85.38 220.965 83 220.965C83 222.447 83 223.929 83 225.456C81.46 225.456 79.92 225.456 78.3333 225.456C78.3333 203.595 78.3333 181.734 78.3333 159.211Z" fill="#6144B3"/>
<path d="M97 207.491C99.4548 207.461 101.91 207.439 104.365 207.421C105.732 207.408 107.099 207.395 108.507 207.382C112.167 207.491 112.167 207.491 115.667 208.614C115.667 210.467 115.667 212.319 115.667 214.228C117.592 214.228 119.517 214.228 121.5 214.228C121.885 216.081 122.27 217.933 122.667 219.842C125.554 220.398 125.554 220.398 128.5 220.965C128.5 222.818 128.5 224.67 128.5 226.579C126.575 226.579 124.65 226.579 122.667 226.579C122.667 228.432 122.667 230.284 122.667 232.193C122.282 232.193 121.897 232.193 121.5 232.193C121.5 230.34 121.5 228.488 121.5 226.579C119.575 226.579 117.65 226.579 115.667 226.579C115.667 224.726 115.667 222.874 115.667 220.965C113.357 220.965 111.047 220.965 108.667 220.965C108.667 218.742 108.667 216.519 108.667 214.228C107.127 214.228 105.587 214.228 104 214.228C104 216.451 104 218.674 104 220.965C101.69 220.965 99.38 220.965 97 220.965C97 222.447 97 223.929 97 225.456C94.69 225.456 92.38 225.456 90 225.456C90 223.604 90 221.751 90 219.842C91.925 219.472 93.85 219.101 95.8334 218.719C96.2184 215.014 96.6034 211.309 97 207.491Z" fill="#666B6F"/>
<path d="M122.667 159.211C124.592 159.211 126.517 159.211 128.5 159.211C128.5 179.219 128.5 199.227 128.5 219.842C126.575 219.842 124.65 219.842 122.667 219.842C122.667 199.834 122.667 179.825 122.667 159.211Z" fill="#A492D6"/>
<path d="M141.333 83.9825C143.643 83.9825 145.953 83.9825 148.333 83.9825C148.333 86.2056 148.333 88.4288 148.333 90.7193C146.408 91.0898 144.483 91.4603 142.5 91.8421C142.5 93.6947 142.5 95.5474 142.5 97.4561C140.19 97.4561 137.88 97.4561 135.5 97.4561C135.5 99.3088 135.5 101.161 135.5 103.07C133.575 103.441 131.65 103.811 129.667 104.193C129.282 106.046 128.897 107.898 128.5 109.807C126.575 109.807 124.65 109.807 122.667 109.807C122.667 111.66 122.667 113.512 122.667 115.421C120.742 115.792 118.817 116.162 116.833 116.544C116.256 119.323 116.256 119.323 115.667 122.158C113.742 122.158 111.817 122.158 109.833 122.158C109.833 124.011 109.833 125.863 109.833 127.772C107.523 127.772 105.213 127.772 102.833 127.772C102.833 125.549 102.833 123.326 102.833 121.035C105.143 121.035 107.453 121.035 109.833 121.035C109.833 119.182 109.833 117.33 109.833 115.421C111.758 115.421 113.683 115.421 115.667 115.421C115.667 113.198 115.667 110.975 115.667 108.684C117.592 108.684 119.517 108.684 121.5 108.684C121.5 106.832 121.5 104.979 121.5 103.07C123.81 103.07 126.12 103.07 128.5 103.07C128.5 100.847 128.5 98.6239 128.5 96.3333C130.425 95.9628 132.35 95.5923 134.333 95.2105C134.718 93.7284 135.103 92.2463 135.5 90.7193C137.425 90.7193 139.35 90.7193 141.333 90.7193C141.333 88.4961 141.333 86.273 141.333 83.9825Z" fill="#98A0AA"/>
<path d="M27 60.4035C28.925 60.4035 30.85 60.4035 32.8333 60.4035C32.8333 78.5593 32.8333 96.7151 32.8333 115.421C30.9083 115.421 28.9833 115.421 27 115.421C27 97.2653 27 79.1095 27 60.4035Z" fill="#454545"/>
<path d="M148.333 60.4035C150.258 60.4035 152.183 60.4035 154.167 60.4035C154.167 78.5593 154.167 96.7151 154.167 115.421C152.242 115.421 150.317 115.421 148.333 115.421C148.333 97.2653 148.333 79.1095 148.333 60.4035Z" fill="#757F8B"/>
<path d="M78.3333 17.7368C96.8133 17.7368 115.293 17.7368 134.333 17.7368C134.911 20.5158 134.911 20.5158 135.5 23.3509C116.635 23.3509 97.77 23.3509 78.3333 23.3509C78.3333 21.4982 78.3333 19.6456 78.3333 17.7368Z" fill="#9097A0"/>
<path d="M179.833 60.4035C181.758 60.4035 183.683 60.4035 185.667 60.4035C185.667 78.1888 185.667 95.974 185.667 114.298C183.742 114.298 181.817 114.298 179.833 114.298C179.833 96.513 179.833 78.7277 179.833 60.4035Z" fill="#454545"/>
<path d="M78.3333 11C96.8133 11 115.293 11 134.333 11C134.333 12.8526 134.333 14.7053 134.333 16.614C115.853 16.614 97.3733 16.614 78.3333 16.614C78.3333 14.7614 78.3333 12.9088 78.3333 11Z" fill="#454545"/>
<path d="M72.5 153.596C95.215 153.596 117.93 153.596 141.333 153.596C141.333 155.079 141.333 156.561 141.333 158.088C118.618 158.088 95.9034 158.088 72.5 158.088C72.5 156.606 72.5 155.124 72.5 153.596Z" fill="#6B7580"/>
<path d="M45.6667 60.4035C46.0517 60.4035 46.4367 60.4035 46.8333 60.4035C46.8333 78.1888 46.8333 95.974 46.8333 114.298C48.7583 114.298 50.6833 114.298 52.6667 114.298C52.6667 112.816 52.6667 111.334 52.6667 109.807C54.2067 109.807 55.7467 109.807 57.3333 109.807C57.7183 112.03 58.1033 114.253 58.5 116.544C60.425 116.544 62.35 116.544 64.3333 116.544C64.3333 118.396 64.3333 120.249 64.3333 122.158C66.2583 122.158 68.1833 122.158 70.1667 122.158C70.1667 124.011 70.1667 125.863 70.1667 127.772C68.6267 127.772 67.0867 127.772 65.5 127.772C65.5 129.995 65.5 132.218 65.5 134.509C63.19 134.138 60.88 133.768 58.5 133.386C58.5 131.533 58.5 129.681 58.5 127.772C56.575 127.772 54.65 127.772 52.6667 127.772C52.6667 123.696 52.6667 119.62 52.6667 115.421C50.3567 115.421 48.0467 115.421 45.6667 115.421C45.6667 97.2653 45.6667 79.1095 45.6667 60.4035Z" fill="#A2A9B2"/>
<path d="M176.406 115.351C178.103 115.386 178.103 115.386 179.833 115.421C179.833 119.497 179.833 123.573 179.833 127.772C177.908 127.772 175.983 127.772 174 127.772C174 129.995 174 132.218 174 134.509C171.69 134.509 169.38 134.509 167 134.509C167 136.361 167 138.214 167 140.123C165.075 140.123 163.15 140.123 161.167 140.123C161.167 141.975 161.167 143.828 161.167 145.737C158.857 145.737 156.547 145.737 154.167 145.737C154.552 142.032 154.937 138.326 155.333 134.509C157.258 134.509 159.183 134.509 161.167 134.509C161.167 132.286 161.167 130.062 161.167 127.772C166.364 127.216 166.364 127.216 171.667 126.649C171.643 125.005 171.619 123.361 171.594 121.667C171.569 119.959 171.583 118.25 171.667 116.544C172.833 115.421 172.833 115.421 176.406 115.351Z" fill="#595F67"/>
<path d="M148.333 145.737C150.258 145.737 152.183 145.737 154.167 145.737C154.167 147.96 154.167 150.183 154.167 152.474C152.242 152.474 150.317 152.474 148.333 152.474C148.333 182.857 148.333 213.24 148.333 244.544C147.948 244.544 147.563 244.544 147.167 244.544C147.167 214.531 147.167 184.519 147.167 153.596C145.627 153.596 144.087 153.596 142.5 153.596C142.5 181.756 142.5 209.916 142.5 238.93C139.613 239.486 139.613 239.486 136.667 240.053C136.282 241.535 135.897 243.017 135.5 244.544C135.5 242.321 135.5 240.098 135.5 237.807C137.425 237.807 139.35 237.807 141.333 237.807C141.333 209.647 141.333 181.487 141.333 152.474C143.258 152.103 145.183 151.733 147.167 151.351C147.552 149.498 147.937 147.646 148.333 145.737Z" fill="#38393B"/>
<path d="M58.5 140.123C60.81 140.123 63.12 140.123 65.5 140.123C65.5 141.975 65.5 143.828 65.5 145.737C67.425 145.737 69.35 145.737 71.3333 145.737C71.3333 143.884 71.3333 142.032 71.3333 140.123C71.7183 140.123 72.1033 140.123 72.5 140.123C72.5 141.975 72.5 143.828 72.5 145.737C76.35 145.737 80.2 145.737 84.1667 145.737C84.1667 146.107 84.1667 146.478 84.1667 146.86C80.3167 146.86 76.4667 146.86 72.5 146.86C72.5 148.342 72.5 149.824 72.5 151.351C95.215 151.351 117.93 151.351 141.333 151.351C141.333 149.869 141.333 148.387 141.333 146.86C143.258 146.86 145.183 146.86 147.167 146.86C147.167 148.342 147.167 149.824 147.167 151.351C142.758 153.309 139.305 153.88 134.464 153.887C132.431 153.898 132.431 153.898 130.357 153.909C128.904 153.904 127.45 153.899 125.952 153.895C124.45 153.897 122.947 153.899 121.398 153.901C118.222 153.905 115.045 153.9 111.869 153.889C107.812 153.876 103.754 153.884 99.697 153.897C95.8099 153.907 91.9229 153.9 88.0358 153.895C86.5846 153.899 85.1334 153.904 83.6382 153.909C82.2795 153.901 80.9207 153.894 79.5208 153.887C78.3311 153.885 77.1414 153.883 75.9157 153.882C72.1113 153.564 69.0217 152.764 65.5 151.351C64.4792 148.965 64.4792 148.965 64.3333 146.86C62.4083 146.489 60.4833 146.119 58.5 145.737C58.5 143.884 58.5 142.032 58.5 140.123Z" fill="#868F99"/>
<path d="M58.5 60.4035C60.425 60.4035 62.35 60.4035 64.3333 60.4035C64.3333 74.4835 64.3333 88.5635 64.3333 103.07C62.4083 102.7 60.4833 102.329 58.5 101.947C58.5 88.2379 58.5 74.5284 58.5 60.4035Z" fill="#89919B"/>
<path d="M72.5 158.088C95.215 158.088 117.93 158.088 141.333 158.088C141.333 158.458 141.333 158.829 141.333 159.211C120.543 159.211 99.7534 159.211 78.3334 159.211C78.3334 181.072 78.3334 202.933 78.3334 225.456C79.8734 225.456 81.4134 225.456 83 225.456C83 223.974 83 222.492 83 220.965C85.31 220.965 87.62 220.965 90 220.965C90 222.447 90 223.929 90 225.456C92.31 225.456 94.62 225.456 97 225.456C97 225.827 97 226.197 97 226.579C95.075 226.579 93.15 226.579 91.1667 226.579C91.1667 228.432 91.1667 230.284 91.1667 232.193C90.7817 232.193 90.3967 232.193 90 232.193C90 230.34 90 228.488 90 226.579C85.765 226.579 81.53 226.579 77.1667 226.579C77.1667 204.347 77.1667 182.116 77.1667 159.211C75.6267 158.84 74.0867 158.469 72.5 158.088Z" fill="#6C6A75"/>
<path d="M141.333 115.421C143.643 115.421 145.953 115.421 148.333 115.421C148.333 117.644 148.333 119.867 148.333 122.158C146.408 122.158 144.483 122.158 142.5 122.158C142.524 123.061 142.548 123.964 142.573 124.895C142.5 127.772 142.5 127.772 141.333 128.895C139.366 128.976 137.396 128.989 135.427 128.965C134.355 128.955 133.283 128.945 132.178 128.934C131.349 128.921 130.52 128.908 129.667 128.895C129.667 130.747 129.667 132.6 129.667 134.509C116.577 134.509 103.487 134.509 90 134.509C90 134.138 90 133.768 90 133.386C102.705 133.386 115.41 133.386 128.5 133.386C128.5 129.31 128.5 125.234 128.5 121.035C132.735 121.035 136.97 121.035 141.333 121.035C141.333 119.182 141.333 117.33 141.333 115.421Z" fill="#7D8793"/>
<path d="M71.3333 158.088C71.7183 158.088 72.1033 158.088 72.5 158.088C72.5 184.395 72.5 210.702 72.5 237.807C74.04 237.807 75.58 237.807 77.1667 237.807C77.1667 235.584 77.1667 233.361 77.1667 231.07C79.0917 231.07 81.0167 231.07 83 231.07C83 229.588 83 228.106 83 226.579C85.31 226.579 87.62 226.579 90 226.579C90 228.432 90 230.284 90 232.193C88.075 232.193 86.15 232.193 84.1667 232.193C84.1667 234.416 84.1667 236.639 84.1667 238.93C82.2417 238.93 80.3167 238.93 78.3333 238.93C78.3333 240.782 78.3333 242.635 78.3333 244.544C77.9483 244.544 77.5633 244.544 77.1667 244.544C77.1667 242.691 77.1667 240.839 77.1667 238.93C75.2417 238.93 73.3167 238.93 71.3333 238.93C71.3333 212.252 71.3333 185.574 71.3333 158.088Z" fill="#362665"/>
<path d="M45.6667 35.7018C47.9767 35.7018 50.2867 35.7018 52.6667 35.7018C52.6667 37.5544 52.6667 39.407 52.6667 41.3158C50.7417 41.6863 48.8167 42.0568 46.8333 42.4386C46.4483 44.2912 46.0633 46.1439 45.6667 48.0526C43.7417 48.0526 41.8167 48.0526 39.8333 48.0526C39.8333 52.1284 39.8333 56.2042 39.8333 60.4035C37.5233 60.4035 35.2133 60.4035 32.8333 60.4035C32.8333 55.9572 32.8333 51.5109 32.8333 46.9298C34.7583 46.9298 36.6833 46.9298 38.6667 46.9298C38.6667 45.0772 38.6667 43.2246 38.6667 41.3158C40.9767 41.3158 43.2867 41.3158 45.6667 41.3158C45.6667 39.4632 45.6667 37.6105 45.6667 35.7018Z" fill="#46484A"/>
<path d="M161.167 41.3158C165.402 41.3158 169.637 41.3158 174 41.3158C174 43.1684 174 45.0211 174 46.9298C175.925 46.9298 177.85 46.9298 179.833 46.9298C179.833 51.3761 179.833 55.8225 179.833 60.4035C177.523 60.4035 175.213 60.4035 172.833 60.4035C170.958 56.7942 171.6 53.177 171.667 49.1754C170.993 49.0133 170.319 48.8512 169.625 48.6842C167.194 48.0994 164.764 47.5146 162.333 46.9298C161.948 45.0772 161.563 43.2246 161.167 41.3158Z" fill="#60656A"/>
<path d="M45.6667 115.421C47.9767 115.421 50.2867 115.421 52.6667 115.421C52.6667 119.497 52.6667 123.573 52.6667 127.772C54.5917 127.772 56.5167 127.772 58.5 127.772C58.5 129.625 58.5 131.477 58.5 133.386C59.4384 133.363 60.3769 133.34 61.3438 133.316C64.3333 133.386 64.3333 133.386 65.5 134.509C65.5474 136.38 65.5499 138.252 65.5 140.123C63.19 140.123 60.88 140.123 58.5 140.123C58.5 138.27 58.5 136.418 58.5 134.509C56.19 134.509 53.88 134.509 51.5 134.509C51.5 132.286 51.5 130.062 51.5 127.772C49.575 127.772 47.65 127.772 45.6667 127.772C45.6667 123.696 45.6667 119.62 45.6667 115.421Z" fill="#D5D7DA"/>
<path d="M85.3333 42.4386C97.6533 42.4386 109.973 42.4386 122.667 42.4386C122.667 43.9207 122.667 45.4028 122.667 46.9298C110.347 46.9298 98.0267 46.9298 85.3333 46.9298C85.3333 45.4477 85.3333 43.9656 85.3333 42.4386Z" fill="#89919A"/>
<path d="M154.167 127.772C156.477 127.772 158.787 127.772 161.167 127.772C161.167 129.995 161.167 132.218 161.167 134.509C159.242 134.509 157.317 134.509 155.333 134.509C154.948 138.214 154.563 141.919 154.167 145.737C151.857 145.737 149.547 145.737 147.167 145.737C147.167 143.884 147.167 142.032 147.167 140.123C145.627 139.752 144.087 139.382 142.5 139C144.04 139 145.58 139 147.167 139C147.552 137.147 147.937 135.295 148.333 133.386C150.258 133.386 152.183 133.386 154.167 133.386C154.167 131.533 154.167 129.681 154.167 127.772Z" fill="#9199A3"/>
<path d="M135.5 23.3509C139.35 23.3509 143.2 23.3509 147.167 23.3509C147.552 25.2035 147.937 27.0561 148.333 28.9649C149.873 29.3354 151.413 29.706 153 30.0877C153 31.9403 153 33.793 153 35.7018C151.075 35.7018 149.15 35.7018 147.167 35.7018C147.167 33.8491 147.167 31.9965 147.167 30.0877C143.317 30.0877 139.467 30.0877 135.5 30.0877C135.5 27.8646 135.5 25.6414 135.5 23.3509Z" fill="#9198A1"/>
<path d="M32.8333 115.421C35.1433 115.421 37.4533 115.421 39.8333 115.421C39.8333 121.349 39.8333 127.278 39.8333 133.386C41.7583 133.386 43.6833 133.386 45.6667 133.386C45.6667 133.756 45.6667 134.127 45.6667 134.509C43.3567 134.509 41.0467 134.509 38.6667 134.509C38.6667 132.286 38.6667 130.062 38.6667 127.772C36.7417 127.772 34.8167 127.772 32.8333 127.772C32.8333 123.696 32.8333 119.62 32.8333 115.421Z" fill="#535456"/>
<path d="M109.833 214.228C113.683 214.228 117.533 214.228 121.5 214.228C121.885 217.933 122.27 221.639 122.667 225.456C120.742 225.456 118.817 225.456 116.833 225.456C116.833 223.604 116.833 221.751 116.833 219.842C114.523 219.842 112.213 219.842 109.833 219.842C109.833 217.989 109.833 216.137 109.833 214.228Z" fill="#271C48"/>
<path d="M154.167 23.3509C154.552 23.3509 154.937 23.3509 155.333 23.3509C155.333 25.2035 155.333 27.0561 155.333 28.9649C157.258 28.9649 159.183 28.9649 161.167 28.9649C161.167 30.8175 161.167 32.6702 161.167 34.5789C163.092 34.5789 165.017 34.5789 167 34.5789C167 36.8021 167 39.0253 167 41.3158C163.15 41.3158 159.3 41.3158 155.333 41.3158C155.333 39.4632 155.333 37.6105 155.333 35.7018C156.873 35.7018 158.413 35.7018 160 35.7018C160 33.8491 160 31.9965 160 30.0877C158.075 30.0877 156.15 30.0877 154.167 30.0877C154.167 27.8646 154.167 25.6414 154.167 23.3509Z" fill="#686D72"/>
<path d="M160 115.421C162.31 115.421 164.62 115.421 167 115.421C167 119.497 167 123.573 167 127.772C164.69 127.772 162.38 127.772 160 127.772C160 123.696 160 119.62 160 115.421Z" fill="#97A0AA"/>
<path d="M83 226.579C85.31 226.579 87.62 226.579 90 226.579C90 228.432 90 230.284 90 232.193C88.075 232.193 86.15 232.193 84.1667 232.193C84.1667 234.046 84.1667 235.898 84.1667 237.807C81.8567 237.807 79.5467 237.807 77.1667 237.807C77.1667 235.584 77.1667 233.361 77.1667 231.07C79.0917 231.07 81.0167 231.07 83 231.07C83 229.588 83 228.106 83 226.579Z" fill="#1D1435"/>
<path d="M95.8334 214.228C98.1434 214.228 100.453 214.228 102.833 214.228C102.833 216.081 102.833 217.933 102.833 219.842C100.908 219.842 98.9834 219.842 97 219.842C97 221.695 97 223.547 97 225.456C94.69 225.456 92.38 225.456 90 225.456C90 223.604 90 221.751 90 219.842C91.925 219.472 93.85 219.101 95.8334 218.719C95.8334 217.237 95.8334 215.755 95.8334 214.228Z" fill="#1D1436"/>
<path d="M142.5 54.7895C144.425 54.7895 146.35 54.7895 148.333 54.7895C148.333 56.2716 148.333 57.7537 148.333 59.2807C150.643 59.2807 152.953 59.2807 155.333 59.2807C155.333 63.727 155.333 68.1733 155.333 72.7544C154.948 72.7544 154.563 72.7544 154.167 72.7544C154.167 68.6786 154.167 64.6028 154.167 60.4035C152.242 60.4035 150.317 60.4035 148.333 60.4035C148.445 61.8234 148.556 63.2432 148.671 64.7061C148.802 66.5701 148.933 68.4342 149.063 70.2982C149.138 71.234 149.213 72.1697 149.29 73.1338C149.351 74.0348 149.411 74.9357 149.473 75.864C149.534 76.6931 149.595 77.5222 149.658 78.3764C149.5 80.614 149.5 80.614 147.167 83.9825C147.167 76.2014 147.167 68.4204 147.167 60.4035C145.627 60.4035 144.087 60.4035 142.5 60.4035C142.5 58.5509 142.5 56.6982 142.5 54.7895Z" fill="#818B96"/>
<path d="M148.333 23.3509C150.258 23.3509 152.183 23.3509 154.167 23.3509C154.167 25.574 154.167 27.7972 154.167 30.0877C156.092 30.0877 158.017 30.0877 160 30.0877C160 31.9403 160 33.793 160 35.7018C157.69 35.7018 155.38 35.7018 153 35.7018C153 33.8491 153 31.9965 153 30.0877C151.46 30.0877 149.92 30.0877 148.333 30.0877C148.333 27.8646 148.333 25.6414 148.333 23.3509Z" fill="#454545"/>
<path d="M84.1667 121.035C84.1667 123.258 84.1667 125.481 84.1667 127.772C80.3167 127.772 76.4667 127.772 72.5 127.772C72.5 125.919 72.5 124.067 72.5 122.158C76.4436 120.99 80.0577 120.945 84.1667 121.035Z" fill="#7C8692"/>
<path d="M58.5 101.947C61.3875 102.503 61.3875 102.503 64.3333 103.07C64.3333 107.146 64.3333 111.222 64.3333 115.421C62.4083 115.421 60.4833 115.421 58.5 115.421C58.5 110.975 58.5 106.528 58.5 101.947Z" fill="#7D8793"/>
<path d="M174 115.421C175.925 115.421 177.85 115.421 179.833 115.421C179.833 119.497 179.833 123.573 179.833 127.772C177.908 127.772 175.983 127.772 174 127.772C174 123.696 174 119.62 174 115.421Z" fill="#454545"/>
<path d="M39.8333 115.421C41.7583 115.421 43.6833 115.421 45.6667 115.421C45.6667 119.497 45.6667 123.573 45.6667 127.772C43.7417 127.772 41.8167 127.772 39.8333 127.772C39.8333 123.696 39.8333 119.62 39.8333 115.421Z" fill="#8C939B"/>
<path d="M174 48.0526C175.925 48.0526 177.85 48.0526 179.833 48.0526C179.833 52.1284 179.833 56.2042 179.833 60.4035C177.908 60.4035 175.983 60.4035 174 60.4035C174 56.3277 174 52.2519 174 48.0526Z" fill="#454545"/>
<path d="M39.8333 48.0526C41.7583 48.0526 43.6833 48.0526 45.6667 48.0526C45.6667 52.1284 45.6667 56.2042 45.6667 60.4035C43.7417 60.4035 41.8167 60.4035 39.8333 60.4035C39.8333 56.3277 39.8333 52.2519 39.8333 48.0526Z" fill="#8D949C"/>
<path d="M71.3333 48.0526C75.5683 48.0526 79.8033 48.0526 84.1667 48.0526C84.1667 49.9053 84.1667 51.7579 84.1667 53.6667C79.9317 53.6667 75.6967 53.6667 71.3333 53.6667C71.3333 51.814 71.3333 49.9614 71.3333 48.0526Z" fill="#89919A"/>
<path d="M58.5 140.123C60.81 140.123 63.12 140.123 65.5 140.123C65.5 141.975 65.5 143.828 65.5 145.737C67.425 145.737 69.35 145.737 71.3333 145.737C71.3333 143.884 71.3333 142.032 71.3333 140.123C71.7183 140.123 72.1033 140.123 72.5 140.123C72.5 141.975 72.5 143.828 72.5 145.737C76.35 145.737 80.2 145.737 84.1667 145.737C84.1667 146.107 84.1667 146.478 84.1667 146.86C80.9826 146.89 77.7988 146.912 74.6146 146.93C73.7175 146.939 72.8204 146.949 71.8962 146.958C67.2672 146.977 63.02 146.844 58.5 145.737C58.5 143.884 58.5 142.032 58.5 140.123Z" fill="#A1A7AE"/>
<path d="M129.667 122.158C133.517 122.158 137.367 122.158 141.333 122.158C141.333 124.011 141.333 125.863 141.333 127.772C137.483 127.772 133.633 127.772 129.667 127.772C129.667 125.919 129.667 124.067 129.667 122.158Z" fill="#747F8B"/>
<path d="M161.167 49.1754C163.092 49.1754 165.017 49.1754 167 49.1754C167 52.8807 167 56.586 167 60.4035C165.075 60.4035 163.15 60.4035 161.167 60.4035C161.167 56.6982 161.167 52.993 161.167 49.1754Z" fill="#9DA5AF"/>
<path d="M65.5 23.3509C69.35 23.3509 73.2 23.3509 77.1667 23.3509C77.1667 25.2035 77.1667 27.0561 77.1667 28.9649C73.3167 28.9649 69.4667 28.9649 65.5 28.9649C65.5 27.1123 65.5 25.2596 65.5 23.3509Z" fill="#8B929A"/>
<path d="M65.5 17.7368C69.35 17.7368 73.2 17.7368 77.1667 17.7368C77.1667 19.5895 77.1667 21.4421 77.1667 23.3509C73.3167 23.3509 69.4667 23.3509 65.5 23.3509C65.5 21.4982 65.5 19.6456 65.5 17.7368Z" fill="#454545"/>
<path d="M135.5 17.7368C139.35 17.7368 143.2 17.7368 147.167 17.7368C147.167 19.5895 147.167 21.4421 147.167 23.3509C143.317 23.3509 139.467 23.3509 135.5 23.3509C135.5 21.4982 135.5 19.6456 135.5 17.7368Z" fill="#454545"/>
<path d="M64.3333 97.4561C64.7183 97.4561 65.1033 97.4561 65.5 97.4561C65.5 103.385 65.5 109.313 65.5 115.421C67.425 115.421 69.35 115.421 71.3333 115.421C71.3333 117.274 71.3333 119.126 71.3333 121.035C69.4083 121.035 67.4833 121.035 65.5 121.035C65.115 119.924 64.73 118.812 64.3333 117.667C62.4083 117.296 60.4833 116.926 58.5 116.544C58.5 116.173 58.5 115.803 58.5 115.421C60.425 115.421 62.35 115.421 64.3333 115.421C64.3333 109.493 64.3333 103.564 64.3333 97.4561Z" fill="#87909B"/>
<path d="M58.5 145.737C60.425 145.737 62.35 145.737 64.3333 145.737C64.7183 147.589 65.1033 149.442 65.5 151.351C66.4384 151.328 67.3769 151.305 68.3438 151.281C71.3333 151.351 71.3333 151.351 72.5 152.474C72.5474 154.344 72.5498 156.217 72.5 158.088C72.2383 157.364 71.9766 156.64 71.707 155.895C70.3663 153.323 70.3663 153.323 67.3867 152.912C65.8031 152.834 65.8031 152.834 64.1875 152.754C63.1257 152.691 62.064 152.627 60.9701 152.561C60.1549 152.532 59.3398 152.504 58.5 152.474C58.5 150.251 58.5 148.027 58.5 145.737Z" fill="#2D3135"/>
<path d="M160 66.0175C162.31 66.0175 164.62 66.0175 167 66.0175C167 66.3881 167 66.7586 167 67.1403C165.075 67.1403 163.15 67.1403 161.167 67.1403C161.167 68.6225 161.167 70.1046 161.167 71.6316C163.092 71.6316 165.017 71.6316 167 71.6316C167 72.0021 167 72.3726 167 72.7544C165.075 72.7544 163.15 72.7544 161.167 72.7544C161.167 74.607 161.167 76.4596 161.167 78.3684C159.242 78.3684 157.317 78.3684 155.333 78.3684C155.333 76.1453 155.333 73.9221 155.333 71.6316C156.873 71.6316 158.413 71.6316 160 71.6316C160 69.7789 160 67.9263 160 66.0175Z" fill="#949DA7"/>
<path d="M167 48.0526C168.54 48.4232 170.08 48.7937 171.667 49.1754C172.052 52.8807 172.437 56.586 172.833 60.4035C170.908 60.4035 168.983 60.4035 167 60.4035C167 56.3277 167 52.2519 167 48.0526Z" fill="#727B86"/>
<path d="M167 115.421C168.925 115.421 170.85 115.421 172.833 115.421C172.448 119.126 172.063 122.832 171.667 126.649C170.127 127.02 168.587 127.39 167 127.772C167 123.696 167 119.62 167 115.421Z" fill="#727B86"/>
<path d="M85.3333 128.895C89.1833 128.895 93.0333 128.895 97 128.895C97 130.377 97 131.859 97 133.386C93.15 133.386 89.3 133.386 85.3333 133.386C85.3333 131.904 85.3333 130.422 85.3333 128.895Z" fill="#747F8B"/>
<path d="M148.333 145.737C150.258 145.737 152.183 145.737 154.167 145.737C154.167 147.96 154.167 150.183 154.167 152.474C150.317 152.474 146.467 152.474 142.5 152.474C144.04 152.103 145.58 151.733 147.167 151.351C147.552 149.498 147.937 147.646 148.333 145.737Z" fill="#454545"/>
<path d="M135.5 23.3509C139.35 23.3509 143.2 23.3509 147.167 23.3509C147.167 24.833 147.167 26.3151 147.167 27.8421C143.702 27.8421 140.237 27.8421 136.667 27.8421C136.282 26.36 135.897 24.8779 135.5 23.3509Z" fill="#868D96"/>
<path d="M84.1667 220.965C86.0917 220.965 88.0167 220.965 90 220.965C90 222.447 90 223.929 90 225.456C92.31 225.456 94.62 225.456 97 225.456C97 225.827 97 226.197 97 226.579C95.075 226.579 93.15 226.579 91.1667 226.579C91.1667 228.432 91.1667 230.284 91.1667 232.193C90.7817 232.193 90.3967 232.193 90 232.193C90 230.34 90 228.488 90 226.579C88.075 226.579 86.15 226.579 84.1667 226.579C84.1667 224.726 84.1667 222.874 84.1667 220.965Z" fill="#493387"/>
<path d="M34 116.544C35.54 116.544 37.08 116.544 38.6667 116.544C38.6667 119.879 38.6667 123.213 38.6667 126.649C37.1267 126.649 35.5867 126.649 34 126.649C34 123.314 34 119.98 34 116.544Z" fill="#454545"/>
<path d="M129.667 49.1754C133.132 49.1754 136.597 49.1754 140.167 49.1754C140.167 50.6575 140.167 52.1396 140.167 53.6667C136.702 53.6667 133.237 53.6667 129.667 53.6667C129.667 52.1846 129.667 50.7025 129.667 49.1754Z" fill="#7C8691"/>
<path d="M34 49.1754C35.54 49.1754 37.08 49.1754 38.6667 49.1754C38.6667 52.5102 38.6667 55.8449 38.6667 59.2807C37.1267 59.2807 35.5867 59.2807 34 59.2807C34 55.946 34 52.6112 34 49.1754Z" fill="#454545"/>
<path d="M122.667 220.965C124.592 220.965 126.517 220.965 128.5 220.965C128.5 222.818 128.5 224.67 128.5 226.579C126.575 226.579 124.65 226.579 122.667 226.579C122.667 228.432 122.667 230.284 122.667 232.193C122.282 232.193 121.897 232.193 121.5 232.193C121.5 230.34 121.5 228.488 121.5 226.579C119.96 226.208 118.42 225.838 116.833 225.456C118.758 225.456 120.683 225.456 122.667 225.456C122.667 223.974 122.667 222.492 122.667 220.965Z" fill="#463182"/>
<path d="M102.833 207.491C105.143 207.491 107.453 207.491 109.833 207.491C109.833 209.344 109.833 211.196 109.833 213.105C107.523 213.105 105.213 213.105 102.833 213.105C102.833 211.253 102.833 209.4 102.833 207.491Z" fill="#454545"/>
<path d="M102.833 201.877C105.143 201.877 107.453 201.877 109.833 201.877C109.833 203.73 109.833 205.582 109.833 207.491C107.523 207.491 105.213 207.491 102.833 207.491C102.833 205.639 102.833 203.786 102.833 201.877Z" fill="#493386"/>
<path d="M121.5 103.07C121.885 103.07 122.27 103.07 122.667 103.07C122.667 104.923 122.667 106.775 122.667 108.684C122.282 108.684 121.897 108.684 121.5 108.684C121.5 106.832 121.5 104.979 121.5 103.07ZM115.667 108.684C117.592 108.684 119.517 108.684 121.5 108.684C119.96 109.055 118.42 109.425 116.833 109.807C116.833 111.66 116.833 113.512 116.833 115.421C118.373 115.792 119.913 116.162 121.5 116.544C119.96 116.544 118.42 116.544 116.833 116.544C116.448 118.026 116.063 119.508 115.667 121.035C115.667 119.553 115.667 118.071 115.667 116.544C113.742 116.544 111.817 116.544 109.833 116.544C109.833 116.173 109.833 115.803 109.833 115.421C111.758 115.421 113.683 115.421 115.667 115.421C115.667 113.198 115.667 110.975 115.667 108.684Z" fill="#929BA6"/>
<path d="M81.3229 122.088C82.7306 122.122 82.7306 122.122 84.1667 122.158C84.1667 124.011 84.1667 125.863 84.1667 127.772C82.2417 127.772 80.3167 127.772 78.3334 127.772C77.6771 125.596 77.6771 125.596 77.1667 123.281C78.3334 122.158 78.3334 122.158 81.3229 122.088Z" fill="#75808C"/>
<path d="M162.333 116.544C163.488 116.544 164.643 116.544 165.833 116.544C165.833 119.879 165.833 123.213 165.833 126.649C164.678 126.649 163.523 126.649 162.333 126.649C162.333 123.314 162.333 119.98 162.333 116.544Z" fill="#A0A8B1"/>
<path d="M129.667 232.193C131.592 232.193 133.517 232.193 135.5 232.193C135.5 234.046 135.5 235.898 135.5 237.807C133.575 237.807 131.65 237.807 129.667 237.807C129.667 235.954 129.667 234.102 129.667 232.193Z" fill="#454545"/>
<path d="M84.1667 226.579C86.0917 226.579 88.0167 226.579 90 226.579C90 228.432 90 230.284 90 232.193C88.075 232.193 86.15 232.193 84.1667 232.193C84.1667 230.34 84.1667 228.488 84.1667 226.579Z" fill="#454545"/>
<path d="M116.833 219.842C118.758 219.842 120.683 219.842 122.667 219.842C122.667 221.695 122.667 223.547 122.667 225.456C120.742 225.456 118.817 225.456 116.833 225.456C116.833 223.604 116.833 221.751 116.833 219.842Z" fill="#454545"/>
<path d="M141.333 140.123C143.258 140.123 145.183 140.123 147.167 140.123C147.167 141.975 147.167 143.828 147.167 145.737C145.242 145.737 143.317 145.737 141.333 145.737C141.333 143.884 141.333 142.032 141.333 140.123Z" fill="#9CA4AD"/>
<path d="M52.6667 140.123C54.5917 140.123 56.5167 140.123 58.5 140.123C58.5 141.975 58.5 143.828 58.5 145.737C56.575 145.737 54.65 145.737 52.6667 145.737C52.6667 143.884 52.6667 142.032 52.6667 140.123Z" fill="#454545"/>
<path d="M154.167 140.123C156.092 140.123 158.017 140.123 160 140.123C160 141.975 160 143.828 160 145.737C158.075 145.737 156.15 145.737 154.167 145.737C154.167 143.884 154.167 142.032 154.167 140.123Z" fill="#454545"/>
<path d="M148.333 140.123C150.258 140.123 152.183 140.123 154.167 140.123C154.167 141.975 154.167 143.828 154.167 145.737C152.242 145.737 150.317 145.737 148.333 145.737C148.333 143.884 148.333 142.032 148.333 140.123Z" fill="#6A737E"/>
<path d="M58.5 140.123C60.425 140.123 62.35 140.123 64.3333 140.123C64.3333 141.975 64.3333 143.828 64.3333 145.737C62.4083 145.737 60.4833 145.737 58.5 145.737C58.5 143.884 58.5 142.032 58.5 140.123Z" fill="#6E7680"/>
<path d="M167 127.772C168.925 127.772 170.85 127.772 172.833 127.772C172.833 129.625 172.833 131.477 172.833 133.386C170.908 133.386 168.983 133.386 167 133.386C167 131.533 167 129.681 167 127.772Z" fill="#454545"/>
<path d="M39.8333 127.772C41.7583 127.772 43.6833 127.772 45.6667 127.772C45.6667 129.625 45.6667 131.477 45.6667 133.386C43.7417 133.386 41.8167 133.386 39.8333 133.386C39.8333 131.533 39.8333 129.681 39.8333 127.772Z" fill="#454545"/>
<path d="M154.167 127.772C156.092 127.772 158.017 127.772 160 127.772C160 129.625 160 131.477 160 133.386C158.075 133.386 156.15 133.386 154.167 133.386C154.167 131.533 154.167 129.681 154.167 127.772Z" fill="#9DA5AE"/>
<path d="M129.667 97.4561C131.592 97.4561 133.517 97.4561 135.5 97.4561C135.5 99.3088 135.5 101.161 135.5 103.07C133.575 103.07 131.65 103.07 129.667 103.07C129.667 101.218 129.667 99.3649 129.667 97.4561Z" fill="#9DA5AF"/>
<path d="M135.5 90.7193C137.425 90.7193 139.35 90.7193 141.333 90.7193C141.333 92.5719 141.333 94.4246 141.333 96.3333C139.408 96.3333 137.483 96.3333 135.5 96.3333C135.5 94.4807 135.5 92.6281 135.5 90.7193Z" fill="#9EA6AF"/>
<path d="M39.8333 42.4386C41.7583 42.4386 43.6833 42.4386 45.6667 42.4386C45.6667 44.2912 45.6667 46.1439 45.6667 48.0526C43.7417 48.0526 41.8167 48.0526 39.8333 48.0526C39.8333 46.2 39.8333 44.3474 39.8333 42.4386Z" fill="#454545"/>
<path d="M167 42.4386C168.925 42.4386 170.85 42.4386 172.833 42.4386C172.833 44.2912 172.833 46.1439 172.833 48.0526C170.908 48.0526 168.983 48.0526 167 48.0526C167 46.2 167 44.3474 167 42.4386Z" fill="#454545"/>
<path d="M52.6667 35.7018C54.5917 35.7018 56.5167 35.7018 58.5 35.7018C58.5 37.5544 58.5 39.407 58.5 41.3158C56.575 41.3158 54.65 41.3158 52.6667 41.3158C52.6667 39.4632 52.6667 37.6105 52.6667 35.7018Z" fill="#8A9199"/>
<path d="M52.6667 30.0877C54.5917 30.0877 56.5167 30.0877 58.5 30.0877C58.5 31.9403 58.5 33.793 58.5 35.7018C56.575 35.7018 54.65 35.7018 52.6667 35.7018C52.6667 33.8491 52.6667 31.9965 52.6667 30.0877Z" fill="#454545"/>
<path d="M148.333 23.3509C150.258 23.3509 152.183 23.3509 154.167 23.3509C154.167 25.2035 154.167 27.0561 154.167 28.9649C152.242 28.9649 150.317 28.9649 148.333 28.9649C148.333 27.1123 148.333 25.2596 148.333 23.3509Z" fill="#454545"/>
<path d="M58.5 23.3509C60.425 23.3509 62.35 23.3509 64.3333 23.3509C64.3333 25.2035 64.3333 27.0561 64.3333 28.9649C62.4083 28.9649 60.4833 28.9649 58.5 28.9649C58.5 27.1123 58.5 25.2596 58.5 23.3509Z" fill="#454545"/>
<path d="M136.667 18.8596C139.747 18.8596 142.827 18.8596 146 18.8596C146 19.9712 146 21.0828 146 22.2281C142.92 22.2281 139.84 22.2281 136.667 22.2281C136.667 21.1165 136.667 20.0049 136.667 18.8596Z" fill="#454545"/>
<path d="M142.5 54.7895C144.425 54.7895 146.35 54.7895 148.333 54.7895C147.948 56.2716 147.563 57.7537 147.167 59.2807C145.627 59.6512 144.087 60.0218 142.5 60.4035C142.5 58.5509 142.5 56.6982 142.5 54.7895Z" fill="#7C8692"/>
<path d="M97 207.491C98.925 207.491 100.85 207.491 102.833 207.491C102.448 209.344 102.063 211.196 101.667 213.105C100.127 213.105 98.5867 213.105 97 213.105C97 211.253 97 209.4 97 207.491Z" fill="#483285"/>
<path d="M141.333 146.86C143.258 146.86 145.183 146.86 147.167 146.86C147.167 148.342 147.167 149.824 147.167 151.351C145.242 151.721 143.317 152.092 141.333 152.474C141.333 150.621 141.333 148.768 141.333 146.86Z" fill="#6F7883"/>
<path d="M52.6667 134.509C54.5917 134.509 56.5167 134.509 58.5 134.509C58.5 136.361 58.5 138.214 58.5 140.123C56.575 139.752 54.65 139.382 52.6667 139C52.6667 137.518 52.6667 136.036 52.6667 134.509Z" fill="#717A84"/>
<path d="M45.6667 127.772C47.5917 127.772 49.5167 127.772 51.5 127.772C51.5 129.625 51.5 131.477 51.5 133.386C49.96 133.386 48.42 133.386 46.8333 133.386C46.4483 131.533 46.0633 129.681 45.6667 127.772Z" fill="#727B85"/>
<path d="M161.167 41.3158C163.092 41.3158 165.017 41.3158 167 41.3158C167 43.1684 167 45.0211 167 46.9298C165.46 46.9298 163.92 46.9298 162.333 46.9298C161.948 45.0772 161.563 43.2246 161.167 41.3158Z" fill="#606872"/>
<path d="M90 220.965C91.925 220.965 93.85 220.965 95.8334 220.965C95.8334 222.447 95.8334 223.929 95.8334 225.456C93.9083 225.456 91.9833 225.456 90 225.456C90 223.974 90 222.492 90 220.965Z" fill="#454545"/>
<path d="M65.5 146.86C67.425 146.86 69.35 146.86 71.3334 146.86C71.3334 148.342 71.3334 149.824 71.3334 151.351C69.4083 151.351 67.4833 151.351 65.5 151.351C65.5 149.869 65.5 148.387 65.5 146.86Z" fill="#707984"/>
<path d="M161.167 134.509C163.092 134.509 165.017 134.509 167 134.509C167 135.991 167 137.473 167 139C165.075 139 163.15 139 161.167 139C161.167 137.518 161.167 136.036 161.167 134.509Z" fill="#454545"/>
<path d="M109.833 116.544C111.758 116.544 113.683 116.544 115.667 116.544C115.667 118.026 115.667 119.508 115.667 121.035C113.742 121.035 111.817 121.035 109.833 121.035C109.833 119.553 109.833 118.071 109.833 116.544Z" fill="#9EA6B0"/>
<path d="M142.5 85.1053C144.04 85.1053 145.58 85.1053 147.167 85.1053C147.167 86.9579 147.167 88.8105 147.167 90.7193C145.627 90.7193 144.087 90.7193 142.5 90.7193C142.5 88.8667 142.5 87.014 142.5 85.1053Z" fill="#9EA6B0"/>
<path d="M155.333 72.7544C156.873 72.7544 158.413 72.7544 160 72.7544C160 74.607 160 76.4596 160 78.3684C158.46 78.3684 156.92 78.3684 155.333 78.3684C155.333 76.5158 155.333 74.6632 155.333 72.7544Z" fill="#9EA6B0"/>
<path d="M122.667 42.4386C124.592 42.4386 126.517 42.4386 128.5 42.4386C128.5 43.9207 128.5 45.4028 128.5 46.9298C126.575 46.9298 124.65 46.9298 122.667 46.9298C122.667 45.4477 122.667 43.9656 122.667 42.4386Z" fill="#7B8590"/>
<path d="M161.167 36.8246C163.092 36.8246 165.017 36.8246 167 36.8246C167 38.3067 167 39.7888 167 41.3158C165.075 41.3158 163.15 41.3158 161.167 41.3158C161.167 39.8337 161.167 38.3516 161.167 36.8246Z" fill="#454545"/>
<path d="M109.833 207.491C112.721 208.047 112.721 208.047 115.667 208.614C115.667 210.096 115.667 211.578 115.667 213.105C114.127 213.105 112.587 213.105 111 213.105C110.615 211.253 110.23 209.4 109.833 207.491Z" fill="#463182"/>
<path d="M161.167 127.772C163.092 127.772 165.017 127.772 167 127.772C166.615 129.254 166.23 130.736 165.833 132.263C164.293 132.634 162.753 133.004 161.167 133.386C161.167 131.533 161.167 129.681 161.167 127.772Z" fill="#717A84"/>
<path d="M62.29 60.1227V99.5206" stroke="#7D8793" stroke-width="7"/>
<path d="M68.712 57.0635V56.9846" stroke="#7D8793" stroke-width="7"/>
<path d="M68.365 53.3627V59.6001" stroke="#7D8793" stroke-width="7"/>
<path d="M83.5308 44.3931H122.178" stroke="#7D8793" stroke-width="7"/>
<path d="M73.1701 50.5304H81.5392" stroke="#7D8793" stroke-width="7"/>
<path d="M62.2033 98.1695V106.46" stroke="#7D8793" stroke-width="7"/>
</g></svg>
